CrickxSharkCut.sfdir

StartChar: exclam
Encoding: 33 33 22
Width: 341
Flags: W
LayerCount: 2
Fore
SplineSet
295 666 m 1,0,-1
 219 185 l 1,1,-1
 76 185 l 1,2,-1
 154 666 l 1,3,-1
 295 666 l 1,0,-1
208 134 m 1,4,-1
 187 0 l 1,5,-1
 47 0 l 1,6,-1
 71 134 l 1,7,-1
 208 134 l 1,4,-1
EndSplineSet
EndChar

StartChar: quotedbl
Encoding: 34 34 23
Width: 467
Flags: W
LayerCount: 2
Fore
SplineSet
97 383 m 1,0,-1
 116 505 l 1,1,-1
 59 505 l 1,2,-1
 72 666 l 1,3,-1
 229 666 l 1,4,-1
 178 384 l 1,5,-1
 97 383 l 1,0,-1
284 383 m 1,6,-1
 306 505 l 1,7,-1
 249 505 l 1,8,-1
 262 666 l 1,9,-1
 419 665 l 1,10,-1
 368 384 l 1,11,-1
 284 383 l 1,6,-1
EndSplineSet
EndChar

StartChar: numbersign
Encoding: 35 35 24
Width: 640
Flags: W
LayerCount: 2
Fore
SplineSet
568 387 m 1,0,-1
 549 273 l 1,1,-1
 285 273 l 1,2,-1
 274 203 l 1,3,-1
 345 203 l 1,4,-1
 354 267 l 1,5,-1
 478 266 l 1,6,-1
 467 203 l 1,7,-1
 538 203 l 1,8,-1
 519 86 l 1,9,-1
 448 86 l 1,10,-1
 434 1 l 1,11,-1
 310 1 l 1,12,-1
 325 86 l 1,13,-1
 253 86 l 1,14,-1
 240 1 l 1,15,-1
 116 1 l 1,16,-1
 131 86 l 1,17,-1
 56 86 l 1,18,-1
 76 203 l 1,19,-1
 152 203 l 1,20,-1
 162 273 l 1,21,-1
 85 273 l 1,22,-1
 104 387 l 1,23,-1
 180 387 l 1,24,-1
 193 470 l 1,25,-1
 316 470 l 1,26,-1
 303 387 l 1,27,-1
 376 387 l 1,28,-1
 387 470 l 1,29,-1
 511 470 l 1,30,-1
 498 387 l 1,31,-1
 568 387 l 1,0,-1
EndSplineSet
EndChar

StartChar: dollar
Encoding: 36 36 25
Width: 495
Flags: W
LayerCount: 2
Fore
SplineSet
129 8 m 1,0,1
 82 21 82 21 58 43.5 c 128,-1,2
 34 66 34 66 36 80 c 0,3,4
 37 89 37 89 40 107 c 0,5,6
 42 122 42 122 46 148.5 c 128,-1,7
 50 175 50 175 58 217 c 1,8,-1
 184 218 l 1,9,10
 181 208 181 208 180 201.5 c 128,-1,11
 179 195 179 195 178 190 c 256,12,13
 177 185 177 185 177 181 c 0,14,15
 177 169 177 169 184 155.5 c 128,-1,16
 191 142 191 142 215 142 c 0,17,18
 234 142 234 142 245 152 c 128,-1,19
 256 162 256 162 261.5 176 c 128,-1,20
 267 190 267 190 268.5 205.5 c 128,-1,21
 270 221 270 221 272 232 c 1,22,23
 273 244 273 244 260 257.5 c 128,-1,24
 247 271 247 271 226.5 285.5 c 128,-1,25
 206 300 206 300 181.5 315.5 c 128,-1,26
 157 331 157 331 137 346 c 128,-1,27
 117 361 117 361 104 376 c 128,-1,28
 91 391 91 391 94 405 c 1,29,30
 98 437 98 437 101.5 464 c 128,-1,31
 105 491 105 491 115 524 c 0,32,33
 121 543 121 543 132.5 559.5 c 128,-1,34
 144 576 144 576 160 589 c 128,-1,35
 176 602 176 602 194 611.5 c 128,-1,36
 212 621 212 621 230 628 c 1,37,-1
 242 716 l 1,38,-1
 384 716 l 1,39,-1
 370 633 l 1,40,41
 401 622 401 622 425.5 600.5 c 128,-1,42
 450 579 450 579 458 547 c 1,43,44
 459 537 459 537 460 522 c 0,45,46
 461 509 461 509 460.5 489.5 c 128,-1,47
 460 470 460 470 457 444 c 1,48,-1
 335 445 l 1,49,50
 338 479 338 479 325 490.5 c 128,-1,51
 312 502 312 502 289 502 c 0,52,53
 271 502 271 502 259.5 496 c 128,-1,54
 248 490 248 490 242 481 c 128,-1,55
 236 472 236 472 234 462.5 c 128,-1,56
 232 453 232 453 231 447 c 0,57,58
 228 427 228 427 241.5 412 c 128,-1,59
 255 397 255 397 276.5 383.5 c 128,-1,60
 298 370 298 370 324.5 355.5 c 128,-1,61
 351 341 351 341 373.5 323.5 c 128,-1,62
 396 306 396 306 411 282 c 128,-1,63
 426 258 426 258 425 226 c 1,64,65
 420 194 420 194 413.5 162.5 c 128,-1,66
 407 131 407 131 397 97 c 0,67,68
 390 74 390 74 355.5 48 c 128,-1,69
 321 22 321 22 269 8 c 1,70,-1
 257 -69 l 1,71,-1
 117 -69 l 1,72,-1
 129 8 l 1,73,-1
 129 8 l 1,0,1
EndSplineSet
EndChar

StartChar: percent
Encoding: 37 37 26
Width: 630
Flags: W
LayerCount: 2
Fore
SplineSet
480 672 m 1,0,-1
 591 608 l 1,1,-1
 359 241 l 1,2,-1
 409 130 l 1,3,4
 407 129 407 129 406 127 c 0,5,6
 404 123 404 123 404 118 c 0,7,8
 404 108 404 108 411.5 99 c 128,-1,9
 419 90 419 90 432 90 c 0,10,11
 444 90 444 90 452 100.5 c 128,-1,12
 460 111 460 111 460 118 c 0,13,14
 460 128 460 128 453.5 136.5 c 128,-1,15
 447 145 447 145 435 145 c 0,16,17
 430 145 430 145 426 143.5 c 128,-1,18
 422 142 422 142 420 140 c 0,19,20
 417 138 417 138 415 136 c 1,21,-1
 368 245 l 1,22,23
 373 251 373 251 384 255 c 1,24,25
 392 259 392 259 406.5 262 c 128,-1,26
 421 265 421 265 443 265 c 0,27,28
 475 265 475 265 499.5 252.5 c 128,-1,29
 524 240 524 240 540.5 219.5 c 128,-1,30
 557 199 557 199 565.5 174 c 128,-1,31
 574 149 574 149 574 125 c 0,32,33
 574 104 574 104 565.5 80 c 128,-1,34
 557 56 557 56 539.5 35.5 c 128,-1,35
 522 15 522 15 494 1.5 c 128,-1,36
 466 -12 466 -12 427 -12 c 0,37,38
 379 -12 379 -12 349.5 8.5 c 128,-1,39
 320 29 320 29 304.5 55.5 c 128,-1,40
 289 82 289 82 284.5 107 c 128,-1,41
 280 132 280 132 282 140 c 1,42,-1
 165 -25 l 1,43,-1
 49 47 l 1,44,-1
 303 414 l 1,45,-1
 259 517 l 1,46,47
 264 518 264 518 268 522 c 0,48,49
 271 525 271 525 274 530.5 c 128,-1,50
 277 536 277 536 277 544 c 0,51,52
 277 556 277 556 269.5 563.5 c 128,-1,53
 262 571 262 571 251 571 c 256,54,55
 240 571 240 571 231.5 564 c 128,-1,56
 223 557 223 557 223 544 c 0,57,58
 223 528 223 528 233.5 521.5 c 128,-1,59
 244 515 244 515 251 517 c 1,60,-1
 294 412 l 1,61,62
 285 406 285 406 273 401.5 c 128,-1,63
 261 397 261 397 249 397 c 0,64,65
 224 397 224 397 197.5 405.5 c 128,-1,66
 171 414 171 414 149.5 431.5 c 128,-1,67
 128 449 128 449 114 475.5 c 128,-1,68
 100 502 100 502 100 538 c 0,69,70
 100 604 100 604 142.5 638 c 128,-1,71
 185 672 185 672 251 672 c 0,72,73
 296 672 296 672 323.5 655.5 c 128,-1,74
 351 639 351 639 366 617 c 128,-1,75
 381 595 381 595 386 574 c 128,-1,76
 391 553 391 553 391 543 c 1,77,-1
 480 672 l 1,0,-1
EndSplineSet
EndChar

StartChar: ampersand
Encoding: 38 38 27
Width: 614
Flags: W
LayerCount: 2
Fore
SplineSet
297 420 m 1,0,1
 311 426 311 426 332.5 438.5 c 128,-1,2
 354 451 354 451 362 478 c 0,3,4
 363 482 363 482 363 488.5 c 128,-1,5
 363 495 363 495 360.5 501.5 c 128,-1,6
 358 508 358 508 351.5 513 c 128,-1,7
 345 518 345 518 332 518 c 0,8,9
 307 518 307 518 292.5 509 c 128,-1,10
 278 500 278 500 271 466 c 0,11,12
 269 455 269 455 277 435.5 c 128,-1,13
 285 416 285 416 297 395.5 c 128,-1,14
 309 375 309 375 321.5 357 c 128,-1,15
 334 339 334 339 340 332 c 0,16,17
 349 321 349 321 360 313 c 128,-1,18
 371 305 371 305 381 299 c 0,19,20
 392 292 392 292 404 287 c 1,21,-1
 523 376 l 1,22,-1
 528 272 l 1,23,-1
 489 222 l 1,24,-1
 549 192 l 1,25,-1
 544 89 l 1,26,27
 527 94 527 94 506.5 101 c 128,-1,28
 486 108 486 108 468 115 c 0,29,30
 447 123 447 123 425 132 c 1,31,32
 413 118 413 118 394 95.5 c 128,-1,33
 375 73 375 73 349 51.5 c 128,-1,34
 323 30 323 30 289.5 14.5 c 128,-1,35
 256 -1 256 -1 215 -1 c 0,36,37
 179 -1 179 -1 143 7.5 c 128,-1,38
 107 16 107 16 80 36.5 c 128,-1,39
 53 57 53 57 39.5 91.5 c 128,-1,40
 26 126 26 126 35 177 c 0,41,42
 46 237 46 237 63.5 273 c 128,-1,43
 81 309 81 309 99 329 c 0,44,45
 119 352 119 352 143 362 c 1,46,47
 149 351 149 351 158 336.5 c 128,-1,48
 167 322 167 322 178 306.5 c 128,-1,49
 189 291 189 291 201.5 276 c 128,-1,50
 214 261 214 261 226 251 c 1,51,52
 212 235 212 235 207 206 c 0,53,54
 206 202 206 202 207.5 195.5 c 128,-1,55
 209 189 209 189 213.5 183 c 128,-1,56
 218 177 218 177 225.5 173 c 128,-1,57
 233 169 233 169 245 169 c 0,58,59
 271 169 271 169 283 179 c 128,-1,60
 295 189 295 189 306 200 c 1,61,62
 295 205 295 205 282 215 c 0,63,64
 271 223 271 223 255.5 236 c 128,-1,65
 240 249 240 249 222 268 c 1,66,67
 203 286 203 286 184.5 312.5 c 128,-1,68
 166 339 166 339 151 364.5 c 128,-1,69
 136 390 136 390 127 411.5 c 128,-1,70
 118 433 118 433 118 442 c 0,71,72
 118 459 118 459 126.5 490.5 c 128,-1,73
 135 522 135 522 143 563 c 0,74,75
 148 588 148 588 168 607 c 128,-1,76
 188 626 188 626 213.5 639.5 c 128,-1,77
 239 653 239 653 266.5 660 c 128,-1,78
 294 667 294 667 314 667 c 0,79,80
 347 667 347 667 375.5 658 c 128,-1,81
 404 649 404 649 424.5 635.5 c 128,-1,82
 445 622 445 622 456.5 606 c 128,-1,83
 468 590 468 590 468 575 c 0,84,85
 468 559 468 559 466.5 536 c 128,-1,86
 465 513 465 513 457 472 c 0,87,88
 452 445 452 445 434 420.5 c 128,-1,89
 416 396 416 396 396 377 c 0,90,91
 373 355 373 355 345 337 c 1,92,93
 334 350 334 350 319 375 c 128,-1,94
 304 400 304 400 297 420 c 1,0,1
EndSplineSet
EndChar

StartChar: quotesingle
Encoding: 39 39 28
Width: 269
Flags: W
LayerCount: 2
Fore
SplineSet
92 383 m 1,0,-1
 111 505 l 1,1,-1
 59 505 l 1,2,-1
 68 666 l 1,3,-1
 229 666 l 1,4,-1
 178 384 l 1,5,-1
 92 383 l 1,0,-1
EndSplineSet
EndChar

StartChar: parenleft
Encoding: 40 40 29
Width: 316
Flags: W
LayerCount: 2
Fore
SplineSet
328 595 m 1,0,1
 289 586 289 586 258.5 550 c 128,-1,2
 228 514 228 514 207 467.5 c 128,-1,3
 186 421 186 421 174.5 373 c 128,-1,4
 163 325 163 325 163 292 c 0,5,6
 163 265 163 265 166.5 235 c 128,-1,7
 170 205 170 205 178.5 176.5 c 128,-1,8
 187 148 187 148 201.5 122.5 c 128,-1,9
 216 97 216 97 238 81 c 1,10,-1
 216 -60 l 1,11,12
 164 -38 164 -38 127.5 0 c 128,-1,13
 91 38 91 38 67.5 85.5 c 128,-1,14
 44 133 44 133 34 186 c 128,-1,15
 24 239 24 239 24 292 c 0,16,17
 24 338 24 338 34 387.5 c 128,-1,18
 44 437 44 437 63.5 485.5 c 128,-1,19
 83 534 83 534 111 578 c 128,-1,20
 139 622 139 622 175 657 c 128,-1,21
 211 692 211 692 255 715.5 c 128,-1,22
 299 739 299 739 351 746 c 1,23,-1
 328 595 l 1,0,1
EndSplineSet
EndChar

StartChar: parenright
Encoding: 41 41 30
Width: 372
Flags: W
LayerCount: 2
Fore
SplineSet
48 91 m 1,0,1
 87 100 87 100 117.5 136 c 128,-1,2
 148 172 148 172 169 218.5 c 128,-1,3
 190 265 190 265 201.5 313 c 128,-1,4
 213 361 213 361 213 394 c 0,5,6
 213 421 213 421 209.5 451 c 128,-1,7
 206 481 206 481 197.5 509.5 c 128,-1,8
 189 538 189 538 174.5 563 c 128,-1,9
 160 588 160 588 138 605 c 1,10,-1
 160 746 l 1,11,12
 212 724 212 724 248.5 686 c 128,-1,13
 285 648 285 648 308.5 600.5 c 128,-1,14
 332 553 332 553 342 499.5 c 128,-1,15
 352 446 352 446 352 394 c 0,16,17
 352 348 352 348 342 298.5 c 128,-1,18
 332 249 332 249 312.5 200.5 c 128,-1,19
 293 152 293 152 265 108 c 128,-1,20
 237 64 237 64 200.5 29 c 128,-1,21
 164 -6 164 -6 120 -29.5 c 128,-1,22
 76 -53 76 -53 24 -60 c 1,23,-1
 48 91 l 1,0,1
EndSplineSet
EndChar

StartChar: asterisk
Encoding: 42 42 31
Width: 544
Flags: W
LayerCount: 2
Fore
SplineSet
185 256 m 1,0,-1
 135 335 l 1,1,-1
 235 395 l 1,2,-1
 292 305 l 1,3,-1
 362 397 l 1,4,-1
 453 329 l 1,5,-1
 397 261 l 1,6,-1
 487 262 l 1,7,-1
 470 154 l 1,8,-1
 390 154 l 1,9,-1
 428 88 l 1,10,-1
 332 17 l 1,11,-1
 279 109 l 1,12,-1
 214 18 l 1,13,-1
 120 86 l 1,14,-1
 172 148 l 1,15,16
 132 147 132 147 106 148 c 128,-1,17
 80 149 80 149 79 148 c 256,18,19
 78 147 78 147 81 164.5 c 128,-1,20
 84 182 84 182 88 202 c 0,21,22
 92 226 92 226 97 256 c 1,23,-1
 185 256 l 1,0,-1
EndSplineSet
EndChar

StartChar: plus
Encoding: 43 43 32
Width: 466
Flags: W
LayerCount: 2
Fore
SplineSet
331 356 m 1,0,-1
 312 242 l 1,1,-1
 435 242 l 1,2,-1
 415 122 l 1,3,-1
 291 122 l 1,4,-1
 269 -1 l 1,5,-1
 142 0 l 1,6,-1
 163 120 l 1,7,-1
 32 120 l 1,8,-1
 51 239 l 1,9,-1
 184 239 l 1,10,-1
 204 356 l 1,11,-1
 331 356 l 1,0,-1
EndSplineSet
EndChar

StartChar: comma
Encoding: 44 44 33
Width: 292
Flags: W
LayerCount: 2
Fore
SplineSet
112 -118 m 1,0,-1
 136 0 l 1,1,-1
 48 0 l 1,2,-1
 76 158 l 1,3,-1
 225 158 l 1,4,5
 226 126 226 126 225 95 c 0,6,7
 224 69 224 69 222 40.5 c 128,-1,8
 220 12 220 12 216 -8 c 0,9,10
 213 -25 213 -25 209 -37 c 128,-1,11
 205 -49 205 -49 200.5 -60.5 c 128,-1,12
 196 -72 196 -72 190 -85 c 128,-1,13
 184 -98 184 -98 177 -117 c 1,14,-1
 112 -118 l 1,0,-1
EndSplineSet
EndChar

StartChar: period
Encoding: 46 46 35
Width: 273
Flags: W
LayerCount: 2
Fore
SplineSet
232 147 m 1,0,-1
 208 0 l 1,1,-1
 50 0 l 1,2,-1
 73 147 l 1,3,-1
 232 147 l 1,0,-1
EndSplineSet
EndChar

StartChar: slash
Encoding: 47 47 36
Width: 514
Flags: W
LayerCount: 2
Fore
SplineSet
453 626 m 1,0,-1
 196 -23 l 1,1,-1
 50 27 l 1,2,-1
 311 675 l 1,3,-1
 453 626 l 1,0,-1
EndSplineSet
EndChar

StartChar: zero
Encoding: 48 48 37
Width: 497
Flags: W
LayerCount: 2
Fore
SplineSet
407 159 m 0,0,1
 404 144 404 144 400 130 c 128,-1,2
 396 116 396 116 390 105 c 0,3,4
 378 82 378 82 351 63 c 128,-1,5
 324 44 324 44 293.5 30 c 128,-1,6
 263 16 263 16 234 8 c 128,-1,7
 205 0 205 0 187 0 c 0,8,9
 163 0 163 0 134 9 c 128,-1,10
 105 18 105 18 80 34.5 c 128,-1,11
 55 51 55 51 39 75 c 128,-1,12
 23 99 23 99 24 129 c 1,13,-1
 74 480 l 1,14,15
 94 540 94 540 127 576.5 c 128,-1,16
 160 613 160 613 197.5 633 c 128,-1,17
 235 653 235 653 271.5 659.5 c 128,-1,18
 308 666 308 666 334 666 c 1,19,-1
 305 482 l 1,20,21
 300 484 300 484 295 484.5 c 128,-1,22
 290 485 290 485 285 486 c 0,23,24
 279 487 279 487 273 488 c 1,25,26
 256 488 256 488 240.5 472.5 c 128,-1,27
 225 457 225 457 222 438 c 0,28,29
 221 432 221 432 218 414.5 c 128,-1,30
 215 397 215 397 211.5 373 c 128,-1,31
 208 349 208 349 204 322.5 c 128,-1,32
 200 296 200 296 196.5 273.5 c 128,-1,33
 193 251 193 251 190.5 235 c 128,-1,34
 188 219 188 219 188 217 c 0,35,36
 187 207 187 207 195 194 c 128,-1,37
 203 181 203 181 222 180 c 1,38,39
 232 181 232 181 241 184 c 0,40,41
 249 186 249 186 255 190 c 128,-1,42
 261 194 261 194 263 201 c 2,43,-1
 342 665 l 1,44,45
 366 665 366 665 390 655.5 c 128,-1,46
 414 646 414 646 432.5 628.5 c 128,-1,47
 451 611 451 611 462 587 c 128,-1,48
 473 563 473 563 470 534 c 0,49,50
 469 529 469 529 466 507 c 128,-1,51
 463 485 463 485 458 452.5 c 128,-1,52
 453 420 453 420 446.5 381 c 128,-1,53
 440 342 440 342 433 302 c 128,-1,54
 426 262 426 262 419.5 224.5 c 128,-1,55
 413 187 413 187 407 159 c 0,0,1
EndSplineSet
EndChar

StartChar: one
Encoding: 49 49 38
Width: 420
Flags: W
LayerCount: 2
Fore
SplineSet
80 1 m 1,0,-1
 168 442 l 1,1,-1
 18 392 l 1,2,-1
 54 534 l 1,3,-1
 227 666 l 1,4,-1
 382 666 l 1,5,-1
 264 0 l 1,6,-1
 80 1 l 1,0,-1
EndSplineSet
EndChar

StartChar: two
Encoding: 50 50 39
Width: 507
Flags: W
LayerCount: 2
Fore
SplineSet
420 341 m 0,0,1
 402 323 402 323 375.5 297 c 128,-1,2
 349 271 349 271 325 243 c 0,3,4
 301 214 301 214 284 187 c 128,-1,5
 267 160 267 160 266 138 c 1,6,-1
 422 139 l 1,7,-1
 396 0 l 1,8,-1
 15 0 l 1,9,10
 37 100 37 100 89 182 c 128,-1,11
 141 264 141 264 213 331 c 0,12,13
 227 345 227 345 250 361 c 128,-1,14
 273 377 273 377 294.5 395 c 128,-1,15
 316 413 316 413 332 432.5 c 128,-1,16
 348 452 348 452 348 474 c 0,17,18
 348 484 348 484 342.5 492 c 128,-1,19
 337 500 337 500 329 505 c 128,-1,20
 321 510 321 510 313 513 c 128,-1,21
 305 516 305 516 300 516 c 0,22,23
 290 516 290 516 280.5 513.5 c 128,-1,24
 271 511 271 511 254 494 c 0,25,26
 254 493 254 493 243 478.5 c 128,-1,27
 232 464 232 464 220 432 c 1,28,-1
 104 505 l 1,29,30
 112 532 112 532 127 560.5 c 128,-1,31
 142 589 142 589 167.5 612.5 c 128,-1,32
 193 636 193 636 231 651 c 128,-1,33
 269 666 269 666 324 666 c 0,34,35
 355 666 355 666 386 656.5 c 128,-1,36
 417 647 417 647 442 626.5 c 128,-1,37
 467 606 467 606 482.5 573 c 128,-1,38
 498 540 498 540 498 494 c 0,39,40
 498 449 498 449 475 411.5 c 128,-1,41
 452 374 452 374 420 341 c 0,0,1
EndSplineSet
EndChar

StartChar: three
Encoding: 51 51 40
Width: 514
Flags: W
LayerCount: 2
Fore
SplineSet
374 444 m 1,0,1
 397 432 397 432 410 420 c 128,-1,2
 423 408 423 408 428 397 c 0,3,4
 434 385 434 385 434 373 c 1,5,6
 430 338 430 338 421.5 275 c 128,-1,7
 413 212 413 212 398 137 c 0,8,9
 384 65 384 65 330.5 32.5 c 128,-1,10
 277 0 277 0 173 0 c 0,11,12
 123 0 123 0 95 15.5 c 128,-1,13
 67 31 67 31 54 51.5 c 128,-1,14
 41 72 41 72 38.5 91 c 128,-1,15
 36 110 36 110 36 117 c 0,16,17
 36 123 36 123 38 136 c 0,18,19
 40 147 40 147 42.5 166 c 128,-1,20
 45 185 45 185 50 215 c 1,21,-1
 175 220 l 1,22,23
 170 193 170 193 173.5 180 c 128,-1,24
 177 167 177 167 185 162 c 0,25,26
 192 157 192 157 200 157 c 128,-1,27
 208 157 208 157 216 157 c 0,28,29
 220 157 220 157 226.5 158.5 c 128,-1,30
 233 160 233 160 240 164.5 c 128,-1,31
 247 169 247 169 252.5 176 c 128,-1,32
 258 183 258 183 260 195 c 0,33,34
 262 209 262 209 265.5 224.5 c 128,-1,35
 269 240 269 240 272 254 c 0,36,37
 276 270 276 270 278 286 c 0,38,39
 278 292 278 292 276.5 300 c 128,-1,40
 275 308 275 308 269.5 315.5 c 128,-1,41
 264 323 264 323 255 328 c 128,-1,42
 246 333 246 333 232 333 c 0,43,44
 223 333 223 333 214 331 c 0,45,46
 196 328 196 328 177 316 c 1,47,-1
 88 396 l 1,48,-1
 244 521 l 1,49,-1
 97 520 l 1,50,-1
 116 666 l 1,51,-1
 473 666 l 1,52,-1
 452 520 l 1,53,-1
 374 444 l 1,0,1
EndSplineSet
EndChar

StartChar: four
Encoding: 52 52 41
Width: 543
Flags: W
LayerCount: 2
Fore
SplineSet
491 230 m 1,0,-1
 475 130 l 1,1,-1
 416 130 l 1,2,-1
 392 1 l 1,3,-1
 214 0 l 1,4,-1
 282 405 l 1,5,-1
 168 257 l 1,6,-1
 250 257 l 1,7,-1
 229 133 l 1,8,-1
 4 133 l 1,9,-1
 31 276 l 1,10,-1
 322 666 l 1,11,-1
 507 666 l 1,12,-1
 435 230 l 1,13,-1
 491 230 l 1,0,-1
EndSplineSet
EndChar

StartChar: five
Encoding: 53 53 42
Width: 504
Flags: W
LayerCount: 2
Fore
SplineSet
256 519 m 1,0,-1
 245 443 l 1,1,2
 259 450 259 450 281 453.5 c 128,-1,3
 303 457 303 457 316 455 c 0,4,5
 317 455 317 455 326.5 454 c 128,-1,6
 336 453 336 453 350 449 c 128,-1,7
 364 445 364 445 380 438 c 128,-1,8
 396 431 396 431 408.5 419.5 c 128,-1,9
 421 408 421 408 428 390.5 c 128,-1,10
 435 373 435 373 431 349 c 2,11,-1
 401 156 l 2,12,13
 395 114 395 114 373.5 84 c 128,-1,14
 352 54 352 54 320.5 35.5 c 128,-1,15
 289 17 289 17 250 8 c 128,-1,16
 211 -1 211 -1 169 -1 c 0,17,18
 167 -1 167 -1 145 3 c 128,-1,19
 123 7 123 7 97 18 c 128,-1,20
 71 29 71 29 49.5 48 c 128,-1,21
 28 67 28 67 28 97 c 0,22,23
 28 123 28 123 29.5 140.5 c 128,-1,24
 31 158 31 158 33 170.5 c 128,-1,25
 35 183 35 183 37 192.5 c 128,-1,26
 39 202 39 202 41 212 c 1,27,-1
 178 212 l 1,28,29
 177 205 177 205 176.5 199.5 c 128,-1,30
 176 194 176 194 176 190 c 2,31,-1
 176 182 l 1,32,33
 174 166 174 166 185 159 c 128,-1,34
 196 152 196 152 212 152 c 1,35,36
 222 153 222 153 232 157 c 0,37,38
 240 161 240 161 247.5 168 c 128,-1,39
 255 175 255 175 258 189 c 2,40,-1
 274 282 l 2,41,42
 275 286 275 286 275 293.5 c 128,-1,43
 275 301 275 301 271.5 308.5 c 128,-1,44
 268 316 268 316 260 321.5 c 128,-1,45
 252 327 252 327 237 327 c 1,46,47
 227 326 227 326 218 322 c 0,48,49
 210 318 210 318 201.5 310.5 c 128,-1,50
 193 303 193 303 186 289 c 1,51,-1
 54 289 l 1,52,-1
 112 666 l 1,53,-1
 471 666 l 1,54,-1
 447 520 l 1,55,-1
 256 519 l 1,0,-1
EndSplineSet
EndChar

StartChar: six
Encoding: 54 54 43
Width: 494
Flags: W
LayerCount: 2
Fore
SplineSet
325 447 m 1,0,1
 326 454 326 454 327 459 c 128,-1,2
 328 464 328 464 328 467 c 2,3,-1
 328 473 l 2,4,5
 328 477 328 477 326.5 484.5 c 128,-1,6
 325 492 325 492 321.5 499.5 c 128,-1,7
 318 507 318 507 311 512 c 128,-1,8
 304 517 304 517 293 517 c 0,9,10
 264 517 264 517 253.5 501.5 c 128,-1,11
 243 486 243 486 241 473 c 0,12,13
 233 431 233 431 225 385 c 0,14,15
 218 346 218 346 210 296.5 c 128,-1,16
 202 247 202 247 195 198 c 0,17,18
 193 183 193 183 197 173.5 c 128,-1,19
 201 164 201 164 208.5 158 c 128,-1,20
 216 152 216 152 225 149.5 c 128,-1,21
 234 147 234 147 240 147 c 256,22,23
 246 147 246 147 254.5 148.5 c 128,-1,24
 263 150 263 150 271 156.5 c 128,-1,25
 279 163 279 163 286 176 c 128,-1,26
 293 189 293 189 296 212 c 0,27,28
 297 222 297 222 296 233.5 c 128,-1,29
 295 245 295 245 286.5 254 c 128,-1,30
 278 263 278 263 260.5 267 c 128,-1,31
 243 271 243 271 213 267 c 1,32,-1
 226 343 l 1,33,34
 249 352 249 352 273 354 c 128,-1,35
 297 356 297 356 320 356 c 0,36,37
 329 356 329 356 347.5 350.5 c 128,-1,38
 366 345 366 345 384.5 333.5 c 128,-1,39
 403 322 403 322 415.5 303.5 c 128,-1,40
 428 285 428 285 425 260 c 2,41,-1
 410 146 l 2,42,43
 407 121 407 121 389 95 c 128,-1,44
 371 69 371 69 341.5 48 c 128,-1,45
 312 27 312 27 273 13.5 c 128,-1,46
 234 0 234 0 189 0 c 0,47,48
 161 0 161 0 132 6.5 c 128,-1,49
 103 13 103 13 79.5 27.5 c 128,-1,50
 56 42 56 42 41.5 65 c 128,-1,51
 27 88 27 88 28 122 c 1,52,53
 42 220 42 220 53.5 293.5 c 128,-1,54
 65 367 65 367 74 416 c 0,55,56
 85 473 85 473 93 514 c 1,57,58
 101 561 101 561 125.5 590.5 c 128,-1,59
 150 620 150 620 181.5 637 c 128,-1,60
 213 654 213 654 247.5 660 c 128,-1,61
 282 666 282 666 310 666 c 0,62,63
 359 666 359 666 389 654 c 128,-1,64
 419 642 419 642 435 626 c 128,-1,65
 451 610 451 610 456 593.5 c 128,-1,66
 461 577 461 577 461 568 c 0,67,68
 462 555 462 555 460 537 c 0,69,70
 458 522 458 522 455 499.5 c 128,-1,71
 452 477 452 477 447 447 c 1,72,-1
 325 447 l 1,0,1
EndSplineSet
EndChar

StartChar: seven
Encoding: 55 55 44
Width: 508
Flags: W
LayerCount: 2
Fore
SplineSet
179 0 m 1,0,-1
 -6 0 l 1,1,-1
 265 511 l 1,2,-1
 103 511 l 1,3,-1
 126 666 l 1,4,-1
 496 666 l 1,5,-1
 474 515 l 1,6,-1
 179 0 l 1,0,-1
EndSplineSet
EndChar

StartChar: eight
Encoding: 56 56 45
Width: 503
Flags: W
LayerCount: 2
Fore
SplineSet
376 325 m 0,0,1
 372 323 372 323 357 318 c 128,-1,2
 342 313 342 313 322 305.5 c 128,-1,3
 302 298 302 298 279.5 290.5 c 128,-1,4
 257 283 257 283 238 276 c 128,-1,5
 219 269 219 269 206 264.5 c 128,-1,6
 193 260 193 260 192 259 c 0,7,8
 177 252 177 252 171.5 240 c 128,-1,9
 166 228 166 228 166 213 c 0,10,11
 166 192 166 192 176.5 178.5 c 128,-1,12
 187 165 187 165 210 165 c 0,13,14
 229 165 229 165 241 171 c 128,-1,15
 253 177 253 177 260 186 c 128,-1,16
 267 195 267 195 269.5 205 c 128,-1,17
 272 215 272 215 272 223 c 0,18,19
 272 225 272 225 268 240.5 c 128,-1,20
 264 256 264 256 254 273 c 1,21,-1
 384 320 l 1,22,23
 406 299 406 299 413.5 270 c 128,-1,24
 421 241 421 241 421 214 c 0,25,26
 421 160 421 160 401.5 119 c 128,-1,27
 382 78 382 78 347.5 50.5 c 128,-1,28
 313 23 313 23 266 9 c 128,-1,29
 219 -5 219 -5 166 -5 c 0,30,31
 165 -5 165 -5 153.5 -4.5 c 128,-1,32
 142 -4 142 -4 125.5 -1 c 128,-1,33
 109 2 109 2 89.5 9 c 128,-1,34
 70 16 70 16 53.5 27.5 c 128,-1,35
 37 39 37 39 25.5 57 c 128,-1,36
 14 75 14 75 14 101 c 1,37,38
 20 152 20 152 24.5 185 c 128,-1,39
 29 218 29 218 32 237 c 0,40,41
 36 259 36 259 38 270 c 0,42,43
 42 293 42 293 60.5 310 c 128,-1,44
 79 327 79 327 95 341 c 1,45,46
 107 346 107 346 137 357.5 c 128,-1,47
 167 369 167 369 200 382 c 1,48,49
 232 396 232 396 259 407.5 c 128,-1,50
 286 419 286 419 291 424 c 0,51,52
 296 428 296 428 299 436.5 c 128,-1,53
 302 445 302 445 304 454 c 128,-1,54
 306 463 306 463 307 471 c 128,-1,55
 308 479 308 479 308 482 c 0,56,57
 308 503 308 503 299 514 c 128,-1,58
 290 525 290 525 267 525 c 0,59,60
 251 525 251 525 240 517.5 c 128,-1,61
 229 510 229 510 222.5 499 c 128,-1,62
 216 488 216 488 213 476 c 128,-1,63
 210 464 210 464 210 454 c 0,64,65
 210 440 210 440 215.5 424 c 128,-1,66
 221 408 221 408 226 400 c 1,67,-1
 92 348 l 1,68,69
 74 365 74 365 67.5 394 c 128,-1,70
 61 423 61 423 61 454 c 0,71,72
 62 503 62 503 77.5 542 c 128,-1,73
 93 581 93 581 122 609 c 128,-1,74
 151 637 151 637 192 652 c 128,-1,75
 233 667 233 667 284 667 c 0,76,77
 365 667 365 667 409 627.5 c 128,-1,78
 453 588 453 588 453 515 c 0,79,80
 453 490 453 490 450 460.5 c 128,-1,81
 447 431 447 431 438.5 404 c 128,-1,82
 430 377 430 377 415 355.5 c 128,-1,83
 400 334 400 334 376 325 c 0,0,1
EndSplineSet
EndChar

StartChar: nine
Encoding: 57 57 46
Width: 497
Flags: W
LayerCount: 2
Fore
SplineSet
401 146 m 0,0,1
 399 135 399 135 387 111 c 128,-1,2
 375 87 375 87 350 62.5 c 128,-1,3
 325 38 325 38 285 19.5 c 128,-1,4
 245 1 245 1 187 1 c 256,5,6
 129 1 129 1 95.5 16.5 c 128,-1,7
 62 32 62 32 45 53 c 128,-1,8
 28 74 28 74 23.5 94 c 128,-1,9
 19 114 19 114 19 123 c 0,10,11
 19 133 19 133 20 146 c 0,12,13
 21 157 21 157 22.5 172.5 c 128,-1,14
 24 188 24 188 27 208 c 1,15,-1
 155 209 l 1,16,17
 154 202 154 202 153.5 198 c 128,-1,18
 153 194 153 194 153 191 c 2,19,-1
 153 185 l 2,20,21
 153 174 153 174 163 160 c 128,-1,22
 173 146 173 146 193 146 c 0,23,24
 209 146 209 146 220 151.5 c 128,-1,25
 231 157 231 157 237.5 165 c 128,-1,26
 244 173 244 173 246.5 181.5 c 128,-1,27
 249 190 249 190 250 196 c 0,28,29
 250 200 250 200 253 218.5 c 128,-1,30
 256 237 256 237 260.5 263.5 c 128,-1,31
 265 290 265 290 270 320.5 c 128,-1,32
 275 351 275 351 279.5 379 c 128,-1,33
 284 407 284 407 287.5 428 c 128,-1,34
 291 449 291 449 292 456 c 0,35,36
 296 482 296 482 282.5 496.5 c 128,-1,37
 269 511 269 511 246 511 c 0,38,39
 222 511 222 511 205.5 496 c 128,-1,40
 189 481 189 481 184 449 c 0,41,42
 181 431 181 431 186.5 418.5 c 128,-1,43
 192 406 192 406 201 398.5 c 128,-1,44
 210 391 210 391 220.5 387.5 c 128,-1,45
 231 384 231 384 238 384 c 256,46,47
 245 384 245 384 251 385 c 0,48,49
 260 386 260 386 273 390 c 1,50,-1
 261 313 l 1,51,52
 249 308 249 308 237 306.5 c 128,-1,53
 225 305 225 305 215 303 c 0,54,55
 204 301 204 301 192 301 c 0,56,57
 144 301 144 301 116 313.5 c 128,-1,58
 88 326 88 326 74.5 342 c 128,-1,59
 61 358 61 358 57 373 c 128,-1,60
 53 388 53 388 53 394 c 0,61,62
 53 401 53 401 54 414.5 c 128,-1,63
 55 428 55 428 57.5 444 c 128,-1,64
 60 460 60 460 63 476 c 128,-1,65
 66 492 66 492 69 504 c 0,66,67
 78 545 78 545 100.5 575.5 c 128,-1,68
 123 606 123 606 154 626 c 128,-1,69
 185 646 185 646 222 656 c 128,-1,70
 259 666 259 666 296 666 c 0,71,72
 354 666 354 666 386.5 648 c 128,-1,73
 419 630 419 630 434.5 607 c 128,-1,74
 450 584 450 584 453 560.5 c 128,-1,75
 456 537 456 537 455 527 c 0,76,77
 454 519 454 519 450.5 490.5 c 128,-1,78
 447 462 447 462 441.5 422 c 128,-1,79
 436 382 436 382 429.5 337 c 128,-1,80
 423 292 423 292 417.5 252.5 c 128,-1,81
 412 213 412 213 407.5 183.5 c 128,-1,82
 403 154 403 154 401 146 c 0,0,1
EndSplineSet
EndChar

StartChar: colon
Encoding: 58 58 47
Width: 292
Flags: W
LayerCount: 2
Fore
SplineSet
221 148 m 1,0,-1
 196 0 l 1,1,-1
 41 0 l 1,2,-1
 66 148 l 1,3,-1
 221 148 l 1,0,-1
264 398 m 1,4,-1
 239 250 l 1,5,-1
 84 250 l 1,6,-1
 109 398 l 1,7,-1
 264 398 l 1,4,-1
EndSplineSet
EndChar

StartChar: semicolon
Encoding: 59 59 48
AltUni2: 00037e.ffffffff.0 00037e.ffffffff.0
Width: 292
Flags: W
LayerCount: 2
Fore
SplineSet
251 398 m 1,0,-1
 226 250 l 1,1,-1
 71 250 l 1,2,-1
 96 398 l 1,3,-1
 251 398 l 1,0,-1
159 -117 m 1,4,5
 166 -98 166 -98 172 -85 c 128,-1,6
 178 -72 178 -72 182.5 -60.5 c 128,-1,7
 187 -49 187 -49 191 -37 c 128,-1,8
 195 -25 195 -25 198 -8 c 0,9,10
 202 12 202 12 204 40.5 c 128,-1,11
 206 69 206 69 207 95 c 0,12,13
 208 126 208 126 207 158 c 1,14,-1
 58 158 l 1,15,-1
 30 0 l 1,16,-1
 118 0 l 1,17,-1
 94 -118 l 1,18,-1
 159 -117 l 1,4,5
EndSplineSet
EndChar

StartChar: less
Encoding: 60 60 49
Width: 435
Flags: W
LayerCount: 2
Fore
SplineSet
321 316 m 1,0,-1
 222 252 l 1,1,-1
 303 158 l 1,2,-1
 277 0 l 1,3,-1
 18 271 l 1,4,-1
 350 483 l 1,5,-1
 321 316 l 1,0,-1
EndSplineSet
EndChar

StartChar: equal
Encoding: 61 61 50
Width: 388
Flags: W
LayerCount: 2
Fore
SplineSet
81 188 m 1,0,-1
 326 188 l 1,1,-1
 305 58 l 1,2,-1
 60 58 l 1,3,-1
 81 188 l 1,0,-1
109 358 m 1,4,-1
 354 358 l 1,5,-1
 333 228 l 1,6,-1
 88 228 l 1,7,-1
 109 358 l 1,4,-1
EndSplineSet
EndChar

StartChar: greater
Encoding: 62 62 51
Width: 414
Flags: W
LayerCount: 2
Fore
SplineSet
67 167 m 1,0,-1
 166 231 l 1,1,-1
 85 325 l 1,2,-1
 111 483 l 1,3,-1
 370 212 l 1,4,-1
 38 0 l 1,5,-1
 67 167 l 1,0,-1
EndSplineSet
EndChar

StartChar: question
Encoding: 63 63 52
Width: 505
Flags: W
LayerCount: 2
Fore
SplineSet
51 501 m 1,0,1
 55 520 55 520 71 548 c 128,-1,2
 87 576 87 576 114.5 602.5 c 128,-1,3
 142 629 142 629 180 647.5 c 128,-1,4
 218 666 218 666 266 666 c 0,5,6
 334 666 334 666 372 643 c 128,-1,7
 410 620 410 620 428.5 589.5 c 128,-1,8
 447 559 447 559 451 529.5 c 128,-1,9
 455 500 455 500 455 487 c 0,10,11
 455 437 455 437 432.5 399 c 128,-1,12
 410 361 410 361 370 321 c 0,13,14
 339 291 339 291 312.5 255 c 128,-1,15
 286 219 286 219 273 161 c 1,16,-1
 110 161 l 1,17,18
 119 209 119 209 133.5 248.5 c 128,-1,19
 148 288 148 288 172 314 c 0,20,21
 187 330 187 330 208 351 c 128,-1,22
 229 372 229 372 248 393 c 128,-1,23
 267 414 267 414 280 432.5 c 128,-1,24
 293 451 293 451 293 462 c 0,25,26
 293 484 293 484 279 493.5 c 128,-1,27
 265 503 265 503 253 503 c 0,28,29
 238 503 238 503 224.5 494 c 128,-1,30
 211 485 211 485 200.5 472.5 c 128,-1,31
 190 460 190 460 183 446.5 c 128,-1,32
 176 433 176 433 173 424 c 1,33,-1
 51 501 l 1,0,1
269 136 m 1,34,-1
 244 0 l 1,35,-1
 85 0 l 1,36,-1
 106 136 l 1,37,-1
 269 136 l 1,34,-1
EndSplineSet
EndChar

StartChar: at
Encoding: 64 64 53
Width: 830
Flags: W
LayerCount: 2
Fore
SplineSet
486 678 m 0,0,1
 516 678 516 678 554 672.5 c 128,-1,2
 592 667 592 667 630 652.5 c 128,-1,3
 668 638 668 638 702.5 613 c 128,-1,4
 737 588 737 588 761 549.5 c 128,-1,5
 785 511 785 511 795 456.5 c 128,-1,6
 805 402 805 402 793 329 c 0,7,8
 788 300 788 300 779 264 c 128,-1,9
 770 228 770 228 751.5 196.5 c 128,-1,10
 733 165 733 165 703 143.5 c 128,-1,11
 673 122 673 122 626 122 c 0,12,13
 584 122 584 122 555 134 c 128,-1,14
 526 146 526 146 509 168 c 0,15,16
 504 176 504 176 498.5 189.5 c 128,-1,17
 493 203 493 203 488 217 c 0,18,19
 482 233 482 233 476 251 c 0,20,21
 476 254 476 254 479 274.5 c 128,-1,22
 482 295 482 295 486 318 c 0,23,24
 490 345 490 345 497 378 c 1,25,-1
 451 378 l 2,26,27
 430 378 430 378 417 354 c 128,-1,28
 404 330 404 330 394 265 c 0,29,30
 392 256 392 256 396 250 c 128,-1,31
 400 244 400 244 405.5 240.5 c 128,-1,32
 411 237 411 237 417.5 235.5 c 128,-1,33
 424 234 424 234 428 234 c 256,34,35
 432 234 432 234 439 236 c 128,-1,36
 446 238 446 238 453 240 c 0,37,38
 461 243 461 243 469 246 c 1,39,-1
 502 165 l 1,40,41
 497 162 497 162 485 157 c 128,-1,42
 473 152 473 152 455.5 147 c 128,-1,43
 438 142 438 142 416.5 138.5 c 128,-1,44
 395 135 395 135 371 135 c 0,45,46
 348 135 348 135 324 144 c 128,-1,47
 300 153 300 153 281 171 c 128,-1,48
 262 189 262 189 252.5 216 c 128,-1,49
 243 243 243 243 250 278 c 0,50,51
 263 345 263 345 287.5 383.5 c 128,-1,52
 312 422 312 422 341 441 c 128,-1,53
 370 460 370 460 401 464.5 c 128,-1,54
 432 469 432 469 459 469 c 2,55,-1
 629 469 l 1,56,57
 620 416 620 416 614 373 c 0,58,59
 611 355 611 355 608.5 337 c 128,-1,60
 606 319 606 319 603.5 304.5 c 128,-1,61
 601 290 601 290 600 281 c 128,-1,62
 599 272 599 272 599 271 c 0,63,64
 599 265 599 265 603 255.5 c 128,-1,65
 607 246 607 246 622 246 c 0,66,67
 629 246 629 246 636 259.5 c 128,-1,68
 643 273 643 273 649 294.5 c 128,-1,69
 655 316 655 316 659.5 342.5 c 128,-1,70
 664 369 664 369 668 395 c 0,71,72
 672 428 672 428 665 455 c 128,-1,73
 658 482 658 482 636.5 502 c 128,-1,74
 615 522 615 522 578.5 533 c 128,-1,75
 542 544 542 544 488 544 c 0,76,77
 453 544 453 544 410 538 c 128,-1,78
 367 532 367 532 326 507 c 128,-1,79
 285 482 285 482 251.5 431.5 c 128,-1,80
 218 381 218 381 202 293 c 0,81,82
 191 230 191 230 208.5 188.5 c 128,-1,83
 226 147 226 147 255 122.5 c 128,-1,84
 284 98 284 98 317 88 c 128,-1,85
 350 78 350 78 369 78 c 0,86,87
 385 78 385 78 405.5 82.5 c 128,-1,88
 426 87 426 87 446 92 c 0,89,90
 468 98 468 98 492 107 c 1,91,-1
 557 31 l 1,92,93
 532 11 532 11 501 -4 c 0,94,95
 474 -17 474 -17 437.5 -27.5 c 128,-1,96
 401 -38 401 -38 356 -38 c 0,97,98
 281 -38 281 -38 220 -8 c 128,-1,99
 159 22 159 22 119 72.5 c 128,-1,100
 79 123 79 123 62.5 188 c 128,-1,101
 46 253 46 253 60 323 c 0,102,103
 94 498 94 498 197.5 588 c 128,-1,104
 301 678 301 678 486 678 c 0,0,1
EndSplineSet
EndChar

StartChar: A
Encoding: 65 65 54
Width: 629
Flags: W
LayerCount: 2
Fore
SplineSet
360 408 m 1,0,-1
 290 240 l 1,1,-1
 365 240 l 1,2,-1
 373 117 l 1,3,-1
 219 117 l 1,4,-1
 159 0 l 1,5,-1
 -35 0 l 1,6,-1
 316 666 l 1,7,-1
 509 666 l 1,8,-1
 559 0 l 1,9,-1
 391 1 l 1,10,-1
 360 408 l 1,0,-1
EndSplineSet
EndChar

StartChar: B
Encoding: 66 66 55
Width: 588
Flags: W
LayerCount: 2
Fore
SplineSet
447 336 m 1,0,1
 484 311 484 311 503.5 280.5 c 128,-1,2
 523 250 523 250 533 222 c 0,3,4
 544 189 544 189 546 156 c 1,5,6
 546 117 546 117 527 89 c 128,-1,7
 508 61 508 61 483 42 c 128,-1,8
 458 23 458 23 433.5 12.5 c 128,-1,9
 409 2 409 2 397 -1 c 1,10,-1
 29 -1 l 1,11,-1
 147 665 l 1,12,-1
 316 665 l 1,13,-1
 231 161 l 1,14,15
 251 159 251 159 270.5 158.5 c 128,-1,16
 290 158 290 158 309 163 c 0,17,18
 326 168 326 168 338.5 181.5 c 128,-1,19
 351 195 351 195 351 219 c 0,20,21
 351 220 351 220 348 228.5 c 128,-1,22
 345 237 345 237 335.5 246 c 128,-1,23
 326 255 326 255 308.5 261.5 c 128,-1,24
 291 268 291 268 261 264 c 1,25,-1
 282 400 l 1,26,27
 312 408 312 408 329.5 420.5 c 128,-1,28
 347 433 347 433 356.5 444.5 c 128,-1,29
 366 456 366 456 369 464.5 c 128,-1,30
 372 473 372 473 372 474 c 0,31,32
 372 487 372 487 366.5 495.5 c 128,-1,33
 361 504 361 504 353.5 509 c 128,-1,34
 346 514 346 514 338.5 515.5 c 128,-1,35
 331 517 331 517 327 517 c 2,36,-1
 303 517 l 1,37,-1
 328 665 l 1,38,-1
 445 665 l 1,39,40
 467 660 467 660 487.5 646.5 c 128,-1,41
 508 633 508 633 524 612.5 c 128,-1,42
 540 592 540 592 549.5 564 c 128,-1,43
 559 536 559 536 559 503 c 1,44,45
 557 476 557 476 545 448 c 0,46,47
 534 424 534 424 511.5 394.5 c 128,-1,48
 489 365 489 365 447 336 c 1,0,1
EndSplineSet
EndChar

StartChar: C
Encoding: 67 67 56
Width: 495
Flags: W
LayerCount: 2
Fore
SplineSet
312 423 m 1,0,1
 315 449 315 449 311.5 463.5 c 128,-1,2
 308 478 308 478 301.5 485.5 c 128,-1,3
 295 493 295 493 288.5 495 c 128,-1,4
 282 497 282 497 280 497 c 0,5,6
 263 497 263 497 251.5 486.5 c 128,-1,7
 240 476 240 476 232 462 c 1,8,9
 221 405 221 405 208 342.5 c 128,-1,10
 195 280 195 280 185 223 c 0,11,12
 185 219 185 219 185 211 c 128,-1,13
 185 203 185 203 188.5 194.5 c 128,-1,14
 192 186 192 186 199 180 c 128,-1,15
 206 174 206 174 219 174 c 0,16,17
 237 174 237 174 248.5 181.5 c 128,-1,18
 260 189 260 189 267 200.5 c 128,-1,19
 274 212 274 212 277.5 225.5 c 128,-1,20
 281 239 281 239 282 252 c 0,21,22
 283 257 283 257 283 260.5 c 128,-1,23
 283 264 283 264 283 268 c 1,24,25
 293 268 293 268 324 270 c 128,-1,26
 355 272 355 272 428 276 c 1,27,28
 427 266 427 266 425.5 255.5 c 128,-1,29
 424 245 424 245 422 236 c 0,30,31
 414 195 414 195 399 152.5 c 128,-1,32
 384 110 384 110 358 76 c 128,-1,33
 332 42 332 42 292 20.5 c 128,-1,34
 252 -1 252 -1 194 -1 c 0,35,36
 143 -1 143 -1 110 13 c 128,-1,37
 77 27 77 27 58 46.5 c 128,-1,38
 39 66 39 66 32 86.5 c 128,-1,39
 25 107 25 107 25 121 c 0,40,41
 25 126 25 126 26 136 c 128,-1,42
 27 146 27 146 29 160 c 0,43,44
 33 188 33 188 39.5 227.5 c 128,-1,45
 46 267 46 267 53.5 310.5 c 128,-1,46
 61 354 61 354 69 397 c 128,-1,47
 77 440 77 440 85 476 c 0,48,49
 88 490 88 490 91.5 501.5 c 128,-1,50
 95 513 95 513 98 522 c 0,51,52
 110 557 110 557 134.5 583.5 c 128,-1,53
 159 610 159 610 190.5 628 c 128,-1,54
 222 646 222 646 257 655 c 128,-1,55
 292 664 292 664 324 664 c 1,56,57
 324 664 324 664 334.5 663.5 c 128,-1,58
 345 663 345 663 360.5 659 c 128,-1,59
 376 655 376 655 394 647 c 128,-1,60
 412 639 412 639 428 624 c 128,-1,61
 444 609 444 609 455 586.5 c 128,-1,62
 466 564 466 564 468 531 c 1,63,-1
 453 428 l 1,64,-1
 312 423 l 1,0,1
EndSplineSet
EndChar

StartChar: D
Encoding: 68 68 57
Width: 535
Flags: W
LayerCount: 2
Fore
SplineSet
371 58 m 1,0,1
 338 31 338 31 293.5 18.5 c 128,-1,2
 249 6 249 6 201 2 c 128,-1,3
 153 -2 153 -2 105.5 -1 c 128,-1,4
 58 0 58 0 20 0 c 1,5,-1
 129 666 l 1,6,-1
 277 665 l 1,7,-1
 205 163 l 1,8,9
 218 166 218 166 232.5 171 c 128,-1,10
 247 176 247 176 260 185 c 128,-1,11
 273 194 273 194 283.5 209.5 c 128,-1,12
 294 225 294 225 299 249 c 0,13,14
 305 276 305 276 311 309.5 c 128,-1,15
 317 343 317 343 322 375.5 c 128,-1,16
 327 408 327 408 329.5 435.5 c 128,-1,17
 332 463 332 463 332 477 c 0,18,19
 332 489 332 489 325.5 497.5 c 128,-1,20
 319 506 319 506 309 511 c 128,-1,21
 299 516 299 516 287.5 518.5 c 128,-1,22
 276 521 276 521 266 521 c 1,23,-1
 288 666 l 1,24,-1
 379 666 l 1,25,26
 424 658 424 658 448 631 c 128,-1,27
 472 604 472 604 483.5 567.5 c 128,-1,28
 495 531 495 531 496.5 490 c 128,-1,29
 498 449 498 449 498 413 c 0,30,31
 496 291 496 291 459.5 204 c 128,-1,32
 423 117 423 117 371 58 c 1,0,1
EndSplineSet
EndChar

StartChar: E
Encoding: 69 69 58
Width: 452
Flags: W
LayerCount: 2
Fore
SplineSet
267 522 m 1,0,-1
 248 395 l 1,1,-1
 386 395 l 1,2,-1
 365 267 l 1,3,-1
 223 267 l 1,4,-1
 202 146 l 1,5,-1
 346 147 l 1,6,-1
 318 0 l 1,7,-1
 28 0 l 1,8,-1
 136 666 l 1,9,-1
 424 665 l 1,10,-1
 406 522 l 1,11,-1
 267 522 l 1,0,-1
EndSplineSet
EndChar

StartChar: F
Encoding: 70 70 59
Width: 492
Flags: W
LayerCount: 2
Fore
SplineSet
284 515 m 1,0,-1
 268 406 l 1,1,-1
 417 406 l 1,2,-1
 396 266 l 1,3,-1
 244 266 l 1,4,-1
 197 0 l 1,5,-1
 38 -1 l 1,6,7
 66 174 66 174 89 317 c 0,8,9
 99 377 99 377 108.5 436.5 c 128,-1,10
 118 496 118 496 125.5 544 c 128,-1,11
 133 592 133 592 138 624.5 c 128,-1,12
 143 657 143 657 144 665 c 1,13,-1
 453 665 l 1,14,-1
 434 514 l 1,15,-1
 284 515 l 1,0,-1
EndSplineSet
EndChar

StartChar: G
Encoding: 71 71 60
Width: 503
Flags: W
LayerCount: 2
Fore
SplineSet
319 423 m 1,0,1
 320 429 320 429 320.5 433.5 c 128,-1,2
 321 438 321 438 321 441 c 2,3,-1
 321 448 l 2,4,5
 321 454 321 454 318.5 462 c 128,-1,6
 316 470 316 470 311 478 c 128,-1,7
 306 486 306 486 297.5 491.5 c 128,-1,8
 289 497 289 497 279 497 c 0,9,10
 259 497 259 497 243.5 477.5 c 128,-1,11
 228 458 228 458 225 434 c 0,12,13
 224 426 224 426 222 406.5 c 128,-1,14
 220 387 220 387 217 361.5 c 128,-1,15
 214 336 214 336 211 308.5 c 128,-1,16
 208 281 208 281 205.5 257.5 c 128,-1,17
 203 234 203 234 201.5 217.5 c 128,-1,18
 200 201 200 201 200 198 c 0,19,20
 200 185 200 185 210.5 176 c 128,-1,21
 221 167 221 167 235 167 c 1,22,23
 235 167 235 167 245.5 168.5 c 128,-1,24
 256 170 256 170 268.5 178 c 128,-1,25
 281 186 281 186 291 204 c 128,-1,26
 301 222 301 222 301 254 c 1,27,-1
 268 254 l 1,28,-1
 277 331 l 1,29,-1
 445 331 l 1,30,-1
 433 251 l 2,31,32
 431 236 431 236 428.5 221 c 128,-1,33
 426 206 426 206 424.5 194 c 128,-1,34
 423 182 423 182 422 174.5 c 128,-1,35
 421 167 421 167 421 166 c 0,36,37
 399 81 399 81 346 36 c 128,-1,38
 293 -9 293 -9 199 -9 c 0,39,40
 139 -9 139 -9 106 11.5 c 128,-1,41
 73 32 73 32 58 59 c 128,-1,42
 43 86 43 86 40.5 111.5 c 128,-1,43
 38 137 38 137 38 147 c 0,44,45
 38 158 38 158 38 168 c 128,-1,46
 38 178 38 178 40 191 c 0,47,48
 50 262 50 262 60 333.5 c 128,-1,49
 70 405 70 405 81 474 c 1,50,51
 96 522 96 522 122.5 556.5 c 128,-1,52
 149 591 149 591 180.5 612.5 c 128,-1,53
 212 634 212 634 245 644.5 c 128,-1,54
 278 655 278 655 305 655 c 0,55,56
 354 655 354 655 383.5 640.5 c 128,-1,57
 413 626 413 626 430 605 c 128,-1,58
 447 584 447 584 454.5 561 c 128,-1,59
 462 538 462 538 465 522 c 1,60,61
 465 510 465 510 464 495 c 0,62,63
 463 482 463 482 461.5 463.5 c 128,-1,64
 460 445 460 445 457 423 c 1,65,-1
 319 423 l 1,0,1
EndSplineSet
EndChar

StartChar: H
Encoding: 72 72 61
Width: 562
Flags: W
LayerCount: 2
Fore
SplineSet
277 0 m 1,0,-1
 316 234 l 1,1,-1
 215 234 l 1,2,-1
 175 0 l 1,3,-1
 31 -1 l 1,4,-1
 139 666 l 1,5,-1
 288 665 l 1,6,-1
 246 389 l 1,7,-1
 334 389 l 1,8,-1
 379 666 l 1,9,-1
 533 665 l 1,10,-1
 427 0 l 1,11,-1
 277 0 l 1,0,-1
EndSplineSet
EndChar

StartChar: I
Encoding: 73 73 62
Width: 320
Flags: W
LayerCount: 2
Fore
SplineSet
36 -1 m 1,0,-1
 146 665 l 1,1,-1
 296 666 l 1,2,-1
 184 -1 l 1,3,-1
 36 -1 l 1,0,-1
EndSplineSet
EndChar

StartChar: J
Encoding: 74 74 63
Width: 521
Flags: W
LayerCount: 2
Fore
SplineSet
408 168 m 1,0,1
 404 141 404 141 391 110.5 c 128,-1,2
 378 80 378 80 353.5 54.5 c 128,-1,3
 329 29 329 29 292 12 c 128,-1,4
 255 -5 255 -5 203 -5 c 0,5,6
 172 -5 172 -5 139 -0.5 c 128,-1,7
 106 4 106 4 78.5 16.5 c 128,-1,8
 51 29 51 29 31.5 51.5 c 128,-1,9
 12 74 12 74 8 111 c 0,10,11
 3 153 3 153 12 197 c 128,-1,12
 21 241 21 241 32 280 c 1,13,-1
 165 310 l 1,14,15
 157 278 157 278 153 257.5 c 128,-1,16
 149 237 149 237 147 225 c 0,17,18
 144 211 144 211 145 204 c 1,19,20
 145 181 145 181 162.5 169 c 128,-1,21
 180 157 180 157 196 157 c 0,22,23
 211 157 211 157 225 166 c 128,-1,24
 239 175 239 175 241 186 c 2,25,-1
 306 534 l 1,26,-1
 198 533 l 1,27,-1
 214 666 l 1,28,-1
 490 666 l 1,29,-1
 408 168 l 1,30,-1
 408 168 l 1,0,1
EndSplineSet
EndChar

StartChar: K
Encoding: 75 75 64
Width: 572
Flags: W
LayerCount: 2
Fore
SplineSet
486 0 m 1,0,-1
 319 0 l 1,1,-1
 221 185 l 1,2,-1
 185 0 l 1,3,-1
 25 0 l 1,4,-1
 144 666 l 1,5,-1
 305 665 l 1,6,-1
 264 416 l 1,7,-1
 474 633 l 1,8,-1
 552 518 l 1,9,-1
 343 285 l 1,10,-1
 486 0 l 1,0,-1
EndSplineSet
EndChar

StartChar: L
Encoding: 76 76 65
Width: 423
Flags: W
LayerCount: 2
Fore
SplineSet
30 0 m 1,0,-1
 141 666 l 1,1,-1
 317 666 l 1,2,-1
 236 161 l 1,3,-1
 381 161 l 1,4,-1
 349 0 l 1,5,-1
 30 0 l 1,0,-1
EndSplineSet
EndChar

StartChar: M
Encoding: 77 77 66
Width: 657
Flags: W
LayerCount: 2
Fore
SplineSet
339 0 m 1,0,-1
 387 312 l 1,1,-1
 292 221 l 1,2,-1
 244 293 l 1,3,-1
 198 0 l 1,4,-1
 30 0 l 1,5,-1
 141 666 l 1,6,-1
 285 666 l 1,7,-1
 355 485 l 1,8,-1
 453 666 l 1,9,-1
 617 666 l 1,10,-1
 508 0 l 1,11,-1
 339 0 l 1,0,-1
EndSplineSet
EndChar

StartChar: N
Encoding: 78 78 67
Width: 555
Flags: W
LayerCount: 2
Fore
SplineSet
284 0 m 1,0,-1
 316 202 l 1,1,-1
 257 309 l 1,2,-1
 197 0 l 1,3,-1
 36 0 l 1,4,-1
 147 666 l 1,5,-1
 282 665 l 1,6,-1
 359 498 l 1,7,-1
 390 666 l 1,8,-1
 553 666 l 1,9,-1
 438 0 l 1,10,-1
 284 0 l 1,0,-1
EndSplineSet
EndChar

StartChar: O
Encoding: 79 79 68
Width: 508
Flags: W
LayerCount: 2
Fore
SplineSet
236 449 m 0,0,1
 233 440 233 440 228 418.5 c 128,-1,2
 223 397 223 397 218 370 c 128,-1,3
 213 343 213 343 208 313.5 c 128,-1,4
 203 284 203 284 199 258.5 c 128,-1,5
 195 233 195 233 192.5 215.5 c 128,-1,6
 190 198 190 198 190 194 c 0,7,8
 190 181 190 181 196 171.5 c 128,-1,9
 202 162 202 162 222 162 c 0,10,11
 237 162 237 162 246 164.5 c 128,-1,12
 255 167 255 167 261 174 c 128,-1,13
 267 181 267 181 270.5 192 c 128,-1,14
 274 203 274 203 277 220 c 2,15,-1
 356 661 l 1,16,17
 401 657 401 657 425.5 640 c 128,-1,18
 450 623 450 623 462 603 c 0,19,20
 476 580 476 580 479 551 c 1,21,22
 477 542 477 542 472.5 512.5 c 128,-1,23
 468 483 468 483 461 443 c 128,-1,24
 454 403 454 403 446 357.5 c 128,-1,25
 438 312 438 312 431 271 c 128,-1,26
 424 230 424 230 418.5 198 c 128,-1,27
 413 166 413 166 411 153 c 0,28,29
 408 134 408 134 397.5 107.5 c 128,-1,30
 387 81 387 81 365 56.5 c 128,-1,31
 343 32 343 32 308 15 c 128,-1,32
 273 -2 273 -2 221 -2 c 0,33,34
 187 -2 187 -2 155 4 c 128,-1,35
 123 10 123 10 97.5 25 c 128,-1,36
 72 40 72 40 56 65 c 128,-1,37
 40 90 40 90 38 128 c 0,38,39
 38 140 38 140 38.5 149 c 128,-1,40
 39 158 39 158 39 162 c 0,41,42
 39 169 39 169 42.5 200.5 c 128,-1,43
 46 232 46 232 52.5 278.5 c 128,-1,44
 59 325 59 325 69.5 381.5 c 128,-1,45
 80 438 80 438 95 497 c 0,46,47
 104 534 104 534 123 560.5 c 128,-1,48
 142 587 142 587 165.5 605.5 c 128,-1,49
 189 624 189 624 214.5 635.5 c 128,-1,50
 240 647 240 647 261.5 653.5 c 128,-1,51
 283 660 283 660 298.5 662 c 128,-1,52
 314 664 314 664 318 664 c 2,53,-1
 329 664 l 2,54,55
 334 664 334 664 338 663.5 c 128,-1,56
 342 663 342 663 346 663 c 1,57,-1
 315 496 l 1,58,59
 304 496 304 496 291.5 492.5 c 128,-1,60
 279 489 279 489 268 483 c 128,-1,61
 257 477 257 477 248 468.5 c 128,-1,62
 239 460 239 460 236 449 c 0,0,1
EndSplineSet
EndChar

StartChar: P
Encoding: 80 80 69
Width: 468
Flags: W
LayerCount: 2
Fore
SplineSet
233 248 m 1,0,1
 235 261 235 261 239.5 287 c 128,-1,2
 244 313 244 313 247.5 336 c 128,-1,3
 251 359 251 359 253 371.5 c 128,-1,4
 255 384 255 384 253 370 c 1,5,6
 289 386 289 386 310.5 403.5 c 128,-1,7
 332 421 332 421 344 436 c 128,-1,8
 356 451 356 451 360 462 c 128,-1,9
 364 473 364 473 364 477 c 0,10,11
 364 501 364 501 352 511.5 c 128,-1,12
 340 522 340 522 324.5 525.5 c 128,-1,13
 309 529 309 529 293 527 c 128,-1,14
 277 525 277 525 270 524 c 1,15,-1
 179 0 l 1,16,-1
 30 0 l 1,17,-1
 140 665 l 1,18,-1
 353 667 l 2,19,20
 380 668 380 668 405.5 656.5 c 128,-1,21
 431 645 431 645 451 622.5 c 128,-1,22
 471 600 471 600 483.5 568 c 128,-1,23
 496 536 496 536 496 496 c 0,24,25
 496 441 496 441 467 398.5 c 128,-1,26
 438 356 438 356 396.5 325 c 128,-1,27
 355 294 355 294 310 275 c 128,-1,28
 265 256 265 256 233 248 c 1,0,1
EndSplineSet
EndChar

StartChar: Q
Encoding: 81 81 70
Width: 525
Flags: W
LayerCount: 2
Fore
SplineSet
328 61 m 1,0,1
 308 37 308 37 283.5 24.5 c 128,-1,2
 259 12 259 12 238 6 c 0,3,4
 212 -1 212 -1 188 -2 c 1,5,6
 137 -2 137 -2 106.5 16.5 c 128,-1,7
 76 35 76 35 60 59 c 128,-1,8
 44 83 44 83 39 105 c 128,-1,9
 34 127 34 127 34 134 c 0,10,11
 34 147 34 147 34.5 162 c 128,-1,12
 35 177 35 177 38 194 c 0,13,14
 44 230 44 230 51 273.5 c 128,-1,15
 58 317 58 317 65.5 360 c 128,-1,16
 73 403 73 403 79.5 442.5 c 128,-1,17
 86 482 86 482 92 512 c 0,18,19
 97 540 97 540 116 567.5 c 128,-1,20
 135 595 135 595 163 616.5 c 128,-1,21
 191 638 191 638 224.5 651.5 c 128,-1,22
 258 665 258 665 292 665 c 256,23,24
 326 665 326 665 356.5 653.5 c 128,-1,25
 387 642 387 642 409.5 621 c 128,-1,26
 432 600 432 600 445 571 c 128,-1,27
 458 542 458 542 458 507 c 0,28,29
 457 467 457 467 453 413 c 0,30,31
 449 367 449 367 441.5 302 c 128,-1,32
 434 237 434 237 421 152 c 1,33,34
 376 168 376 168 342 175.5 c 128,-1,35
 308 183 308 183 294 185 c 1,36,37
 296 200 296 200 300.5 238 c 128,-1,38
 305 276 305 276 310 317.5 c 128,-1,39
 315 359 315 359 319.5 393.5 c 128,-1,40
 324 428 324 428 325 436 c 0,41,42
 326 443 326 443 326 454.5 c 128,-1,43
 326 466 326 466 322.5 477 c 128,-1,44
 319 488 319 488 310 495.5 c 128,-1,45
 301 503 301 503 285 503 c 0,46,47
 270 503 270 503 261 495 c 128,-1,48
 252 487 252 487 246.5 475 c 128,-1,49
 241 463 241 463 238 449.5 c 128,-1,50
 235 436 235 436 234 425 c 1,51,52
 231 410 231 410 227 378 c 0,53,54
 223 351 223 351 216.5 303.5 c 128,-1,55
 210 256 210 256 199 181 c 1,56,57
 212 179 212 179 224 178.5 c 128,-1,58
 236 178 236 178 245 178 c 2,59,-1
 265 178 l 2,60,61
 281 178 281 178 304 174 c 0,62,63
 324 171 324 171 353 163.5 c 128,-1,64
 382 156 382 156 420 143 c 1,65,66
 458 105 458 105 483 72.5 c 128,-1,67
 508 40 508 40 519 26 c 1,68,69
 505 24 505 24 470 18 c 128,-1,70
 435 12 435 12 365 1 c 1,71,-1
 328 61 l 1,0,1
EndSplineSet
EndChar

StartChar: R
Encoding: 82 82 71
Width: 601
Flags: W
LayerCount: 2
Fore
SplineSet
546 0 m 1,0,-1
 366 0 l 1,1,-1
 303 220 l 1,2,-1
 257 212 l 1,3,-1
 282 344 l 1,4,5
 316 359 316 359 336 381 c 128,-1,6
 356 403 356 403 366.5 423 c 128,-1,7
 377 443 377 443 380 457.5 c 128,-1,8
 383 472 383 472 383 472 c 1,9,10
 383 496 383 496 370 505.5 c 128,-1,11
 357 515 357 515 335 515 c 0,12,13
 332 515 332 515 328 514 c 256,14,15
 324 513 324 513 318 512 c 128,-1,16
 312 511 312 511 301 509 c 1,17,-1
 208 0 l 1,18,-1
 37 0 l 1,19,-1
 146 666 l 1,20,-1
 401 666 l 2,21,22
 423 666 423 666 451 661.5 c 128,-1,23
 479 657 479 657 504 639 c 128,-1,24
 529 621 529 621 546 584 c 128,-1,25
 563 547 563 547 563 483 c 1,26,27
 560 445 560 445 546 406 c 0,28,29
 533 372 533 372 507 332.5 c 128,-1,30
 481 293 481 293 431 258 c 1,31,-1
 546 0 l 1,0,-1
EndSplineSet
EndChar

StartChar: S
Encoding: 83 83 72
Width: 489
Flags: W
LayerCount: 2
Fore
SplineSet
335 467 m 1,0,1
 334 488 334 488 327 499.5 c 128,-1,2
 320 511 320 511 311.5 516.5 c 128,-1,3
 303 522 303 522 296 523 c 128,-1,4
 289 524 289 524 289 524 c 1,5,6
 276 524 276 524 265.5 517 c 128,-1,7
 255 510 255 510 247.5 500.5 c 128,-1,8
 240 491 240 491 235.5 480.5 c 128,-1,9
 231 470 231 470 231 464 c 0,10,11
 231 443 231 443 244 428 c 128,-1,12
 257 413 257 413 276.5 400 c 128,-1,13
 296 387 296 387 320 373.5 c 128,-1,14
 344 360 344 360 365.5 342 c 128,-1,15
 387 324 387 324 403.5 298.5 c 128,-1,16
 420 273 420 273 426 237 c 1,17,18
 423 203 423 203 414 166 c 128,-1,19
 405 129 405 129 393 97 c 0,20,21
 387 83 387 83 371.5 66 c 128,-1,22
 356 49 356 49 331.5 34 c 128,-1,23
 307 19 307 19 273.5 9 c 128,-1,24
 240 -1 240 -1 199 -1 c 0,25,26
 157 -1 157 -1 126.5 8.5 c 128,-1,27
 96 18 96 18 76.5 31 c 128,-1,28
 57 44 57 44 47.5 57.5 c 128,-1,29
 38 71 38 71 38 80 c 0,30,31
 37 91 37 91 39 110 c 0,32,33
 41 127 41 127 44 154 c 128,-1,34
 47 181 47 181 55 222 c 1,35,-1
 184 223 l 1,36,37
 181 213 181 213 180 206.5 c 128,-1,38
 179 200 179 200 178 195 c 256,39,40
 177 190 177 190 177 186 c 0,41,42
 177 174 177 174 184 158 c 128,-1,43
 191 142 191 142 215 142 c 0,44,45
 236 142 236 142 247.5 153.5 c 128,-1,46
 259 165 259 165 264.5 181 c 128,-1,47
 270 197 270 197 271.5 214.5 c 128,-1,48
 273 232 273 232 273 243 c 1,49,50
 268 259 268 259 253 274.5 c 128,-1,51
 238 290 238 290 218.5 304.5 c 128,-1,52
 199 319 199 319 177.5 332.5 c 128,-1,53
 156 346 156 346 137.5 360 c 128,-1,54
 119 374 119 374 107 387.5 c 128,-1,55
 95 401 95 401 95 416 c 0,56,57
 95 439 95 439 99.5 474 c 128,-1,58
 104 509 104 509 115 541 c 0,59,60
 127 576 127 576 149 600 c 128,-1,61
 171 624 171 624 197.5 639 c 128,-1,62
 224 654 224 654 252 660.5 c 128,-1,63
 280 667 280 667 303 667 c 256,64,65
 326 667 326 667 351 661 c 128,-1,66
 376 655 376 655 398 643 c 128,-1,67
 420 631 420 631 436 612.5 c 128,-1,68
 452 594 452 594 458 569 c 1,69,70
 459 559 459 559 460 544 c 0,71,72
 461 531 461 531 460.5 512 c 128,-1,73
 460 493 460 493 457 467 c 1,74,-1
 335 467 l 1,0,1
EndSplineSet
EndChar

StartChar: T
Encoding: 84 84 73
Width: 478
Flags: W
LayerCount: 2
Fore
SplineSet
346 509 m 1,0,-1
 267 0 l 1,1,-1
 92 0 l 1,2,-1
 172 508 l 1,3,-1
 48 508 l 1,4,-1
 70 666 l 1,5,-1
 474 667 l 1,6,-1
 454 509 l 1,7,-1
 346 509 l 1,0,-1
EndSplineSet
EndChar

StartChar: U
Encoding: 85 85 74
Width: 542
Flags: W
LayerCount: 2
Fore
SplineSet
433 139 m 1,0,1
 429 115 429 115 413.5 90.5 c 128,-1,2
 398 66 398 66 371.5 45.5 c 128,-1,3
 345 25 345 25 309.5 12 c 128,-1,4
 274 -1 274 -1 229 -1 c 0,5,6
 159 -1 159 -1 121 21.5 c 128,-1,7
 83 44 83 44 65 73 c 128,-1,8
 47 102 47 102 44 129 c 128,-1,9
 41 156 41 156 41 165 c 1,10,-1
 120 666 l 1,11,-1
 275 666 l 1,12,-1
 216 281 l 2,13,14
 206 218 206 218 216 192 c 128,-1,15
 226 166 226 166 255 166 c 0,16,17
 267 166 267 166 275 173 c 128,-1,18
 283 180 283 180 288.5 191 c 128,-1,19
 294 202 294 202 297.5 214.5 c 128,-1,20
 301 227 301 227 303 238 c 2,21,-1
 373 666 l 1,22,-1
 520 666 l 1,23,-1
 433 139 l 1,24,-1
 433 139 l 1,0,1
EndSplineSet
EndChar

StartChar: V
Encoding: 86 86 75
Width: 552
Flags: W
LayerCount: 2
Fore
SplineSet
86 0 m 1,0,-1
 67 666 l 1,1,-1
 240 666 l 1,2,-1
 250 281 l 1,3,-1
 458 666 l 1,4,-1
 633 666 l 1,5,-1
 294 0 l 1,6,-1
 86 0 l 1,0,-1
EndSplineSet
EndChar

StartChar: W
Encoding: 87 87 76
Width: 752
Flags: W
LayerCount: 2
Fore
SplineSet
343 0 m 1,0,-1
 336 172 l 1,1,-1
 235 0 l 1,2,-1
 109 0 l 1,3,-1
 69 666 l 1,4,-1
 239 666 l 1,5,-1
 251 428 l 1,6,-1
 379 666 l 1,7,-1
 490 667 l 1,8,-1
 496 442 l 1,9,-1
 620 666 l 1,10,-1
 789 666 l 1,11,-1
 462 0 l 1,12,-1
 343 0 l 1,0,-1
EndSplineSet
EndChar

StartChar: X
Encoding: 88 88 77
Width: 620
Flags: W
LayerCount: 2
Fore
SplineSet
453 0 m 1,0,-1
 287 0 l 1,1,-1
 246 132 l 1,2,-1
 167 0 l 1,3,-1
 -28 0 l 1,4,-1
 200 329 l 1,5,-1
 93 666 l 1,6,-1
 258 666 l 1,7,-1
 311 494 l 1,8,-1
 438 666 l 1,9,-1
 634 666 l 1,10,-1
 366 312 l 1,11,-1
 453 0 l 1,0,-1
EndSplineSet
EndChar

StartChar: Y
Encoding: 89 89 78
Width: 571
Flags: W
LayerCount: 2
Fore
SplineSet
327 0 m 1,0,-1
 139 -1 l 1,1,-1
 190 377 l 1,2,-1
 45 666 l 1,3,-1
 223 666 l 1,4,-1
 287 509 l 1,5,-1
 380 666 l 1,6,-1
 577 666 l 1,7,-1
 351 303 l 1,8,-1
 327 0 l 1,0,-1
EndSplineSet
EndChar

StartChar: Z
Encoding: 90 90 79
Width: 538
Flags: W
LayerCount: 2
Fore
SplineSet
246 163 m 1,0,-1
 409 163 l 1,1,-1
 382 0 l 1,2,-1
 31 0 l 1,3,-1
 65 205 l 1,4,-1
 280 507 l 1,5,-1
 119 506 l 1,6,-1
 142 666 l 1,7,-1
 509 665 l 1,8,-1
 473 481 l 1,9,-1
 246 163 l 1,0,-1
EndSplineSet
EndChar

StartChar: bracketleft
Encoding: 91 91 80
Width: 366
Flags: W
LayerCount: 2
Fore
SplineSet
307 599 m 1,0,1
 301 599 301 599 293.5 598 c 128,-1,2
 286 597 286 597 279 591.5 c 128,-1,3
 272 586 272 586 266 573.5 c 128,-1,4
 260 561 260 561 256 538 c 2,5,-1
 199 194 l 2,6,7
 196 171 196 171 197.5 157.5 c 128,-1,8
 199 144 199 144 204 136 c 128,-1,9
 209 128 209 128 216 125 c 128,-1,10
 223 122 223 122 229 120 c 1,11,-1
 203 -53 l 1,12,13
 154 -36 154 -36 117 -6 c 0,14,15
 101 6 101 6 86.5 22.5 c 128,-1,16
 72 39 72 39 62 60 c 128,-1,17
 52 81 52 81 48 106.5 c 128,-1,18
 44 132 44 132 49 162 c 0,19,20
 70 287 70 287 86 386 c 0,21,22
 93 428 93 428 99.5 468.5 c 128,-1,23
 106 509 106 509 111 540.5 c 128,-1,24
 116 572 116 572 119.5 591.5 c 128,-1,25
 123 611 123 611 123 611 c 2,26,27
 128 642 128 642 140 665 c 128,-1,28
 152 688 152 688 168 704.5 c 128,-1,29
 184 721 184 721 202.5 732 c 128,-1,30
 221 743 221 743 239 750 c 0,31,32
 282 766 282 766 334 766 c 1,33,-1
 307 599 l 1,0,1
EndSplineSet
EndChar

StartChar: backslash
Encoding: 92 92 81
Width: 514
Flags: W
LayerCount: 2
Fore
SplineSet
191 688 m 1,0,-1
 453 36 l 1,1,-1
 312 -23 l 1,2,-1
 55 626 l 1,3,-1
 191 688 l 1,0,-1
EndSplineSet
EndChar

StartChar: bracketright
Encoding: 93 93 82
Width: 366
Flags: W
LayerCount: 2
Fore
SplineSet
58 114 m 1,0,1
 64 114 64 114 71.5 115 c 128,-1,2
 79 116 79 116 86 121.5 c 128,-1,3
 93 127 93 127 99 139.5 c 128,-1,4
 105 152 105 152 109 175 c 2,5,-1
 166 519 l 2,6,7
 169 542 169 542 166.5 555.5 c 128,-1,8
 164 569 164 569 159.5 577 c 128,-1,9
 155 585 155 585 148.5 588 c 128,-1,10
 142 591 142 591 136 593 c 1,11,-1
 162 766 l 1,12,13
 211 749 211 749 248 720 c 0,14,15
 264 708 264 708 278.5 691.5 c 128,-1,16
 293 675 293 675 303.5 654 c 128,-1,17
 314 633 314 633 318.5 607.5 c 128,-1,18
 323 582 323 582 320 551 c 1,19,20
 298 425 298 425 281 326 c 0,21,22
 273 284 273 284 266 244 c 128,-1,23
 259 204 259 204 254 172 c 0,24,25
 248 135 248 135 242 102 c 0,26,27
 237 71 237 71 225 48 c 128,-1,28
 213 25 213 25 197 8.5 c 128,-1,29
 181 -8 181 -8 162.5 -19 c 128,-1,30
 144 -30 144 -30 126 -37 c 0,31,32
 83 -53 83 -53 31 -53 c 1,33,-1
 58 114 l 1,0,1
EndSplineSet
EndChar

StartChar: asciicircum
Encoding: 94 94 83
Width: 602
Flags: W
LayerCount: 2
Fore
SplineSet
63 361 m 1,0,-1
 349 619 l 1,1,-1
 560 359 l 1,2,-1
 422 358 l 1,3,-1
 341 450 l 1,4,-1
 206 361 l 1,5,-1
 63 361 l 1,0,-1
EndSplineSet
EndChar

StartChar: underscore
Encoding: 95 95 84
Width: 661
Flags: W
LayerCount: 2
Fore
SplineSet
76 -21 m 1,0,-1
 607 -21 l 1,1,-1
 581 -162 l 1,2,-1
 52 -162 l 1,3,-1
 76 -21 l 1,0,-1
EndSplineSet
EndChar

StartChar: grave
Encoding: 96 96 85
Width: 260
Flags: W
LayerCount: 2
Fore
SplineSet
176 781 m 1,0,-1
 218 639 l 1,1,-1
 62 639 l 1,2,-1
 20 781 l 1,3,-1
 176 781 l 1,0,-1
EndSplineSet
EndChar

StartChar: a
Encoding: 97 97 86
Width: 623
Flags: W
LayerCount: 2
Fore
SplineSet
577 469 m 1,0,-1
 498 -1 l 1,1,-1
 332 0 l 1,2,-1
 390 337 l 1,3,-1
 388 348 l 1,4,5
 384 356 384 356 377 363 c 0,6,7
 370 369 370 369 359 374 c 128,-1,8
 348 379 348 379 328 379 c 256,9,10
 308 379 308 379 293.5 370 c 128,-1,11
 279 361 279 361 269.5 349.5 c 128,-1,12
 260 338 260 338 255 327 c 128,-1,13
 250 316 250 316 249 312 c 0,14,15
 248 307 248 307 244 289 c 128,-1,16
 240 271 240 271 235.5 248.5 c 128,-1,17
 231 226 231 226 227.5 204.5 c 128,-1,18
 224 183 224 183 224 172 c 0,19,20
 224 160 224 160 232 153.5 c 128,-1,21
 240 147 240 147 251 143 c 128,-1,22
 262 139 262 139 273.5 138 c 128,-1,23
 285 137 285 137 292 137 c 0,24,25
 300 137 300 137 310 142.5 c 128,-1,26
 320 148 320 148 330 156 c 0,27,28
 341 164 341 164 353 175 c 1,29,-1
 332 61 l 1,30,31
 309 44 309 44 291 32 c 128,-1,32
 273 20 273 20 256.5 12.5 c 128,-1,33
 240 5 240 5 223 2 c 128,-1,34
 206 -1 206 -1 185 -1 c 0,35,36
 152 -1 152 -1 124 8.5 c 128,-1,37
 96 18 96 18 75.5 33 c 128,-1,38
 55 48 55 48 43 67 c 128,-1,39
 31 86 31 86 31 104 c 0,40,41
 31 111 31 111 32 122 c 128,-1,42
 33 133 33 133 36 148 c 0,43,44
 44 193 44 193 51 231 c 0,45,46
 57 263 57 263 63 294 c 128,-1,47
 69 325 69 325 72 337 c 1,48,49
 88 372 88 372 112 397 c 128,-1,50
 136 422 136 422 164.5 438 c 128,-1,51
 193 454 193 454 224 461.5 c 128,-1,52
 255 469 255 469 287 469 c 0,53,54
 301 469 301 469 319 465.5 c 128,-1,55
 337 462 337 462 355 455.5 c 128,-1,56
 373 449 373 449 388.5 440 c 128,-1,57
 404 431 404 431 414 419 c 1,58,-1
 422 469 l 1,59,-1
 577 469 l 1,0,-1
EndSplineSet
EndChar

StartChar: b
Encoding: 98 98 87
Width: 617
Flags: W
LayerCount: 2
Fore
SplineSet
339 666 m 1,0,-1
 249 124 l 1,1,2
 256 115 256 115 265 108 c 0,3,4
 273 102 273 102 283.5 97.5 c 128,-1,5
 294 93 294 93 308 93 c 0,6,7
 327 93 327 93 341 99 c 128,-1,8
 355 105 355 105 364.5 113.5 c 128,-1,9
 374 122 374 122 379.5 130.5 c 128,-1,10
 385 139 385 139 388 145 c 0,11,12
 390 150 390 150 393.5 164 c 128,-1,13
 397 178 397 178 400 194 c 128,-1,14
 403 210 403 210 405.5 223.5 c 128,-1,15
 408 237 408 237 409 242 c 0,16,17
 411 251 411 251 411 269.5 c 128,-1,18
 411 288 411 288 406 300 c 0,19,20
 401 313 401 313 389 316.5 c 128,-1,21
 377 320 377 320 357 318 c 0,22,23
 347 317 347 317 335.5 312 c 128,-1,24
 324 307 324 307 313 300 c 0,25,26
 301 292 301 292 289 282 c 1,27,-1
 309 409 l 1,28,29
 327 424 327 424 349 436 c 0,30,31
 368 447 368 447 394 456 c 128,-1,32
 420 465 420 465 450 467 c 0,33,34
 468 468 468 468 494 459.5 c 128,-1,35
 520 451 520 451 543.5 434.5 c 128,-1,36
 567 418 567 418 583.5 393.5 c 128,-1,37
 600 369 600 369 600 338 c 0,38,39
 600 281 600 281 588.5 231.5 c 128,-1,40
 577 182 577 182 567 146 c 0,41,42
 564 135 564 135 550 111 c 128,-1,43
 536 87 536 87 511 62 c 128,-1,44
 486 37 486 37 450 18.5 c 128,-1,45
 414 0 414 0 366 0 c 0,46,47
 305 0 305 0 273.5 13 c 128,-1,48
 242 26 242 26 230 35 c 1,49,-1
 223 0 l 1,50,-1
 50 0 l 1,51,-1
 159 666 l 1,52,-1
 339 666 l 1,0,-1
EndSplineSet
EndChar

StartChar: c
Encoding: 99 99 88
Width: 511
Flags: W
LayerCount: 2
Fore
SplineSet
468 403 m 0,0,1
 483 377 483 377 481 351 c 128,-1,2
 479 325 479 325 465 315 c 0,3,4
 445 302 445 302 431.5 311 c 128,-1,5
 418 320 418 320 410 331 c 1,6,7
 402 348 402 348 385.5 365.5 c 128,-1,8
 369 383 369 383 343 383 c 0,9,10
 337 383 337 383 326 382 c 128,-1,11
 315 381 315 381 303.5 376.5 c 128,-1,12
 292 372 292 372 281.5 363.5 c 128,-1,13
 271 355 271 355 265 340 c 1,14,15
 254 304 254 304 245 269.5 c 128,-1,16
 236 235 236 235 236 197 c 0,17,18
 236 189 236 189 237 181 c 128,-1,19
 238 173 238 173 242.5 166.5 c 128,-1,20
 247 160 247 160 256 155.5 c 128,-1,21
 265 151 265 151 280 151 c 0,22,23
 309 151 309 151 332 167.5 c 128,-1,24
 355 184 355 184 378 203 c 1,25,26
 393 210 393 210 408 208.5 c 128,-1,27
 423 207 423 207 433.5 198.5 c 128,-1,28
 444 190 444 190 448.5 176.5 c 128,-1,29
 453 163 453 163 447 148 c 1,30,31
 405 73 405 73 335 36 c 128,-1,32
 265 -1 265 -1 180 -1 c 0,33,34
 158 -1 158 -1 136.5 6.5 c 128,-1,35
 115 14 115 14 96 27.5 c 128,-1,36
 77 41 77 41 63 59 c 128,-1,37
 49 77 49 77 42 98 c 0,38,39
 40 105 40 105 38.5 119.5 c 128,-1,40
 37 134 37 134 39 145 c 0,41,42
 44 171 44 171 48 198 c 0,43,44
 52 221 52 221 56.5 248 c 128,-1,45
 61 275 61 275 65 299 c 0,46,47
 69 322 69 322 81.5 341.5 c 128,-1,48
 94 361 94 361 108 376 c 0,49,50
 124 392 124 392 146.5 409 c 128,-1,51
 169 426 169 426 195.5 439.5 c 128,-1,52
 222 453 222 453 252.5 462 c 128,-1,53
 283 471 283 471 315 471 c 0,54,55
 383 471 383 471 417 452 c 128,-1,56
 451 433 451 433 468 403 c 0,0,1
EndSplineSet
EndChar

StartChar: d
Encoding: 100 100 89
Width: 625
Flags: W
LayerCount: 2
Fore
SplineSet
492 0 m 1,0,-1
 323 -1 l 1,1,-1
 330 42 l 1,2,3
 307 28 307 28 279 18.5 c 128,-1,4
 251 9 251 9 220.5 3.5 c 128,-1,5
 190 -2 190 -2 159.5 -1.5 c 128,-1,6
 129 -1 129 -1 103 7 c 1,7,8
 61 28 61 28 42 70 c 128,-1,9
 23 112 23 112 25 157 c 1,10,11
 30 193 30 193 36.5 233 c 128,-1,12
 43 273 43 273 50 305 c 1,13,14
 59 333 59 333 78.5 359.5 c 128,-1,15
 98 386 98 386 126.5 407 c 128,-1,16
 155 428 155 428 192 441 c 128,-1,17
 229 454 229 454 272 456 c 0,18,19
 304 458 304 458 330 451 c 128,-1,20
 356 444 356 444 388 427 c 1,21,-1
 370 320 l 1,22,23
 365 338 365 338 353.5 346.5 c 128,-1,24
 342 355 342 355 327 354 c 0,25,26
 293 353 293 353 275 339.5 c 128,-1,27
 257 326 257 326 247.5 305 c 128,-1,28
 238 284 238 284 233.5 258.5 c 128,-1,29
 229 233 229 233 223 207 c 0,30,31
 219 190 219 190 219 175 c 128,-1,32
 219 160 219 160 224 149 c 128,-1,33
 229 138 229 138 241 131.5 c 128,-1,34
 253 125 253 125 273 127 c 0,35,36
 302 129 302 129 324.5 147.5 c 128,-1,37
 347 166 347 166 355 192 c 1,38,-1
 440 666 l 1,39,-1
 609 666 l 1,40,-1
 492 0 l 1,0,-1
EndSplineSet
EndChar

StartChar: e
Encoding: 101 101 90
Width: 471
Flags: W
LayerCount: 2
Fore
SplineSet
274 470 m 0,0,1
 301 470 301 470 327 464 c 128,-1,2
 353 458 353 458 374.5 445 c 128,-1,3
 396 432 396 432 411 411 c 128,-1,4
 426 390 426 390 429 361 c 0,5,6
 433 321 433 321 419 296 c 128,-1,7
 405 271 405 271 383.5 257 c 128,-1,8
 362 243 362 243 339 237 c 128,-1,9
 316 231 316 231 302 230 c 0,10,11
 294 229 294 229 279.5 229 c 128,-1,12
 265 229 265 229 250 230 c 1,13,14
 232 230 232 230 213 231 c 1,15,-1
 228 287 l 1,16,17
 234 288 234 288 242 289 c 0,18,19
 249 290 249 290 257.5 291 c 128,-1,20
 266 292 266 292 275 294 c 1,21,22
 307 297 307 297 317.5 312.5 c 128,-1,23
 328 328 328 328 326 339 c 0,24,25
 326 340 326 340 325 344 c 128,-1,26
 324 348 324 348 321 352.5 c 128,-1,27
 318 357 318 357 312.5 360.5 c 128,-1,28
 307 364 307 364 297 364 c 0,29,30
 238 364 238 364 219 286 c 0,31,32
 216 272 216 272 212 255 c 128,-1,33
 208 238 208 238 205 223 c 128,-1,34
 202 208 202 208 200 197 c 128,-1,35
 198 186 198 186 198 182 c 0,36,37
 198 173 198 173 204 167.5 c 128,-1,38
 210 162 210 162 218.5 160 c 128,-1,39
 227 158 227 158 235 157.5 c 128,-1,40
 243 157 243 157 247 157 c 0,41,42
 260 157 260 157 282 170 c 128,-1,43
 304 183 304 183 326 197 c 0,44,45
 337 204 337 204 350.5 201 c 128,-1,46
 364 198 364 198 374.5 188.5 c 128,-1,47
 385 179 385 179 389 164 c 128,-1,48
 393 149 393 149 386 133 c 0,49,50
 384 128 384 128 367.5 106.5 c 128,-1,51
 351 85 351 85 324 61.5 c 128,-1,52
 297 38 297 38 259.5 19 c 128,-1,53
 222 0 222 0 178 0 c 0,54,55
 132 0 132 0 102 14.5 c 128,-1,56
 72 29 72 29 55 48 c 128,-1,57
 38 67 38 67 31 85.5 c 128,-1,58
 24 104 24 104 25 111 c 2,59,-1
 48 270 l 1,60,61
 55 310 55 310 76.5 346.5 c 128,-1,62
 98 383 98 383 128 410.5 c 128,-1,63
 158 438 158 438 195.5 454 c 128,-1,64
 233 470 233 470 274 470 c 0,0,1
EndSplineSet
EndChar

StartChar: f
Encoding: 102 102 91
Width: 472
Flags: W
LayerCount: 2
Fore
SplineSet
513 583 m 1,0,1
 511 584 511 584 502.5 584.5 c 128,-1,2
 494 585 494 585 483.5 586 c 128,-1,3
 473 587 473 587 463.5 587.5 c 128,-1,4
 454 588 454 588 450 588 c 0,5,6
 403 588 403 588 378 571 c 128,-1,7
 353 554 353 554 341 530 c 128,-1,8
 329 506 329 506 325 480 c 128,-1,9
 321 454 321 454 318 436 c 1,10,-1
 422 436 l 1,11,-1
 405 335 l 1,12,-1
 296 334 l 1,13,-1
 237 0 l 1,14,-1
 75 -1 l 1,15,-1
 134 336 l 1,16,-1
 35 337 l 1,17,18
 39 363 39 363 43 384 c 0,19,20
 46 402 46 402 49 418.5 c 128,-1,21
 52 435 52 435 53 438 c 1,22,-1
 155 438 l 1,23,24
 166 499 166 499 175.5 541 c 128,-1,25
 185 583 185 583 204.5 608.5 c 128,-1,26
 224 634 224 634 260 645 c 128,-1,27
 296 656 296 656 359 656 c 0,28,29
 378 656 378 656 400.5 655 c 128,-1,30
 423 654 423 654 444.5 652 c 128,-1,31
 466 650 466 650 486.5 647 c 128,-1,32
 507 644 507 644 523 641 c 1,33,-1
 513 583 l 1,0,1
EndSplineSet
EndChar

StartChar: g
Encoding: 103 103 92
Width: 608
Flags: W
LayerCount: 2
Fore
SplineSet
481 -3 m 1,0,1
 470 -56 470 -56 446 -90 c 128,-1,2
 422 -124 422 -124 382 -150 c 1,3,4
 355 -164 355 -164 327.5 -175.5 c 128,-1,5
 300 -187 300 -187 271 -193 c 0,6,7
 243 -198 243 -198 214 -199.5 c 128,-1,8
 185 -201 185 -201 161 -201 c 0,9,10
 133 -201 133 -201 105 -200 c 1,11,12
 106 -197 106 -197 107.5 -188 c 128,-1,13
 109 -179 109 -179 111 -169 c 0,14,15
 113 -158 113 -158 116 -144 c 1,16,17
 154 -141 154 -141 187 -135 c 0,18,19
 216 -130 216 -130 243 -120.5 c 128,-1,20
 270 -111 270 -111 282 -94 c 256,21,22
 294 -77 294 -77 305.5 -52.5 c 128,-1,23
 317 -28 317 -28 322 0 c 0,24,25
 329 39 329 39 336 80.5 c 128,-1,26
 343 122 343 122 349 162 c 128,-1,27
 355 202 355 202 360 238.5 c 128,-1,28
 365 275 365 275 368 302 c 0,29,30
 370 328 370 328 359 347 c 128,-1,31
 348 366 348 366 316 365 c 1,32,33
 277 365 277 365 256 341.5 c 128,-1,34
 235 318 235 318 224 285 c 128,-1,35
 213 252 213 252 209 215 c 128,-1,36
 205 178 205 178 202 150 c 0,37,38
 201 133 201 133 222 122 c 128,-1,39
 243 111 243 111 272 109 c 0,40,41
 276 109 276 109 285 109 c 128,-1,42
 294 109 294 109 303.5 110.5 c 128,-1,43
 313 112 313 112 321.5 113.5 c 128,-1,44
 330 115 330 115 333 118 c 1,45,-1
 318 33 l 1,46,47
 288 18 288 18 252.5 9 c 128,-1,48
 217 0 217 0 182 0 c 256,49,50
 147 0 147 0 117 10 c 128,-1,51
 87 20 87 20 65.5 39.5 c 128,-1,52
 44 59 44 59 33 88 c 128,-1,53
 22 117 22 117 25 155 c 1,54,-1
 57 329 l 1,55,56
 69 357 69 357 93.5 382.5 c 128,-1,57
 118 408 118 408 149.5 427.5 c 128,-1,58
 181 447 181 447 216 458 c 128,-1,59
 251 469 251 469 282 469 c 0,60,61
 310 469 310 469 338.5 461.5 c 128,-1,62
 367 454 367 454 390 442 c 1,63,-1
 395 469 l 1,64,-1
 558 469 l 1,65,-1
 481 -3 l 1,0,1
EndSplineSet
EndChar

StartChar: h
Encoding: 104 104 93
Width: 628
Flags: W
LayerCount: 2
Fore
SplineSet
553 0 m 1,0,-1
 366 0 l 1,1,-1
 413 267 l 2,2,3
 417 293 417 293 404 311 c 128,-1,4
 391 329 391 329 365 328 c 0,5,6
 330 327 330 327 309 312 c 128,-1,7
 288 297 288 297 275.5 274 c 128,-1,8
 263 251 263 251 257 223.5 c 128,-1,9
 251 196 251 196 247 170 c 2,10,-1
 219 0 l 1,11,-1
 38 0 l 1,12,-1
 145 666 l 1,13,-1
 325 666 l 1,14,-1
 282 395 l 1,15,16
 305 408 305 408 328.5 421 c 128,-1,17
 352 434 352 434 375.5 444.5 c 128,-1,18
 399 455 399 455 424 461.5 c 128,-1,19
 449 468 449 468 475 468 c 0,20,21
 532 468 532 468 570 435 c 128,-1,22
 608 402 608 402 609 342 c 1,23,-1
 553 0 l 1,0,-1
EndSplineSet
EndChar

StartChar: i
Encoding: 105 105 94
Width: 354
Flags: W
LayerCount: 2
Fore
SplineSet
303 469 m 1,0,-1
 242 469 l 1,1,-1
 239 445 l 1,2,-1
 298 445 l 1,3,-1
 220 0 l 1,4,-1
 59 0 l 1,5,-1
 134 446 l 1,6,-1
 195 446 l 1,7,-1
 199 469 l 1,8,-1
 138 469 l 1,9,-1
 157 594 l 1,10,-1
 321 594 l 1,11,-1
 303 469 l 1,0,-1
EndSplineSet
EndChar

StartChar: j
Encoding: 106 106 95
Width: 377
Flags: W
LayerCount: 2
Fore
SplineSet
332 469 m 1,0,-1
 307 469 l 2,1,2
 296 469 296 469 285.5 468.5 c 128,-1,3
 275 468 275 468 267 469 c 1,4,-1
 263 445 l 1,5,-1
 327 445 l 1,6,-1
 259 36 l 2,7,8
 250 -20 250 -20 223.5 -64 c 128,-1,9
 197 -108 197 -108 158 -138 c 128,-1,10
 119 -168 119 -168 70 -183.5 c 128,-1,11
 21 -199 21 -199 -33 -200 c 1,12,-1
 -89 -200 l 1,13,-1
 -75 -130 l 1,14,15
 2 -123 2 -123 35.5 -86.5 c 128,-1,16
 69 -50 69 -50 80 24 c 0,17,18
 83 45 83 45 87.5 74.5 c 128,-1,19
 92 104 92 104 97.5 137.5 c 128,-1,20
 103 171 103 171 108.5 207 c 128,-1,21
 114 243 114 243 120 277 c 0,22,23
 132 357 132 357 147 446 c 1,24,-1
 215 446 l 1,25,-1
 219 468 l 1,26,-1
 151 468 l 1,27,-1
 172 594 l 1,28,-1
 350 594 l 1,29,-1
 332 469 l 1,0,-1
EndSplineSet
EndChar

StartChar: k
Encoding: 107 107 96
Width: 571
Flags: W
LayerCount: 2
Fore
SplineSet
553 316 m 1,0,1
 518 290 518 290 483.5 262 c 128,-1,2
 449 234 449 234 417 205 c 1,3,4
 423 197 423 197 432 184 c 128,-1,5
 441 171 441 171 452 155.5 c 128,-1,6
 463 140 463 140 476 122 c 128,-1,7
 489 104 489 104 501 87 c 0,8,9
 530 47 530 47 563 0 c 1,10,-1
 446 0 l 1,11,-1
 259 243 l 1,12,-1
 215 0 l 1,13,-1
 33 0 l 1,14,-1
 143 666 l 1,15,-1
 328 666 l 1,16,-1
 282 366 l 1,17,-1
 311 337 l 1,18,-1
 455 445 l 1,19,20
 481 411 481 411 504.5 378.5 c 128,-1,21
 528 346 528 346 553 316 c 1,0,1
EndSplineSet
EndChar

StartChar: l
Encoding: 108 108 97
Width: 374
Flags: W
LayerCount: 2
Fore
SplineSet
339 23 m 1,0,1
 310 14 310 14 282.5 7 c 128,-1,2
 255 0 255 0 223 -1 c 0,3,4
 197 -1 197 -1 166 3 c 128,-1,5
 135 7 135 7 106.5 20.5 c 128,-1,6
 78 34 78 34 56 60.5 c 128,-1,7
 34 87 34 87 26 131 c 1,8,-1
 25 177 l 1,9,10
 31 211 31 211 38.5 250 c 128,-1,11
 46 289 46 289 53.5 330 c 128,-1,12
 61 371 61 371 68.5 411.5 c 128,-1,13
 76 452 76 452 83 490 c 0,14,15
 99 577 99 577 116 666 c 1,16,-1
 300 666 l 1,17,-1
 201 181 l 2,18,19
 189 119 189 119 211 92.5 c 128,-1,20
 233 66 233 66 299 67 c 0,21,22
 310 67 310 67 323.5 70 c 128,-1,23
 337 73 337 73 348 75 c 1,24,-1
 339 23 l 1,0,1
EndSplineSet
EndChar

StartChar: m
Encoding: 109 109 98
Width: 955
Flags: W
LayerCount: 2
Fore
SplineSet
923 359 m 0,0,1
 922 353 922 353 918 334 c 128,-1,2
 914 315 914 315 909 288.5 c 128,-1,3
 904 262 904 262 897.5 230.5 c 128,-1,4
 891 199 891 199 884 167 c 0,5,6
 868 91 868 91 849 0 c 1,7,-1
 668 0 l 1,8,-1
 732 304 l 2,9,10
 737 330 737 330 723.5 348 c 128,-1,11
 710 366 710 366 682 364 c 1,12,13
 649 363 649 363 623.5 346 c 128,-1,14
 598 329 598 329 590 296 c 1,15,-1
 529 0 l 1,16,-1
 351 0 l 1,17,18
 360 45 360 45 369 87 c 0,19,20
 377 122 377 122 384.5 160 c 128,-1,21
 392 198 392 198 397 222 c 0,22,23
 400 241 400 241 405 265 c 128,-1,24
 410 289 410 289 408.5 310.5 c 128,-1,25
 407 332 407 332 396 347 c 128,-1,26
 385 362 385 362 356 362 c 0,27,28
 309 362 309 362 288 334.5 c 128,-1,29
 267 307 267 307 258 261 c 2,30,-1
 209 0 l 1,31,-1
 46 0 l 1,32,-1
 129 469 l 1,33,-1
 308 469 l 1,34,-1
 299 416 l 1,35,36
 332 439 332 439 371.5 453 c 128,-1,37
 411 467 411 467 453 469 c 0,38,39
 475 470 475 470 496.5 468.5 c 128,-1,40
 518 467 518 467 536.5 460 c 128,-1,41
 555 453 555 453 570 439 c 128,-1,42
 585 425 585 425 595 403 c 1,43,44
 601 408 601 408 621.5 419 c 128,-1,45
 642 430 642 430 671.5 441 c 128,-1,46
 701 452 701 452 738 460.5 c 128,-1,47
 775 469 775 469 814 469 c 0,48,49
 837 469 837 469 858.5 461.5 c 128,-1,50
 880 454 880 454 896 439.5 c 128,-1,51
 912 425 912 425 919.5 404.5 c 128,-1,52
 927 384 927 384 923 359 c 0,0,1
EndSplineSet
EndChar

StartChar: n
Encoding: 110 110 99
Width: 643
Flags: W
LayerCount: 2
Fore
SplineSet
567 0 m 1,0,-1
 368 0 l 1,1,-1
 426 323 l 2,2,3
 431 351 431 351 418 363.5 c 128,-1,4
 405 376 405 376 381 376 c 0,5,6
 339 376 339 376 312 356.5 c 128,-1,7
 285 337 285 337 280 315 c 0,8,9
 276 297 276 297 271.5 274 c 128,-1,10
 267 251 267 251 262 225.5 c 128,-1,11
 257 200 257 200 252 173.5 c 128,-1,12
 247 147 247 147 243 122 c 0,13,14
 232 63 232 63 222 0 c 1,15,-1
 47 0 l 1,16,-1
 132 469 l 1,17,-1
 308 469 l 1,18,-1
 298 411 l 1,19,20
 313 424 313 424 338.5 435 c 128,-1,21
 364 446 364 446 393.5 454.5 c 128,-1,22
 423 463 423 463 451 467.5 c 128,-1,23
 479 472 479 472 498 472 c 0,24,25
 526 472 526 472 550 466 c 128,-1,26
 574 460 574 460 590.5 446.5 c 128,-1,27
 607 433 607 433 615 412 c 128,-1,28
 623 391 623 391 619 361 c 2,29,-1
 567 0 l 1,0,-1
EndSplineSet
EndChar

StartChar: o
Encoding: 111 111 100
Width: 500
Flags: W
LayerCount: 2
Fore
SplineSet
326 472 m 1,0,1
 337 472 337 472 362.5 467.5 c 128,-1,2
 388 463 388 463 414.5 450 c 128,-1,3
 441 437 441 437 461 415.5 c 128,-1,4
 481 394 481 394 482 361 c 0,5,6
 482 350 482 350 478.5 327 c 128,-1,7
 475 304 475 304 470.5 277.5 c 128,-1,8
 466 251 466 251 461 226 c 128,-1,9
 456 201 456 201 453 188 c 0,10,11
 446 159 446 159 425.5 126 c 128,-1,12
 405 93 405 93 370 64.5 c 128,-1,13
 335 36 335 36 285 17.5 c 128,-1,14
 235 -1 235 -1 169 -1 c 0,15,16
 121 -1 121 -1 92.5 12 c 128,-1,17
 64 25 64 25 50 43.5 c 128,-1,18
 36 62 36 62 31.5 81.5 c 128,-1,19
 27 101 27 101 27 114 c 0,20,21
 26 128 26 128 31 159 c 128,-1,22
 36 190 36 190 41 222 c 0,23,24
 47 260 47 260 56 304 c 1,25,26
 71 341 71 341 97.5 368.5 c 128,-1,27
 124 396 124 396 156 416 c 128,-1,28
 188 436 188 436 223 449 c 128,-1,29
 258 462 258 462 289 468 c 1,30,-1
 267 342 l 1,31,32
 262 338 262 338 258 333 c 128,-1,33
 254 328 254 328 250 320 c 0,34,35
 242 305 242 305 236 284 c 128,-1,36
 230 263 230 263 225.5 242 c 128,-1,37
 221 221 221 221 218 203 c 128,-1,38
 215 185 215 185 214 175 c 0,39,40
 213 171 213 171 213.5 166 c 128,-1,41
 214 161 214 161 218 156.5 c 128,-1,42
 222 152 222 152 231 148.5 c 128,-1,43
 240 145 240 145 257 145 c 0,44,45
 300 145 300 145 321 161 c 128,-1,46
 342 177 342 177 347 189 c 0,47,48
 349 195 349 195 353.5 212.5 c 128,-1,49
 358 230 358 230 362.5 250 c 128,-1,50
 367 270 367 270 371 289 c 128,-1,51
 375 308 375 308 377 316 c 0,52,53
 380 332 380 332 371.5 347.5 c 128,-1,54
 363 363 363 363 337 363 c 0,55,56
 320 363 320 363 309 360 c 128,-1,57
 298 357 298 357 291 354 c 0,58,59
 283 350 283 350 278 346 c 1,60,-1
 299 469 l 1,61,-1
 326 472 l 1,0,1
EndSplineSet
EndChar

StartChar: p
Encoding: 112 112 101
Width: 631
Flags: W
LayerCount: 2
Fore
SplineSet
297 469 m 1,0,-1
 288 417 l 1,1,2
 300 422 300 422 318 431 c 128,-1,3
 336 440 336 440 356.5 448.5 c 128,-1,4
 377 457 377 457 398.5 463.5 c 128,-1,5
 420 470 420 470 440 470 c 0,6,7
 468 470 468 470 494.5 462 c 128,-1,8
 521 454 521 454 542 439.5 c 128,-1,9
 563 425 563 425 576.5 405 c 128,-1,10
 590 385 590 385 591 361 c 0,11,12
 592 350 592 350 589.5 324.5 c 128,-1,13
 587 299 587 299 583 270.5 c 128,-1,14
 579 242 579 242 575 216.5 c 128,-1,15
 571 191 571 191 569 180 c 0,16,17
 560 140 560 140 538.5 106.5 c 128,-1,18
 517 73 517 73 486 49 c 128,-1,19
 455 25 455 25 416 12 c 128,-1,20
 377 -1 377 -1 335 -1 c 0,21,22
 319 -1 319 -1 301 1 c 128,-1,23
 283 3 283 3 267 6 c 0,24,25
 249 9 249 9 231 13 c 1,26,-1
 244 94 l 1,27,28
 248 91 248 91 254 89 c 0,29,30
 259 87 259 87 267 86 c 128,-1,31
 275 85 275 85 286 86 c 0,32,33
 301 87 301 87 317.5 95 c 128,-1,34
 334 103 334 103 349 118.5 c 128,-1,35
 364 134 364 134 375.5 156 c 128,-1,36
 387 178 387 178 393 207 c 0,37,38
 394 212 394 212 396.5 224.5 c 128,-1,39
 399 237 399 237 401.5 251.5 c 128,-1,40
 404 266 404 266 405.5 278.5 c 128,-1,41
 407 291 407 291 407 296 c 0,42,43
 406 307 406 307 393 317 c 128,-1,44
 380 327 380 327 359 325 c 0,45,46
 319 323 319 323 293.5 305 c 128,-1,47
 268 287 268 287 263 262 c 0,48,49
 262 259 262 259 258.5 238 c 128,-1,50
 255 217 255 217 249 184 c 128,-1,51
 243 151 243 151 235.5 110 c 128,-1,52
 228 69 228 69 221 26 c 0,53,54
 203 -74 203 -74 182 -200 c 1,55,-1
 11 -200 l 1,56,-1
 126 469 l 1,57,-1
 297 469 l 1,0,-1
EndSplineSet
EndChar

StartChar: q
Encoding: 113 113 102
Width: 611
Flags: W
LayerCount: 2
Fore
SplineSet
573 468 m 1,0,-1
 469 -200 l 1,1,-1
 297 -201 l 1,2,3
 320 -52 320 -52 338 67 c 0,4,5
 346 117 346 117 353.5 165.5 c 128,-1,6
 361 214 361 214 367 252.5 c 128,-1,7
 373 291 373 291 376.5 315.5 c 128,-1,8
 380 340 380 340 380 342 c 0,9,10
 379 349 379 349 364 360 c 128,-1,11
 349 371 349 371 328 371 c 0,12,13
 310 371 310 371 296 365 c 128,-1,14
 282 359 282 359 272 350 c 128,-1,15
 262 341 262 341 256 330 c 128,-1,16
 250 319 250 319 249 309 c 0,17,18
 243 278 243 278 238 251 c 0,19,20
 233 228 233 228 229.5 205.5 c 128,-1,21
 226 183 226 183 227 172 c 1,22,23
 227 160 227 160 233 152 c 128,-1,24
 239 144 239 144 246.5 139.5 c 128,-1,25
 254 135 254 135 262.5 133 c 128,-1,26
 271 131 271 131 277 131 c 0,27,28
 288 131 288 131 299 136 c 128,-1,29
 310 141 310 141 320 148 c 0,30,31
 331 156 331 156 342 166 c 1,32,-1
 324 50 l 1,33,34
 310 40 310 40 296 30 c 128,-1,35
 282 20 282 20 265.5 11.5 c 128,-1,36
 249 3 249 3 229 -3 c 128,-1,37
 209 -9 209 -9 182 -10 c 0,38,39
 158 -11 158 -11 131 -3 c 128,-1,40
 104 5 104 5 82 20 c 128,-1,41
 60 35 60 35 45.5 56.5 c 128,-1,42
 31 78 31 78 31 104 c 0,43,44
 31 110 31 110 33 123 c 128,-1,45
 35 136 35 136 38 153 c 128,-1,46
 41 170 41 170 45 190.5 c 128,-1,47
 49 211 49 211 53 232 c 0,48,49
 63 280 63 280 75 337 c 1,50,51
 87 368 87 368 109 392.5 c 128,-1,52
 131 417 131 417 157.5 434 c 128,-1,53
 184 451 184 451 213 460 c 128,-1,54
 242 469 242 469 269 469 c 0,55,56
 295 469 295 469 313.5 465.5 c 128,-1,57
 332 462 332 462 346 457 c 128,-1,58
 360 452 360 452 371.5 446.5 c 128,-1,59
 383 441 383 441 395 436 c 1,60,-1
 402 469 l 1,61,-1
 573 468 l 1,0,-1
EndSplineSet
EndChar

StartChar: r
Encoding: 114 114 103
Width: 552
Flags: W
LayerCount: 2
Fore
SplineSet
544 346 m 1,0,1
 512 317 512 317 478.5 288.5 c 128,-1,2
 445 260 445 260 413 231 c 1,3,4
 419 244 419 244 425 268 c 128,-1,5
 431 292 431 292 430.5 316 c 128,-1,6
 430 340 430 340 420 357.5 c 128,-1,7
 410 375 410 375 383 375 c 0,8,9
 347 375 347 375 322.5 358.5 c 128,-1,10
 298 342 298 342 281.5 316.5 c 128,-1,11
 265 291 265 291 255.5 260 c 128,-1,12
 246 229 246 229 240 199 c 2,13,-1
 204 0 l 1,14,-1
 31 0 l 1,15,-1
 108 469 l 1,16,-1
 291 469 l 1,17,-1
 283 419 l 1,18,19
 299 426 299 426 315 434.5 c 128,-1,20
 331 443 331 443 347.5 450.5 c 128,-1,21
 364 458 364 458 382 463.5 c 128,-1,22
 400 469 400 469 421 469 c 0,23,24
 444 469 444 469 459 465.5 c 128,-1,25
 474 462 474 462 485 454.5 c 128,-1,26
 496 447 496 447 505 436.5 c 128,-1,27
 514 426 514 426 525 412 c 1,28,29
 535 396 535 396 539 380 c 128,-1,30
 543 364 543 364 544 346 c 1,0,1
EndSplineSet
EndChar

StartChar: s
Encoding: 115 115 104
Width: 489
Flags: W
LayerCount: 2
Fore
SplineSet
468 404 m 0,0,1
 474 390 474 390 476 374.5 c 128,-1,2
 478 359 478 359 474 346.5 c 128,-1,3
 470 334 470 334 459 325 c 128,-1,4
 448 316 448 316 429 315 c 0,5,6
 413 314 413 314 403.5 324 c 128,-1,7
 394 334 394 334 386 346 c 128,-1,8
 378 358 378 358 369 368 c 128,-1,9
 360 378 360 378 344 377 c 0,10,11
 327 376 327 376 309.5 365 c 128,-1,12
 292 354 292 354 287 337 c 1,13,14
 286 327 286 327 292 319.5 c 128,-1,15
 298 312 298 312 305 307 c 1,16,17
 326 300 326 300 352.5 290.5 c 128,-1,18
 379 281 379 281 402 265.5 c 128,-1,19
 425 250 425 250 439 227 c 128,-1,20
 453 204 453 204 449 170 c 1,21,22
 432 79 432 79 363.5 39.5 c 128,-1,23
 295 0 295 0 192 0 c 0,24,25
 165 0 165 0 138.5 5.5 c 128,-1,26
 112 11 112 11 90.5 24.5 c 128,-1,27
 69 38 69 38 55 59.5 c 128,-1,28
 41 81 41 81 39 113 c 0,29,30
 37 155 37 155 58 182.5 c 128,-1,31
 79 210 79 210 121 215 c 0,32,33
 152 219 152 219 173.5 208 c 128,-1,34
 195 197 195 197 213.5 182.5 c 128,-1,35
 232 168 232 168 251 156.5 c 128,-1,36
 270 145 270 145 297 147 c 0,37,38
 312 149 312 149 321.5 161.5 c 128,-1,39
 331 174 331 174 334 187 c 0,40,41
 339 208 339 208 323 222 c 1,42,43
 313 229 313 229 289 232.5 c 128,-1,44
 265 236 265 236 237 238.5 c 128,-1,45
 209 241 209 241 183 244.5 c 128,-1,46
 157 248 157 248 143 254 c 0,47,48
 132 259 132 259 121 266.5 c 128,-1,49
 110 274 110 274 101 283.5 c 128,-1,50
 92 293 92 293 87 304.5 c 128,-1,51
 82 316 82 316 84 329 c 0,52,53
 89 359 89 359 113 385 c 128,-1,54
 137 411 137 411 172.5 429.5 c 128,-1,55
 208 448 208 448 251 458.5 c 128,-1,56
 294 469 294 469 337 469 c 0,57,58
 357 469 357 469 377 465.5 c 128,-1,59
 397 462 397 462 415 454.5 c 128,-1,60
 433 447 433 447 446.5 434.5 c 128,-1,61
 460 422 460 422 468 404 c 0,0,1
EndSplineSet
EndChar

StartChar: t
Encoding: 116 116 105
Width: 469
Flags: W
LayerCount: 2
Fore
SplineSet
461 340 m 1,0,-1
 317 340 l 1,1,-1
 265 0 l 1,2,-1
 101 0 l 1,3,-1
 155 319 l 1,4,-1
 33 320 l 1,5,-1
 52 431 l 1,6,-1
 169 431 l 1,7,8
 174 440 174 440 177 453 c 128,-1,9
 180 466 180 466 191 473 c 0,10,11
 239 502 239 502 273 541 c 128,-1,12
 307 580 307 580 333 625 c 1,13,14
 345 641 345 641 363 644 c 1,15,-1
 329 447 l 1,16,-1
 477 448 l 1,17,-1
 461 340 l 1,0,-1
EndSplineSet
EndChar

StartChar: u
Encoding: 117 117 106
Width: 608
Flags: W
LayerCount: 2
Fore
SplineSet
507 0 m 1,0,-1
 331 0 l 1,1,-1
 339 47 l 1,2,3
 323 40 323 40 305.5 32 c 128,-1,4
 288 24 288 24 267.5 16.5 c 128,-1,5
 247 9 247 9 223 4 c 128,-1,6
 199 -1 199 -1 170 -1 c 0,7,8
 126 -1 126 -1 100 11.5 c 128,-1,9
 74 24 74 24 60.5 44.5 c 128,-1,10
 47 65 47 65 44.5 90 c 128,-1,11
 42 115 42 115 45 140 c 0,12,13
 46 144 46 144 48.5 160.5 c 128,-1,14
 51 177 51 177 55 201 c 128,-1,15
 59 225 59 225 64 254 c 128,-1,16
 69 283 69 283 74 313 c 0,17,18
 85 383 85 383 99 469 c 1,19,-1
 183 469 l 1,20,-1
 283 469 l 1,21,22
 283 469 283 469 279 448 c 128,-1,23
 275 427 275 427 269 395 c 128,-1,24
 263 363 263 363 256 325.5 c 128,-1,25
 249 288 249 288 242.5 254 c 128,-1,26
 236 220 236 220 231 194.5 c 128,-1,27
 226 169 226 169 225 162 c 0,28,29
 221 133 221 133 238.5 124.5 c 128,-1,30
 256 116 256 116 281 116 c 0,31,32
 289 116 289 116 301 121 c 128,-1,33
 313 126 313 126 325 134 c 128,-1,34
 337 142 337 142 346 153 c 128,-1,35
 355 164 355 164 358 175 c 0,36,37
 359 182 359 182 362.5 198.5 c 128,-1,38
 366 215 366 215 370 237 c 128,-1,39
 374 259 374 259 379 285 c 128,-1,40
 384 311 384 311 389 337 c 0,41,42
 400 398 400 398 415 469 c 1,43,-1
 582 469 l 1,44,-1
 507 0 l 1,0,-1
EndSplineSet
EndChar

StartChar: v
Encoding: 118 118 107
Width: 518
Flags: W
LayerCount: 2
Fore
SplineSet
240 0 m 1,0,-1
 69 0 l 1,1,-1
 28 469 l 1,2,-1
 185 469 l 1,3,4
 193 406 193 406 199 351 c 0,5,6
 204 304 204 304 209.5 259 c 128,-1,7
 215 214 215 214 217 194 c 1,8,9
 221 197 221 197 232 211 c 128,-1,10
 243 225 243 225 259 245 c 128,-1,11
 275 265 275 265 294 289.5 c 128,-1,12
 313 314 313 314 332 339 c 0,13,14
 377 397 377 397 432 469 c 1,15,-1
 576 469 l 1,16,-1
 240 0 l 1,0,-1
EndSplineSet
EndChar

StartChar: w
Encoding: 119 119 108
Width: 905
Flags: W
LayerCount: 2
Fore
SplineSet
589 0 m 1,0,-1
 407 0 l 1,1,-1
 388 161 l 1,2,-1
 240 0 l 1,3,-1
 47 0 l 1,4,-1
 31 469 l 1,5,-1
 209 469 l 1,6,-1
 227 199 l 1,7,-1
 441 469 l 1,8,-1
 550 469 l 1,9,10
 551 410 551 410 553 355 c 0,11,12
 554 332 554 332 554.5 307 c 128,-1,13
 555 282 555 282 556 259 c 128,-1,14
 557 236 557 236 558 215.5 c 128,-1,15
 559 195 559 195 560 180 c 1,16,17
 564 184 564 184 576 198 c 128,-1,18
 588 212 588 212 605.5 233 c 128,-1,19
 623 254 623 254 643 280 c 128,-1,20
 663 306 663 306 684 332 c 0,21,22
 732 394 732 394 791 469 c 1,23,-1
 945 469 l 1,24,-1
 589 0 l 1,0,-1
EndSplineSet
EndChar

StartChar: x
Encoding: 120 120 109
Width: 551
Flags: W
LayerCount: 2
Fore
SplineSet
352 258 m 1,0,-1
 469 0 l 1,1,-1
 282 0 l 1,2,-1
 223 131 l 1,3,-1
 85 0 l 1,4,-1
 -68 0 l 1,5,-1
 171 234 l 1,6,-1
 60 469 l 1,7,-1
 246 469 l 1,8,-1
 303 358 l 1,9,-1
 418 469 l 1,10,-1
 570 469 l 1,11,-1
 352 258 l 1,0,-1
EndSplineSet
EndChar

StartChar: y
Encoding: 121 121 110
Width: 651
Flags: W
LayerCount: 2
Fore
SplineSet
526 -52 m 2,0,1
 520 -86 520 -86 499.5 -113.5 c 128,-1,2
 479 -141 479 -141 449.5 -160.5 c 128,-1,3
 420 -180 420 -180 385 -190.5 c 128,-1,4
 350 -201 350 -201 314 -201 c 0,5,6
 247 -201 247 -201 181.5 -182.5 c 128,-1,7
 116 -164 116 -164 57 -132 c 1,8,9
 56 -120 56 -120 59 -108 c 128,-1,10
 62 -96 62 -96 63 -83 c 1,11,12
 98 -91 98 -91 135.5 -100 c 128,-1,13
 173 -109 173 -109 214 -106 c 0,14,15
 260 -103 260 -103 289 -95 c 128,-1,16
 318 -87 318 -87 335.5 -70.5 c 128,-1,17
 353 -54 353 -54 360.5 -27.5 c 128,-1,18
 368 -1 368 -1 371 39 c 1,19,20
 333 15 333 15 296.5 -3 c 128,-1,21
 260 -21 260 -21 215 -24 c 0,22,23
 182 -26 182 -26 151 -19.5 c 128,-1,24
 120 -13 120 -13 95 3.5 c 128,-1,25
 70 20 70 20 53.5 45.5 c 128,-1,26
 37 71 37 71 35 106 c 1,27,-1
 93 469 l 1,28,-1
 271 469 l 1,29,30
 260 408 260 408 249 351 c 0,31,32
 244 327 244 327 239.5 301 c 128,-1,33
 235 275 235 275 231 250 c 128,-1,34
 227 225 227 225 223.5 203 c 128,-1,35
 220 181 220 181 217 163 c 0,36,37
 215 150 215 150 220.5 140 c 128,-1,38
 226 130 226 130 235 123 c 128,-1,39
 244 116 244 116 255.5 112.5 c 128,-1,40
 267 109 267 109 278 109 c 0,41,42
 320 109 320 109 350 136 c 128,-1,43
 380 163 380 163 387 207 c 2,44,-1
 429 469 l 1,45,-1
 615 469 l 1,46,-1
 526 -52 l 2,0,1
EndSplineSet
EndChar

StartChar: z
Encoding: 122 122 111
Width: 601
Flags: W
LayerCount: 2
Fore
SplineSet
538 366 m 1,0,-1
 318 108 l 1,1,-1
 484 108 l 1,2,-1
 464 0 l 1,3,-1
 31 0 l 1,4,-1
 45 78 l 1,5,-1
 284 353 l 1,6,-1
 91 353 l 1,7,-1
 108 469 l 1,8,-1
 553 469 l 1,9,-1
 538 366 l 1,0,-1
EndSplineSet
EndChar

StartChar: braceleft
Encoding: 123 123 112
Width: 391
Flags: W
LayerCount: 2
Fore
SplineSet
285 503 m 0,0,1
 282 487 282 487 272 469.5 c 128,-1,2
 262 452 262 452 248 435 c 128,-1,3
 234 418 234 418 217 402 c 128,-1,4
 200 386 200 386 182 373 c 1,5,6
 192 354 192 354 203.5 333 c 128,-1,7
 215 312 215 312 224 292 c 128,-1,8
 233 272 233 272 238 255 c 128,-1,9
 243 238 243 238 241 228 c 0,10,11
 238 215 238 215 236.5 207.5 c 128,-1,12
 235 200 235 200 234 193.5 c 128,-1,13
 233 187 233 187 232 180.5 c 128,-1,14
 231 174 231 174 229 162 c 0,15,16
 225 133 225 133 238.5 113.5 c 128,-1,17
 252 94 252 94 268 85 c 1,18,-1
 247 -68 l 1,19,20
 199 -52 199 -52 162 -23 c 0,21,22
 130 2 130 2 105.5 43.5 c 128,-1,23
 81 85 81 85 86 147 c 0,24,25
 88 162 88 162 91 176 c 0,26,27
 93 188 93 188 95 199.5 c 128,-1,28
 97 211 97 211 99 219 c 0,29,30
 101 234 101 234 94 255 c 128,-1,31
 87 276 87 276 76 297.5 c 128,-1,32
 65 319 65 319 51.5 339.5 c 128,-1,33
 38 360 38 360 26 374 c 1,34,35
 39 384 39 384 58 400 c 128,-1,36
 77 416 77 416 95.5 435 c 128,-1,37
 114 454 114 454 128 473.5 c 128,-1,38
 142 493 142 493 146 510 c 1,39,-1
 160 598 l 2,40,41
 165 629 165 629 177 652 c 128,-1,42
 189 675 189 675 205 692 c 128,-1,43
 221 709 221 709 240 720.5 c 128,-1,44
 259 732 259 732 279 740 c 0,45,46
 324 758 324 758 379 760 c 1,47,-1
 353 615 l 1,48,49
 339 611 339 611 319.5 594.5 c 128,-1,50
 300 578 300 578 291 546 c 1,51,52
 290 538 290 538 289 530 c 0,53,54
 288 523 288 523 287 515.5 c 128,-1,55
 286 508 286 508 285 503 c 0,0,1
EndSplineSet
EndChar

StartChar: bar
Encoding: 124 124 113
Width: 341
Flags: W
LayerCount: 2
Fore
SplineSet
290 666 m 1,0,-1
 181 0 l 1,1,-1
 39 0 l 1,2,-1
 150 666 l 1,3,-1
 290 666 l 1,0,-1
EndSplineSet
EndChar

StartChar: braceright
Encoding: 125 125 114
Width: 391
Flags: W
LayerCount: 2
Fore
SplineSet
121 189 m 0,0,1
 124 205 124 205 134 222.5 c 128,-1,2
 144 240 144 240 158 257 c 128,-1,3
 172 274 172 274 189 290.5 c 128,-1,4
 206 307 206 307 224 320 c 1,5,6
 213 339 213 339 202 360 c 128,-1,7
 191 381 191 381 182 400.5 c 128,-1,8
 173 420 173 420 168 436.5 c 128,-1,9
 163 453 163 453 165 464 c 0,10,11
 167 477 167 477 168.5 484.5 c 128,-1,12
 170 492 170 492 171.5 498.5 c 128,-1,13
 173 505 173 505 174 511.5 c 128,-1,14
 175 518 175 518 177 530 c 0,15,16
 181 559 181 559 167 578.5 c 128,-1,17
 153 598 153 598 138 607 c 1,18,-1
 159 760 l 1,19,20
 207 744 207 744 244 715 c 0,21,22
 260 703 260 703 274.5 686.5 c 128,-1,23
 289 670 289 670 300 649 c 128,-1,24
 311 628 311 628 316.5 602 c 128,-1,25
 322 576 322 576 320 545 c 1,26,27
 318 530 318 530 315 516 c 0,28,29
 313 504 313 504 311 492 c 128,-1,30
 309 480 309 480 307 473 c 1,31,32
 305 458 305 458 312 437 c 128,-1,33
 319 416 319 416 330 394.5 c 128,-1,34
 341 373 341 373 354.5 352.5 c 128,-1,35
 368 332 368 332 380 318 c 1,36,37
 367 308 367 308 348 292 c 128,-1,38
 329 276 329 276 310.5 257 c 128,-1,39
 292 238 292 238 278 218.5 c 128,-1,40
 264 199 264 199 260 182 c 1,41,-1
 246 94 l 2,42,43
 241 63 241 63 229 39.5 c 128,-1,44
 217 16 217 16 200.5 -1 c 128,-1,45
 184 -18 184 -18 165 -30 c 128,-1,46
 146 -42 146 -42 127 -49 c 0,47,48
 81 -67 81 -67 27 -68 c 1,49,-1
 52 77 l 1,50,51
 66 81 66 81 86 97.5 c 128,-1,52
 106 114 106 114 115 147 c 0,53,54
 116 154 116 154 117 162 c 0,55,56
 118 169 118 169 118.5 176 c 128,-1,57
 119 183 119 183 121 189 c 0,0,1
EndSplineSet
EndChar

StartChar: asciitilde
Encoding: 126 126 115
Width: 446
Flags: W
LayerCount: 2
Fore
SplineSet
75 259 m 1,0,1
 84 265 84 265 99.5 269.5 c 128,-1,2
 115 274 115 274 130.5 277 c 128,-1,3
 146 280 146 280 159 281.5 c 128,-1,4
 172 283 172 283 176 283 c 0,5,6
 196 283 196 283 216.5 279 c 128,-1,7
 237 275 237 275 258 270 c 128,-1,8
 279 265 279 265 301 261 c 128,-1,9
 323 257 323 257 346 257 c 0,10,11
 366 257 366 257 378.5 265 c 128,-1,12
 391 273 391 273 402 279 c 1,13,-1
 380 147 l 1,14,15
 366 142 366 142 355 138 c 0,16,17
 344 135 344 135 334 132.5 c 128,-1,18
 324 130 324 130 317 130 c 0,19,20
 299 130 299 130 279 134.5 c 128,-1,21
 259 139 259 139 237.5 145 c 128,-1,22
 216 151 216 151 193.5 155.5 c 128,-1,23
 171 160 171 160 150 160 c 256,24,25
 129 160 129 160 111.5 156 c 128,-1,26
 94 152 94 152 81 147 c 0,27,28
 66 141 66 141 54 134 c 1,29,-1
 75 259 l 1,0,1
EndSplineSet
EndChar

StartChar: exclamdown
Encoding: 161 161 181
Width: 341
Flags: W
LayerCount: 2
Fore
SplineSet
47 0 m 1,0,-1
 123 481 l 1,1,-1
 266 481 l 1,2,-1
 188 0 l 1,3,-1
 47 0 l 1,0,-1
134 532 m 1,4,-1
 155 666 l 1,5,-1
 295 666 l 1,6,-1
 271 532 l 1,7,-1
 134 532 l 1,4,-1
EndSplineSet
EndChar

StartChar: cent
Encoding: 162 162 150
Width: 511
Flags: W
LayerCount: 2
Fore
SplineSet
84 37 m 1,0,1
 52 64 52 64 42 98 c 0,2,3
 40 105 40 105 38.5 119.5 c 128,-1,4
 37 134 37 134 39 145 c 0,5,6
 44 171 44 171 48 198 c 0,7,8
 52 221 52 221 56.5 248 c 128,-1,9
 61 275 61 275 65 299 c 0,10,11
 69 322 69 322 81.5 341.5 c 128,-1,12
 94 361 94 361 108 376 c 0,13,14
 133 401 133 401 171.5 426 c 128,-1,15
 210 451 210 451 257 463 c 1,16,-1
 306 581 l 1,17,-1
 448 532 l 1,18,-1
 417 452 l 1,19,20
 435 443 435 443 447.5 430.5 c 128,-1,21
 460 418 460 418 468 403 c 0,22,23
 483 377 483 377 481 350.5 c 128,-1,24
 479 324 479 324 465 315 c 0,25,26
 445 302 445 302 431.5 311 c 128,-1,27
 418 320 418 320 410 331 c 1,28,29
 402 348 402 348 385.5 365.5 c 128,-1,30
 369 383 369 383 343 383 c 0,31,32
 337 383 337 383 326 382 c 128,-1,33
 315 381 315 381 303.5 376.5 c 128,-1,34
 292 372 292 372 281.5 363.5 c 128,-1,35
 271 355 271 355 265 340 c 1,36,37
 254 304 254 304 245 269.5 c 128,-1,38
 236 235 236 235 236 197 c 0,39,40
 236 189 236 189 237 181 c 128,-1,41
 238 173 238 173 242.5 166.5 c 128,-1,42
 247 160 247 160 256 155.5 c 128,-1,43
 265 151 265 151 280 151 c 0,44,45
 309 151 309 151 332 167.5 c 128,-1,46
 355 184 355 184 378 203 c 1,47,48
 393 210 393 210 408 208.5 c 128,-1,49
 423 207 423 207 433.5 198.5 c 128,-1,50
 444 190 444 190 448.5 176.5 c 128,-1,51
 453 163 453 163 447 148 c 1,52,53
 412 85 412 85 356.5 49 c 128,-1,54
 301 13 301 13 234 3 c 1,55,-1
 200 -86 l 1,56,-1
 54 -36 l 1,57,-1
 84 37 l 1,58,-1
 84 37 l 1,0,1
EndSplineSet
EndChar

StartChar: sterling
Encoding: 163 163 151
Width: 556
Flags: W
LayerCount: 2
Fore
SplineSet
93 271 m 1,0,-1
 96 288 l 1,1,-1
 42 288 l 1,2,-1
 59 393 l 1,3,-1
 113 393 l 1,4,-1
 129 487 l 2,5,6
 133 514 133 514 148.5 545.5 c 128,-1,7
 164 577 164 577 192 604 c 128,-1,8
 220 631 220 631 262 648.5 c 128,-1,9
 304 666 304 666 362 666 c 0,10,11
 378 666 378 666 403.5 661.5 c 128,-1,12
 429 657 429 657 454.5 644.5 c 128,-1,13
 480 632 480 632 501 609.5 c 128,-1,14
 522 587 522 587 530 551 c 0,15,16
 537 520 537 520 532.5 490.5 c 128,-1,17
 528 461 528 461 521 437 c 1,18,-1
 385 416 l 1,19,-1
 393 458 l 2,20,21
 397 479 397 479 382.5 491.5 c 128,-1,22
 368 504 368 504 343 504 c 0,23,24
 328 504 328 504 313 492 c 128,-1,25
 298 480 298 480 296 469 c 2,26,-1
 282 393 l 1,27,-1
 338 393 l 1,28,-1
 321 288 l 1,29,-1
 263 288 l 1,30,-1
 259 271 l 1,31,-1
 317 271 l 1,32,-1
 300 166 l 1,33,-1
 240 166 l 1,34,-1
 233 128 l 1,35,-1
 542 127 l 1,36,-1
 520 0 l 1,37,-1
 48 0 l 1,38,-1
 76 166 l 1,39,-1
 21 166 l 1,40,-1
 37 271 l 1,41,-1
 93 271 l 1,0,-1
EndSplineSet
EndChar

StartChar: Euro
Encoding: 164 164 206
Width: 542
Flags: W
LayerCount: 2
Fore
SplineSet
146 445 m 1,0,1
 149 457 149 457 151.5 471 c 128,-1,2
 154 485 154 485 157 499.5 c 128,-1,3
 160 514 160 514 162.5 526 c 128,-1,4
 165 538 165 538 168 546 c 0,5,6
 183 581 183 581 208 606.5 c 128,-1,7
 233 632 233 632 263.5 648.5 c 128,-1,8
 294 665 294 665 327.5 673 c 128,-1,9
 361 681 361 681 393 681 c 0,10,11
 404 681 404 681 422 679 c 128,-1,12
 440 677 440 677 461 671.5 c 128,-1,13
 482 666 482 666 503 655 c 128,-1,14
 524 644 524 644 541 626 c 1,15,-1
 470 504 l 1,16,17
 454 513 454 513 444 518.5 c 128,-1,18
 434 524 434 524 426 527 c 128,-1,19
 418 530 418 530 408 530.5 c 128,-1,20
 398 531 398 531 382 531 c 0,21,22
 345 531 345 531 324.5 516.5 c 128,-1,23
 304 502 304 502 302 486 c 2,24,-1
 296 451 l 1,25,-1
 351 451 l 1,26,27
 349 433 349 433 347 418 c 0,28,29
 345 404 345 404 343.5 391.5 c 128,-1,30
 342 379 342 379 341 372 c 1,31,-1
 282 372 l 1,32,-1
 276 334 l 1,33,-1
 335 334 l 1,34,35
 333 319 333 319 330.5 299 c 128,-1,36
 328 279 328 279 323 253 c 1,37,-1
 263 255 l 1,38,-1
 255 216 l 2,39,40
 254 208 254 208 254 197 c 128,-1,41
 254 186 254 186 258.5 175.5 c 128,-1,42
 263 165 263 165 274 158 c 128,-1,43
 285 151 285 151 306 151 c 0,44,45
 352 151 352 151 385 159 c 128,-1,46
 418 167 418 167 427 172 c 1,47,-1
 480 55 l 1,48,49
 464 47 464 47 443 37 c 128,-1,50
 422 27 422 27 395 18.5 c 128,-1,51
 368 10 368 10 335.5 4.5 c 128,-1,52
 303 -1 303 -1 264 -1 c 0,53,54
 213 -1 213 -1 179 12 c 128,-1,55
 145 25 145 25 125.5 44 c 128,-1,56
 106 63 106 63 99 83.5 c 128,-1,57
 92 104 92 104 93 119 c 1,58,59
 96 137 96 137 102 175 c 128,-1,60
 108 213 108 213 114 254 c 1,61,-1
 66 254 l 1,62,-1
 77 327 l 1,63,-1
 132 327 l 1,64,-1
 139 363 l 1,65,-1
 80 363 l 1,66,67
 81 368 81 368 83.5 381.5 c 128,-1,68
 86 395 86 395 88 409 c 0,69,70
 91 426 91 426 94 445 c 1,71,-1
 146 445 l 1,0,1
EndSplineSet
EndChar

StartChar: yen
Encoding: 165 165 168
Width: 611
Flags: W
LayerCount: 2
Fore
SplineSet
198 315 m 1,0,-1
 201 340 l 1,1,-1
 55 340 l 1,2,-1
 75 460 l 1,3,-1
 165 460 l 1,4,-1
 61 666 l 1,5,-1
 239 666 l 1,6,-1
 303 509 l 1,7,-1
 396 666 l 1,8,-1
 593 666 l 1,9,-1
 465 460 l 1,10,-1
 558 460 l 1,11,-1
 536 340 l 1,12,-1
 391 340 l 1,13,-1
 375 315 l 1,14,-1
 532 315 l 1,15,-1
 510 195 l 1,16,-1
 359 195 l 1,17,-1
 343 0 l 1,18,-1
 155 -1 l 1,19,-1
 181 195 l 1,20,-1
 29 195 l 1,21,-1
 49 315 l 1,22,-1
 198 315 l 1,0,-1
EndSplineSet
EndChar

StartChar: brokenbar
Encoding: 166 166 18
Width: 341
Flags: W
LayerCount: 2
Fore
SplineSet
231 304 m 1,0,-1
 181 0 l 1,1,-1
 39 0 l 1,2,-1
 91 304 l 1,3,-1
 231 304 l 1,0,-1
292 666 m 1,4,-1
 242 362 l 1,5,-1
 100 362 l 1,6,-1
 152 666 l 1,7,-1
 292 666 l 1,4,-1
EndSplineSet
EndChar

StartChar: section
Encoding: 167 167 152
Width: 489
Flags: W
LayerCount: 2
Fore
SplineSet
210 387 m 0,0,1
 210 370 210 370 233 349.5 c 128,-1,2
 256 329 256 329 283 303 c 2,3,-1
 400 187 l 1,4,5
 402 182 402 182 403.5 170 c 128,-1,6
 405 158 405 158 403 153 c 1,7,8
 397 120 397 120 389.5 94.5 c 128,-1,9
 382 69 382 69 372 37 c 0,10,11
 368 23 368 23 352.5 6 c 128,-1,12
 337 -11 337 -11 312.5 -26 c 128,-1,13
 288 -41 288 -41 254 -51 c 128,-1,14
 220 -61 220 -61 178 -61 c 256,15,16
 136 -61 136 -61 106 -51.5 c 128,-1,17
 76 -42 76 -42 56.5 -29 c 128,-1,18
 37 -16 37 -16 27.5 -2.5 c 128,-1,19
 18 11 18 11 18 20 c 0,20,21
 17 30 17 30 20 48 c 0,22,23
 22 64 22 64 26 90 c 128,-1,24
 30 116 30 116 38 158 c 1,25,-1
 163 159 l 1,26,27
 161 149 161 149 160 142.5 c 128,-1,28
 159 136 159 136 158 131 c 256,29,30
 157 126 157 126 157 121 c 0,31,32
 157 109 157 109 164 95.5 c 128,-1,33
 171 82 171 82 195 82 c 0,34,35
 216 82 216 82 227.5 91.5 c 128,-1,36
 239 101 239 101 244.5 115 c 128,-1,37
 250 129 250 129 251 144.5 c 128,-1,38
 252 160 252 160 252 172 c 1,39,40
 247 188 247 188 231.5 204.5 c 128,-1,41
 216 221 216 221 195.5 236.5 c 128,-1,42
 175 252 175 252 153 268 c 128,-1,43
 131 284 131 284 113 299.5 c 128,-1,44
 95 315 95 315 84 331 c 128,-1,45
 73 347 73 347 76 363 c 0,46,47
 79 383 79 383 80.5 394 c 128,-1,48
 82 405 82 405 83.5 413.5 c 128,-1,49
 85 422 85 422 87 431.5 c 128,-1,50
 89 441 89 441 93 459 c 0,51,52
 96 473 96 473 102.5 483.5 c 128,-1,53
 109 494 109 494 117 500 c 1,54,55
 112 505 112 505 109.5 514.5 c 128,-1,56
 107 524 107 524 107 531 c 0,57,58
 109 547 109 547 110 556 c 128,-1,59
 111 565 111 565 112.5 573 c 128,-1,60
 114 581 114 581 116 590.5 c 128,-1,61
 118 600 118 600 123 616 c 0,62,63
 132 647 132 647 156.5 670 c 128,-1,64
 181 693 181 693 210 708 c 128,-1,65
 239 723 239 723 267 730 c 128,-1,66
 295 737 295 737 312 737 c 0,67,68
 334 737 334 737 359 731 c 128,-1,69
 384 725 384 725 406 713 c 128,-1,70
 428 701 428 701 444.5 682.5 c 128,-1,71
 461 664 461 664 467 639 c 1,72,73
 468 629 468 629 469 614 c 0,74,75
 470 601 470 601 469 582.5 c 128,-1,76
 468 564 468 564 465 538 c 1,77,-1
 342 538 l 1,78,79
 342 559 342 559 335 570.5 c 128,-1,80
 328 582 328 582 320 587 c 128,-1,81
 312 592 312 592 305 593 c 128,-1,82
 298 594 298 594 298 594 c 1,83,84
 272 594 272 594 255.5 578.5 c 128,-1,85
 239 563 239 563 239 550 c 0,86,87
 239 535 239 535 255.5 522.5 c 128,-1,88
 272 510 272 510 296 497 c 128,-1,89
 320 484 320 484 347.5 469.5 c 128,-1,90
 375 455 375 455 397.5 435.5 c 128,-1,91
 420 416 420 416 433 390.5 c 128,-1,92
 446 365 446 365 442 330 c 0,93,94
 437 295 437 295 433 264.5 c 128,-1,95
 429 234 429 234 418 216 c 0,96,97
 415 211 415 211 412 204 c 128,-1,98
 409 197 409 197 406 195 c 1,99,-1
 289 311 l 1,100,101
 291 316 291 316 292 318 c 128,-1,102
 293 320 293 320 293.5 321 c 128,-1,103
 294 322 294 322 294.5 324 c 128,-1,104
 295 326 295 326 296 331 c 0,105,106
 300 348 300 348 295 362.5 c 128,-1,107
 290 377 290 377 280 389 c 128,-1,108
 270 401 270 401 257 410 c 128,-1,109
 244 419 244 419 233 427 c 1,110,111
 222 418 222 418 216 406.5 c 128,-1,112
 210 395 210 395 210 387 c 0,0,1
EndSplineSet
EndChar

StartChar: dieresis
Encoding: 168 168 160
Width: 523
Flags: W
LayerCount: 2
Fore
SplineSet
228 781 m 1,0,-1
 203 621 l 1,1,-1
 50 621 l 1,2,-1
 76 781 l 1,3,-1
 228 781 l 1,0,-1
314 781 m 1,4,-1
 470 781 l 1,5,-1
 445 620 l 1,6,-1
 288 620 l 1,7,-1
 314 781 l 1,4,-1
EndSplineSet
EndChar

StartChar: copyright
Encoding: 169 169 157
Width: 689
Flags: W
LayerCount: 2
Fore
SplineSet
337 669 m 0,0,1
 404 672 404 672 455.5 655.5 c 128,-1,2
 507 639 507 639 543 608.5 c 128,-1,3
 579 578 579 578 599 537 c 128,-1,4
 619 496 619 496 623 450 c 1,5,-1
 483 449 l 1,6,7
 484 460 484 460 486 470 c 0,8,9
 488 478 488 478 489 486 c 128,-1,10
 490 494 490 494 490 497 c 0,11,12
 490 505 490 505 487 521 c 128,-1,13
 484 537 484 537 473.5 552.5 c 128,-1,14
 463 568 463 568 442.5 580 c 128,-1,15
 422 592 422 592 388 592 c 0,16,17
 353 592 353 592 328 582.5 c 128,-1,18
 303 573 303 573 286 558.5 c 128,-1,19
 269 544 269 544 259 526.5 c 128,-1,20
 249 509 249 509 246 493 c 256,21,22
 243 477 243 477 237 446.5 c 128,-1,23
 231 416 231 416 225.5 382 c 128,-1,24
 220 348 220 348 216 316.5 c 128,-1,25
 212 285 212 285 212 268 c 256,26,27
 212 251 212 251 216 234 c 128,-1,28
 220 217 220 217 231.5 203.5 c 128,-1,29
 243 190 243 190 263 181.5 c 128,-1,30
 283 173 283 173 315 173 c 256,31,32
 347 173 347 173 371 185.5 c 128,-1,33
 395 198 395 198 411.5 214 c 128,-1,34
 428 230 428 230 437.5 246 c 128,-1,35
 447 262 447 262 450 268 c 0,36,37
 453 275 453 275 456.5 287 c 128,-1,38
 460 299 460 299 463.5 312 c 128,-1,39
 467 325 467 325 469 337 c 128,-1,40
 471 349 471 349 471 358 c 1,41,-1
 372 358 l 1,42,43
 371 341 371 341 367 329 c 0,44,45
 363 318 363 318 355.5 309 c 128,-1,46
 348 300 348 300 334 300 c 0,47,48
 326 300 326 300 322.5 304 c 128,-1,49
 319 308 319 308 317.5 313.5 c 128,-1,50
 316 319 316 319 316.5 325 c 128,-1,51
 317 331 317 331 318 336 c 0,52,53
 319 342 319 342 322.5 359.5 c 128,-1,54
 326 377 326 377 330.5 396 c 128,-1,55
 335 415 335 415 338.5 431.5 c 128,-1,56
 342 448 342 448 343 453 c 0,57,58
 345 463 345 463 352.5 472.5 c 128,-1,59
 360 482 360 482 372 482 c 0,60,61
 381 482 381 482 384.5 475.5 c 128,-1,62
 388 469 388 469 388 461 c 0,63,64
 388 452 388 452 386 441 c 1,65,-1
 622 442 l 1,66,67
 623 428 623 428 622.5 413 c 128,-1,68
 622 398 622 398 620 384 c 0,69,70
 611 325 611 325 591 275 c 128,-1,71
 571 225 571 225 537.5 187 c 128,-1,72
 504 149 504 149 454.5 125.5 c 128,-1,73
 405 102 405 102 337 98 c 0,74,75
 260 93 260 93 204 115.5 c 128,-1,76
 148 138 148 138 112.5 178 c 128,-1,77
 77 218 77 218 62.5 271.5 c 128,-1,78
 48 325 48 325 54 384 c 0,79,80
 60 444 60 444 81 495 c 128,-1,81
 102 546 102 546 137.5 584 c 128,-1,82
 173 622 173 622 223 644 c 128,-1,83
 273 666 273 666 337 669 c 0,0,1
EndSplineSet
EndChar

StartChar: ordfeminine
Encoding: 170 170 175
Width: 468
Flags: W
LayerCount: 2
Fore
SplineSet
237 492 m 1,0,1
 248 544 248 544 257 585 c 0,2,3
 261 603 261 603 264.5 620 c 128,-1,4
 268 637 268 637 270.5 651 c 128,-1,5
 273 665 273 665 275 674.5 c 128,-1,6
 277 684 277 684 277 686 c 0,7,8
 280 700 280 700 267.5 706 c 128,-1,9
 255 712 255 712 241 712 c 0,10,11
 230 712 230 712 221.5 706.5 c 128,-1,12
 213 701 213 701 207.5 694.5 c 128,-1,13
 202 688 202 688 199 681.5 c 128,-1,14
 196 675 196 675 195 673 c 0,15,16
 190 656 190 656 185 638.5 c 128,-1,17
 180 621 180 621 180 601 c 0,18,19
 180 588 180 588 191 584.5 c 128,-1,20
 202 581 202 581 214 582 c 256,21,22
 226 583 226 583 237.5 594.5 c 128,-1,23
 249 606 249 606 257 617 c 1,24,-1
 235 522 l 1,25,26
 220 511 220 511 208 504.5 c 128,-1,27
 196 498 196 498 186 495 c 128,-1,28
 176 492 176 492 166.5 491.5 c 128,-1,29
 157 491 157 491 145 491 c 0,30,31
 122 491 122 491 102 500 c 128,-1,32
 82 509 82 509 67 524 c 128,-1,33
 52 539 52 539 45 558.5 c 128,-1,34
 38 578 38 578 43 599 c 0,35,36
 53 643 53 643 62.5 677 c 128,-1,37
 72 711 72 711 89.5 734 c 128,-1,38
 107 757 107 757 137 769 c 128,-1,39
 167 781 167 781 217 781 c 0,40,41
 234 781 234 781 257.5 775 c 128,-1,42
 281 769 281 769 296 756 c 1,43,-1
 302 781 l 1,44,-1
 431 780 l 1,45,-1
 365 492 l 1,46,-1
 237 492 l 1,0,1
EndSplineSet
EndChar

StartChar: guillemotleft
Encoding: 171 171 187
Width: 586
Flags: W
LayerCount: 2
Fore
SplineSet
237 0 m 1,0,-1
 97 0 l 1,1,-1
 59 198 l 1,2,-1
 154 400 l 1,3,-1
 301 400 l 1,4,-1
 218 217 l 1,5,-1
 259 217 l 1,6,-1
 358 400 l 1,7,-1
 498 400 l 1,8,-1
 400 199 l 1,9,-1
 433 1 l 1,10,-1
 304 1 l 1,11,-1
 254 180 l 1,12,-1
 212 180 l 1,13,-1
 237 0 l 1,0,-1
EndSplineSet
EndChar

StartChar: logicalnot
Encoding: 172 172 182
Width: 638
Flags: W
LayerCount: 2
Fore
SplineSet
57 207 m 1,0,-1
 76 338 l 1,1,-1
 581 338 l 1,2,-1
 541 96 l 1,3,-1
 403 96 l 1,4,-1
 422 207 l 1,5,-1
 57 207 l 1,0,-1
EndSplineSet
EndChar

StartChar: registered
Encoding: 174 174 156
Width: 689
Flags: W
LayerCount: 2
Fore
SplineSet
501 464 m 0,0,1
 505 493 505 493 497 518 c 128,-1,2
 489 543 489 543 473.5 561 c 128,-1,3
 458 579 458 579 437.5 589.5 c 128,-1,4
 417 600 417 600 397 600 c 2,5,-1
 241 600 l 1,6,-1
 170 158 l 1,7,-1
 140 158 l 1,8,9
 88 198 88 198 68.5 259 c 128,-1,10
 49 320 49 320 57 390 c 0,11,12
 64 450 64 450 91 501 c 128,-1,13
 118 552 118 552 159.5 588.5 c 128,-1,14
 201 625 201 625 256 645.5 c 128,-1,15
 311 666 311 666 375 666 c 0,16,17
 442 666 442 666 492.5 641.5 c 128,-1,18
 543 617 543 617 575 576.5 c 128,-1,19
 607 536 607 536 620 485 c 128,-1,20
 633 434 633 434 626 381 c 0,21,22
 616 313 616 313 593.5 260.5 c 128,-1,23
 571 208 571 208 531 172 c 128,-1,24
 491 136 491 136 431 117 c 128,-1,25
 371 98 371 98 286 98 c 0,26,27
 247 98 247 98 214 112.5 c 128,-1,28
 181 127 181 127 146 152 c 1,29,-1
 281 153 l 1,30,-1
 336 496 l 1,31,32
 357 499 357 499 373 496 c 0,33,34
 387 494 387 494 397.5 486.5 c 128,-1,35
 408 479 408 479 406 462 c 0,36,37
 405 459 405 459 402 450.5 c 128,-1,38
 399 442 399 442 390.5 431 c 128,-1,39
 382 420 382 420 366 407.5 c 128,-1,40
 350 395 350 395 324 383 c 1,41,42
 325 393 325 393 324 385 c 128,-1,43
 323 377 323 377 320.5 360.5 c 128,-1,44
 318 344 318 344 315 325.5 c 128,-1,45
 312 307 312 307 311 298 c 1,46,47
 316 300 316 300 317.5 299.5 c 128,-1,48
 319 299 319 299 325 301 c 1,49,-1
 337 227 l 2,50,51
 342 199 342 199 345.5 176 c 128,-1,52
 349 153 349 153 350 153 c 2,53,-1
 469 153 l 1,54,-1
 415 343 l 1,55,56
 434 355 434 355 448 366 c 128,-1,57
 462 377 462 377 472.5 390.5 c 128,-1,58
 483 404 483 404 490 422 c 128,-1,59
 497 440 497 440 501 464 c 0,0,1
EndSplineSet
EndChar

StartChar: macron
Encoding: 175 175 234
AltUni2: 0002c9.ffffffff.0 0002c9.ffffffff.0
Width: 376
Flags: W
LayerCount: 2
Fore
SplineSet
79 781 m 1,0,-1
 329 781 l 1,1,-1
 309 653 l 1,2,-1
 59 653 l 1,3,-1
 79 781 l 1,0,-1
EndSplineSet
EndChar

StartChar: degree
Encoding: 176 176 149
Width: 305
Flags: W
LayerCount: 2
Fore
SplineSet
163 672 m 0,0,1
 184 672 184 672 204.5 665.5 c 128,-1,2
 225 659 225 659 241 645.5 c 128,-1,3
 257 632 257 632 267 610.5 c 128,-1,4
 277 589 277 589 277 560 c 0,5,6
 277 539 277 539 271.5 524.5 c 128,-1,7
 266 510 266 510 260 500 c 1,8,9
 252 489 252 489 243 482 c 1,10,-1
 188 548 l 1,11,12
 189 550 189 550 191 553 c 0,13,14
 192 555 192 555 193 558.5 c 128,-1,15
 194 562 194 562 194 565 c 0,16,17
 194 570 194 570 186.5 580.5 c 128,-1,18
 179 591 179 591 168 591 c 256,19,20
 157 591 157 591 148.5 582.5 c 128,-1,21
 140 574 140 574 140 562 c 0,22,23
 140 549 140 549 151 542 c 128,-1,24
 162 535 162 535 168 535 c 0,25,26
 172 535 172 535 178 539 c 0,27,28
 181 541 181 541 183 543 c 1,29,-1
 239 477 l 1,30,31
 232 469 232 469 221 463 c 0,32,33
 212 458 212 458 198.5 453.5 c 128,-1,34
 185 449 185 449 166 449 c 0,35,36
 135 449 135 449 113 459.5 c 128,-1,37
 91 470 91 470 77.5 486.5 c 128,-1,38
 64 503 64 503 57.5 523.5 c 128,-1,39
 51 544 51 544 51 563 c 0,40,41
 51 591 51 591 62 611.5 c 128,-1,42
 73 632 73 632 89.5 645.5 c 128,-1,43
 106 659 106 659 125.5 665.5 c 128,-1,44
 145 672 145 672 163 672 c 0,0,1
EndSplineSet
EndChar

StartChar: plusminus
Encoding: 177 177 165
Width: 483
Flags: W
LayerCount: 2
Fore
SplineSet
361 576 m 1,0,-1
 341 460 l 1,1,-1
 464 460 l 1,2,-1
 444 340 l 1,3,-1
 320 340 l 1,4,-1
 299 219 l 1,5,-1
 172 220 l 1,6,-1
 193 340 l 1,7,-1
 62 340 l 1,8,-1
 81 459 l 1,9,-1
 214 459 l 1,10,-1
 234 576 l 1,11,-1
 361 576 l 1,0,-1
43 179 m 1,12,-1
 426 179 l 1,13,-1
 407 60 l 1,14,-1
 24 60 l 1,15,-1
 43 179 l 1,12,-1
EndSplineSet
EndChar

StartChar: twosuperior
Encoding: 178 178 17
Width: 420
Flags: W
LayerCount: 2
Fore
SplineSet
333 438 m 1,0,-1
 311 318 l 1,1,-1
 32 318 l 1,2,3
 50 399 50 399 91.5 466.5 c 128,-1,4
 133 534 133 534 195 579 c 0,5,6
 201 584 201 584 211 591 c 128,-1,7
 221 598 221 598 230 606.5 c 128,-1,8
 239 615 239 615 245.5 624 c 128,-1,9
 252 633 252 633 252 641 c 0,10,11
 252 644 252 644 246 648.5 c 128,-1,12
 240 653 240 653 236 653 c 0,13,14
 227 653 227 653 218.5 647 c 128,-1,15
 210 641 210 641 203 633 c 128,-1,16
 196 625 196 625 190.5 616 c 128,-1,17
 185 607 185 607 183 600 c 1,18,-1
 91 654 l 1,19,20
 98 677 98 677 109 699.5 c 128,-1,21
 120 722 120 722 139 740 c 128,-1,22
 158 758 158 758 185.5 769.5 c 128,-1,23
 213 781 213 781 252 781 c 0,24,25
 274 781 274 781 297 774 c 128,-1,26
 320 767 320 767 338.5 751.5 c 128,-1,27
 357 736 357 736 368.5 711.5 c 128,-1,28
 380 687 380 687 380 653 c 0,29,30
 380 618 380 618 362 590.5 c 128,-1,31
 344 563 344 563 320 539 c 128,-1,32
 296 515 296 515 271 491 c 128,-1,33
 246 467 246 467 233 438 c 1,34,-1
 333 438 l 1,0,-1
EndSplineSet
EndChar

StartChar: threesuperior
Encoding: 179 179 16
Width: 394
Flags: W
LayerCount: 2
Fore
SplineSet
293 624 m 1,0,1
 315 608 315 608 319 592.5 c 128,-1,2
 323 577 323 577 322 573 c 0,3,4
 320 550 320 550 314.5 509 c 128,-1,5
 309 468 309 468 299 419 c 0,6,7
 288 365 288 365 248 341.5 c 128,-1,8
 208 318 208 318 138 318 c 0,9,10
 100 318 100 318 79 330 c 128,-1,11
 58 342 58 342 48 358 c 128,-1,12
 38 374 38 374 36 388.5 c 128,-1,13
 34 403 34 403 34 409 c 0,14,15
 34 414 34 414 35 424 c 0,16,17
 36 440 36 440 45 487 c 1,18,-1
 157 492 l 1,19,20
 156 484 156 484 153.5 476.5 c 128,-1,21
 151 469 151 469 151 463 c 128,-1,22
 151 457 151 457 154 453 c 128,-1,23
 157 449 157 449 166 449 c 0,24,25
 168 449 168 449 173 451.5 c 128,-1,26
 178 454 178 454 180 462 c 0,27,28
 183 478 183 478 186.5 496.5 c 128,-1,29
 190 515 190 515 191 520 c 0,30,31
 191 525 191 525 187.5 529.5 c 128,-1,32
 184 534 184 534 176 534 c 0,33,34
 171 534 171 534 166 532 c 0,35,36
 154 529 154 529 139 519 c 1,37,-1
 59 591 l 1,38,-1
 141 656 l 1,39,-1
 71 656 l 1,40,-1
 88 781 l 1,41,-1
 350 781 l 1,42,-1
 333 663 l 1,43,-1
 293 624 l 1,0,1
EndSplineSet
EndChar

StartChar: acute
Encoding: 180 180 159
Width: 284
Flags: W
LayerCount: 2
Fore
SplineSet
237 781 m 1,0,-1
 211 620 l 1,1,-1
 58 620 l 1,2,-1
 85 781 l 1,3,-1
 237 781 l 1,0,-1
EndSplineSet
EndChar

StartChar: mu
Encoding: 181 181 169
AltUni2: 0003bc.ffffffff.0 0003bc.ffffffff.0
Width: 640
Flags: W
LayerCount: 2
Fore
SplineSet
316 93 m 0,0,1
 340 93 340 93 355 108.5 c 128,-1,2
 370 124 370 124 374 141 c 0,3,4
 376 153 376 153 379.5 173 c 128,-1,5
 383 193 383 193 387.5 218.5 c 128,-1,6
 392 244 392 244 397 272 c 128,-1,7
 402 300 402 300 407 328 c 0,8,9
 418 393 418 393 432 468 c 1,10,-1
 597 469 l 1,11,-1
 514 0 l 1,12,-1
 351 0 l 1,13,-1
 355 23 l 1,14,15
 341 14 341 14 325 7.5 c 128,-1,16
 309 1 309 1 291 -0.5 c 128,-1,17
 273 -2 273 -2 253.5 2 c 128,-1,18
 234 6 234 6 215 19 c 1,19,-1
 182 -122 l 1,20,-1
 37 -122 l 1,21,-1
 138 469 l 1,22,-1
 301 469 l 1,23,24
 301 469 301 469 298.5 455 c 128,-1,25
 296 441 296 441 292 418.5 c 128,-1,26
 288 396 288 396 282.5 368 c 128,-1,27
 277 340 277 340 272 310 c 0,28,29
 260 240 260 240 244 151 c 1,30,31
 242 133 242 133 248.5 121.5 c 128,-1,32
 255 110 255 110 266 103.5 c 128,-1,33
 277 97 277 97 290.5 95 c 128,-1,34
 304 93 304 93 316 93 c 0,0,1
EndSplineSet
EndChar

StartChar: paragraph
Encoding: 182 182 154
Width: 639
Flags: W
LayerCount: 2
Fore
SplineSet
341 0 m 1,0,-1
 183 0 l 1,1,-1
 271 497 l 1,2,3
 263 497 263 497 246 497 c 128,-1,4
 229 497 229 497 211 493 c 128,-1,5
 193 489 193 489 177.5 479.5 c 128,-1,6
 162 470 162 470 158 450 c 0,7,8
 156 444 156 444 156 431 c 128,-1,9
 156 418 156 418 163 402 c 128,-1,10
 170 386 170 386 186 370.5 c 128,-1,11
 202 355 202 355 232 343 c 1,12,-1
 210 221 l 1,13,14
 181 231 181 231 145.5 248.5 c 128,-1,15
 110 266 110 266 81.5 294.5 c 128,-1,16
 53 323 53 323 37.5 365.5 c 128,-1,17
 22 408 22 408 32 469 c 0,18,19
 41 521 41 521 64 555 c 128,-1,20
 87 589 87 589 117.5 609 c 128,-1,21
 148 629 148 629 183 637 c 128,-1,22
 218 645 218 645 252 645 c 2,23,-1
 627 645 l 1,24,-1
 517 0 l 1,25,-1
 369 0 l 1,26,-1
 454 494 l 1,27,-1
 428 494 l 1,28,-1
 341 0 l 1,0,-1
EndSplineSet
EndChar

StartChar: periodcentered
Encoding: 183 183 212
AltUni2: 002219.ffffffff.0 002219.ffffffff.0
Width: 282
Flags: W
LayerCount: 2
Fore
SplineSet
65 255 m 0,0,1
 73 296 73 296 93.5 314 c 128,-1,2
 114 332 114 332 152 332 c 0,3,4
 165 332 165 332 178.5 326 c 128,-1,5
 192 320 192 320 202 309.5 c 128,-1,6
 212 299 212 299 217 285 c 128,-1,7
 222 271 222 271 219 255 c 0,8,9
 211 215 211 215 187 197 c 128,-1,10
 163 179 163 179 127 179 c 0,11,12
 116 179 116 179 104 185 c 128,-1,13
 92 191 92 191 82.5 201 c 128,-1,14
 73 211 73 211 67.5 225 c 128,-1,15
 62 239 62 239 65 255 c 0,0,1
EndSplineSet
EndChar

StartChar: cedilla
Encoding: 184 184 238
Width: 1000
Flags: W
LayerCount: 2
Fore
SplineSet
271 5 m 1,0,-1
 198 -128 l 1,1,-1
 102 -128 l 1,2,-1
 143 8 l 1,3,-1
 271 5 l 1,0,-1
EndSplineSet
EndChar

StartChar: onesuperior
Encoding: 185 185 14
Width: 378
Flags: W
LayerCount: 2
Fore
SplineSet
101 318 m 1,0,-1
 157 598 l 1,1,-1
 58 565 l 1,2,-1
 89 688 l 1,3,-1
 210 781 l 1,4,-1
 334 781 l 1,5,-1
 252 318 l 1,6,-1
 101 318 l 1,0,-1
EndSplineSet
EndChar

StartChar: ordmasculine
Encoding: 186 186 176
Width: 500
Flags: W
LayerCount: 2
Fore
SplineSet
386 594 m 0,0,1
 381 575 381 575 367.5 553.5 c 128,-1,2
 354 532 354 532 331 513.5 c 128,-1,3
 308 495 308 495 275 483 c 128,-1,4
 242 471 242 471 199 471 c 0,5,6
 167 471 167 471 148 480 c 128,-1,7
 129 489 129 489 119.5 501 c 128,-1,8
 110 513 110 513 107 526 c 128,-1,9
 104 539 104 539 104 548 c 0,10,11
 104 556 104 556 106.5 576.5 c 128,-1,12
 109 597 109 597 113 618 c 0,13,14
 117 643 117 643 123 670 c 1,15,16
 132 703 132 703 154.5 723.5 c 128,-1,17
 177 744 177 744 202 755.5 c 128,-1,18
 227 767 227 767 249 771.5 c 128,-1,19
 271 776 271 776 280 778 c 1,20,-1
 265 693 l 1,21,22
 258 688 258 688 254 678 c 0,23,24
 244 658 244 658 239 632.5 c 128,-1,25
 234 607 234 607 232 594 c 0,26,27
 230 586 230 586 234.5 577.5 c 128,-1,28
 239 569 239 569 259 569 c 0,29,30
 287 569 287 569 299 579.5 c 128,-1,31
 311 590 311 590 313 600 c 0,32,33
 314 604 314 604 317 614 c 128,-1,34
 320 624 320 624 322.5 635.5 c 128,-1,35
 325 647 325 647 327.5 657.5 c 128,-1,36
 330 668 330 668 331 673 c 0,37,38
 333 682 333 682 326 693.5 c 128,-1,39
 319 705 319 705 303 705 c 0,40,41
 296 705 296 705 290.5 703.5 c 128,-1,42
 285 702 285 702 281 700 c 256,43,44
 277 698 277 698 273 696 c 1,45,-1
 287 779 l 1,46,-1
 300 782 l 1,47,48
 313 782 313 782 331.5 778.5 c 128,-1,49
 350 775 350 775 366 766.5 c 128,-1,50
 382 758 382 758 393.5 743 c 128,-1,51
 405 728 405 728 405 706 c 0,52,53
 405 699 405 699 402.5 684 c 128,-1,54
 400 669 400 669 397 652 c 128,-1,55
 394 635 394 635 391 619 c 128,-1,56
 388 603 388 603 386 594 c 0,0,1
EndSplineSet
EndChar

StartChar: guillemotright
Encoding: 187 187 188
Width: 533
Flags: W
LayerCount: 2
Fore
SplineSet
194 0 m 1,0,-1
 54 0 l 1,1,-1
 152 201 l 1,2,-1
 119 399 l 1,3,-1
 248 399 l 1,4,-1
 298 217 l 1,5,-1
 350 217 l 1,6,-1
 324 400 l 1,7,-1
 464 400 l 1,8,-1
 502 202 l 1,9,-1
 407 0 l 1,10,-1
 260 0 l 1,11,-1
 342 180 l 1,12,-1
 291 180 l 1,13,-1
 194 0 l 1,0,-1
EndSplineSet
EndChar

StartChar: onequarter
Encoding: 188 188 13
Width: 866
Flags: W
LayerCount: 2
Fore
SplineSet
101 318 m 1,0,-1
 157 598 l 1,1,-1
 58 565 l 1,2,-1
 89 688 l 1,3,-1
 210 781 l 1,4,-1
 334 781 l 1,5,-1
 252 318 l 1,6,-1
 101 318 l 1,0,-1
608 671 m 1,7,-1
 351 22 l 1,8,-1
 205 72 l 1,9,-1
 466 720 l 1,10,-1
 608 671 l 1,7,-1
806 180 m 1,11,-1
 790 84 l 1,12,-1
 752 84 l 1,13,-1
 736 0 l 1,14,-1
 590 0 l 1,15,16
 599 55 599 55 608.5 110 c 128,-1,17
 618 165 618 165 627 221 c 1,18,-1
 608 197 l 1,19,-1
 584 86 l 1,20,-1
 453 86 l 1,21,-1
 475 200 l 1,22,-1
 671 463 l 1,23,-1
 816 463 l 1,24,-1
 769 179 l 1,25,-1
 806 180 l 1,11,-1
EndSplineSet
EndChar

StartChar: onehalf
Encoding: 189 189 12
Width: 866
Flags: W
LayerCount: 2
Fore
SplineSet
101 318 m 1,0,-1
 157 598 l 1,1,-1
 58 565 l 1,2,-1
 89 688 l 1,3,-1
 210 781 l 1,4,-1
 334 781 l 1,5,-1
 252 318 l 1,6,-1
 101 318 l 1,0,-1
766 120 m 1,7,-1
 744 0 l 1,8,-1
 465 0 l 1,9,10
 482 81 482 81 524 148.5 c 128,-1,11
 566 216 566 216 628 261 c 0,12,13
 634 266 634 266 644 273 c 128,-1,14
 654 280 654 280 663 288.5 c 128,-1,15
 672 297 672 297 678.5 306 c 128,-1,16
 685 315 685 315 685 323 c 0,17,18
 685 326 685 326 679 330.5 c 128,-1,19
 673 335 673 335 669 335 c 0,20,21
 660 335 660 335 651.5 329 c 128,-1,22
 643 323 643 323 635.5 315 c 128,-1,23
 628 307 628 307 623 298 c 128,-1,24
 618 289 618 289 615 282 c 1,25,-1
 524 336 l 1,26,27
 531 359 531 359 542 381.5 c 128,-1,28
 553 404 553 404 572 422 c 128,-1,29
 591 440 591 440 618.5 451.5 c 128,-1,30
 646 463 646 463 685 463 c 0,31,32
 707 463 707 463 729.5 456 c 128,-1,33
 752 449 752 449 770.5 433.5 c 128,-1,34
 789 418 789 418 800.5 393.5 c 128,-1,35
 812 369 812 369 812 335 c 0,36,37
 812 300 812 300 794 272.5 c 128,-1,38
 776 245 776 245 752 221 c 128,-1,39
 728 197 728 197 703.5 173 c 128,-1,40
 679 149 679 149 666 120 c 1,41,-1
 766 120 l 1,7,-1
608 671 m 1,42,-1
 351 22 l 1,43,-1
 205 72 l 1,44,-1
 466 720 l 1,45,-1
 608 671 l 1,42,-1
EndSplineSet
EndChar

StartChar: threequarters
Encoding: 190 190 15
Width: 866
Flags: W
LayerCount: 2
Fore
SplineSet
608 671 m 1,0,-1
 351 22 l 1,1,-1
 205 72 l 1,2,-1
 466 720 l 1,3,-1
 608 671 l 1,0,-1
806 180 m 1,4,-1
 790 84 l 1,5,-1
 752 84 l 1,6,-1
 736 0 l 1,7,-1
 590 0 l 1,8,9
 599 55 599 55 608.5 110 c 128,-1,10
 618 165 618 165 627 221 c 1,11,-1
 608 197 l 1,12,-1
 584 86 l 1,13,-1
 453 86 l 1,14,-1
 475 200 l 1,15,-1
 671 463 l 1,16,-1
 816 463 l 1,17,-1
 769 179 l 1,18,-1
 806 180 l 1,4,-1
293 624 m 1,19,20
 315 608 315 608 319 592.5 c 128,-1,21
 323 577 323 577 322 573 c 0,22,23
 320 550 320 550 314.5 509 c 128,-1,24
 309 468 309 468 299 419 c 0,25,26
 288 365 288 365 248 341.5 c 128,-1,27
 208 318 208 318 138 318 c 0,28,29
 100 318 100 318 79 330 c 128,-1,30
 58 342 58 342 48 358 c 128,-1,31
 38 374 38 374 36 388.5 c 128,-1,32
 34 403 34 403 34 409 c 0,33,34
 34 414 34 414 35 424 c 0,35,36
 36 440 36 440 45 487 c 1,37,-1
 157 492 l 1,38,39
 156 484 156 484 153.5 476.5 c 128,-1,40
 151 469 151 469 151 463 c 128,-1,41
 151 457 151 457 154 453 c 128,-1,42
 157 449 157 449 166 449 c 0,43,44
 168 449 168 449 173 451.5 c 128,-1,45
 178 454 178 454 180 462 c 0,46,47
 183 478 183 478 186.5 496.5 c 128,-1,48
 190 515 190 515 191 520 c 0,49,50
 191 525 191 525 187.5 529.5 c 128,-1,51
 184 534 184 534 176 534 c 0,52,53
 171 534 171 534 166 532 c 0,54,55
 154 529 154 529 139 519 c 1,56,-1
 59 591 l 1,57,-1
 141 656 l 1,58,-1
 71 656 l 1,59,-1
 88 781 l 1,60,-1
 350 781 l 1,61,-1
 333 663 l 1,62,-1
 293 624 l 1,19,20
EndSplineSet
EndChar

StartChar: questiondown
Encoding: 191 191 180
Width: 505
Flags: W
LayerCount: 2
Fore
SplineSet
333 242 m 1,0,1
 330 233 330 233 323 219.5 c 128,-1,2
 316 206 316 206 305.5 193.5 c 128,-1,3
 295 181 295 181 281.5 172 c 128,-1,4
 268 163 268 163 253 163 c 0,5,6
 241 163 241 163 227 172.5 c 128,-1,7
 213 182 213 182 213 204 c 0,8,9
 213 215 213 215 226 233.5 c 128,-1,10
 239 252 239 252 258 273 c 128,-1,11
 277 294 277 294 298 314.5 c 128,-1,12
 319 335 319 335 334 352 c 0,13,14
 358 378 358 378 372.5 417.5 c 128,-1,15
 387 457 387 457 396 505 c 1,16,-1
 233 505 l 1,17,18
 220 447 220 447 193.5 411 c 128,-1,19
 167 375 167 375 136 345 c 0,20,21
 95 305 95 305 73 267 c 128,-1,22
 51 229 51 229 51 179 c 0,23,24
 51 166 51 166 55 136.5 c 128,-1,25
 59 107 59 107 77.5 76.5 c 128,-1,26
 96 46 96 46 134 23 c 128,-1,27
 172 0 172 0 240 0 c 0,28,29
 288 0 288 0 326 18.5 c 128,-1,30
 364 37 364 37 391.5 63.5 c 128,-1,31
 419 90 419 90 435 118 c 128,-1,32
 451 146 451 146 455 165 c 1,33,-1
 333 242 l 1,0,1
237 530 m 1,34,-1
 262 666 l 1,35,-1
 421 666 l 1,36,-1
 400 530 l 1,37,-1
 237 530 l 1,34,-1
EndSplineSet
EndChar

StartChar: Agrave
Encoding: 192 192 190
Width: 629
Flags: W
LayerCount: 2
Fore
SplineSet
286 781 m 1,0,-1
 429 781 l 1,1,-1
 465 667 l 1,2,-1
 524 666 l 1,3,-1
 572 0 l 1,4,-1
 406 0 l 1,5,-1
 375 408 l 1,6,-1
 305 240 l 1,7,-1
 380 239 l 1,8,-1
 388 117 l 1,9,-1
 234 117 l 1,10,-1
 174 0 l 1,11,-1
 -20 0 l 1,12,13
 76 180 76 180 152 323 c 0,14,15
 184 384 184 384 215.5 443.5 c 128,-1,16
 247 503 247 503 271.5 550.5 c 128,-1,17
 296 598 296 598 312 628.5 c 128,-1,18
 328 659 328 659 330 664 c 1,19,-1
 286 781 l 1,0,-1
EndSplineSet
EndChar

StartChar: Aacute
Encoding: 193 193 218
Width: 629
Flags: W
LayerCount: 2
Fore
SplineSet
570 0 m 1,0,-1
 404 0 l 1,1,-1
 372 408 l 1,2,-1
 302 240 l 1,3,-1
 377 239 l 1,4,-1
 385 117 l 1,5,-1
 231 117 l 1,6,-1
 171 0 l 1,7,-1
 -23 0 l 1,8,9
 84 198 84 198 152.5 327 c 128,-1,10
 221 456 221 456 260 531 c 0,11,12
 306 619 306 619 328 666 c 1,13,-1
 382 666 l 1,14,-1
 426 781 l 1,15,-1
 555 781 l 1,16,-1
 522 666 l 1,17,-1
 570 0 l 1,0,-1
EndSplineSet
EndChar

StartChar: Acircumflex
Encoding: 194 194 216
Width: 629
Flags: W
LayerCount: 2
Fore
SplineSet
360 724 m 1,0,-1
 496 795 l 1,1,-1
 616 744 l 1,2,-1
 573 664 l 1,3,-1
 479 701 l 1,4,-1
 421 665 l 1,5,-1
 508 666 l 1,6,-1
 559 0 l 1,7,-1
 392 0 l 1,8,-1
 360 408 l 1,9,-1
 289 240 l 1,10,-1
 365 239 l 1,11,-1
 372 117 l 1,12,-1
 218 117 l 1,13,-1
 158 0 l 1,14,-1
 -34 0 l 1,15,-1
 314 665 l 1,16,-1
 352 666 l 1,17,-1
 360 724 l 1,0,-1
EndSplineSet
EndChar

StartChar: Atilde
Encoding: 195 195 191
Width: 629
Flags: W
LayerCount: 2
Fore
SplineSet
260 763 m 1,0,1
 276 771 276 771 304 779.5 c 128,-1,2
 332 788 332 788 358 788 c 0,3,4
 377 788 377 788 399.5 784 c 128,-1,5
 422 780 422 780 446 774.5 c 128,-1,6
 470 769 470 769 494 765 c 128,-1,7
 518 761 518 761 541 761 c 0,8,9
 547 761 547 761 556 764.5 c 128,-1,10
 565 768 565 768 574 773 c 0,11,12
 585 778 585 778 596 785 c 1,13,-1
 586 662 l 1,14,15
 580 658 580 658 561 654 c 128,-1,16
 542 650 542 650 529 653 c 1,17,-1
 574 0 l 1,18,-1
 408 0 l 1,19,-1
 375 408 l 1,20,-1
 305 240 l 1,21,-1
 380 239 l 1,22,-1
 388 117 l 1,23,-1
 234 117 l 1,24,-1
 174 0 l 1,25,-1
 -16 0 l 1,26,27
 75 167 75 167 150 306 c 0,28,29
 182 365 182 365 213.5 423.5 c 128,-1,30
 245 482 245 482 271.5 531.5 c 128,-1,31
 298 581 298 581 317 616.5 c 128,-1,32
 336 652 336 652 342 666 c 1,33,34
 327 669 327 669 311 667.5 c 128,-1,35
 295 666 295 666 281 662 c 0,36,37
 265 658 265 658 250 651 c 1,38,-1
 260 763 l 1,39,-1
 260 763 l 1,0,1
EndSplineSet
EndChar

StartChar: Adieresis
Encoding: 196 196 116
Width: 629
Flags: W
LayerCount: 2
Fore
SplineSet
646 780 m 1,0,-1
 624 635 l 1,1,-1
 530 634 l 1,2,-1
 572 0 l 1,3,-1
 406 0 l 1,4,-1
 375 408 l 1,5,-1
 305 240 l 1,6,-1
 379 240 l 1,7,-1
 387 117 l 1,8,-1
 234 117 l 1,9,-1
 174 0 l 1,10,-1
 -17 0 l 1,11,12
 59 139 59 139 114 244.5 c 128,-1,13
 169 350 169 350 208 427 c 128,-1,14
 247 504 247 504 271 554 c 128,-1,15
 295 604 295 604 309 633 c 1,16,-1
 201 633 l 1,17,-1
 228 781 l 1,18,-1
 395 781 l 1,19,-1
 375 666 l 1,20,-1
 467 665 l 1,21,-1
 487 781 l 1,22,-1
 646 780 l 1,0,-1
EndSplineSet
EndChar

StartChar: Aring
Encoding: 197 197 117
Width: 629
Flags: W
LayerCount: 2
Fore
SplineSet
558 0 m 1,0,-1
 391 0 l 1,1,-1
 360 408 l 1,2,-1
 289 240 l 1,3,-1
 365 239 l 1,4,-1
 371 117 l 1,5,-1
 218 117 l 1,6,-1
 158 0 l 1,7,-1
 -33 0 l 1,8,-1
 317 649 l 1,9,10
 315 653 315 653 313 657 c 0,11,12
 310 664 310 664 310 676 c 0,13,14
 310 695 310 695 315.5 714 c 128,-1,15
 321 733 321 733 334 748 c 128,-1,16
 347 763 347 763 368.5 772 c 128,-1,17
 390 781 390 781 422 781 c 0,18,19
 460 781 460 781 482 769.5 c 128,-1,20
 504 758 504 758 515.5 741.5 c 128,-1,21
 527 725 527 725 530 706.5 c 128,-1,22
 533 688 533 688 533 674 c 0,23,24
 533 659 533 659 527.5 644.5 c 128,-1,25
 522 630 522 630 517 624 c 1,26,-1
 450 667 l 1,27,28
 452 673 452 673 447.5 686 c 128,-1,29
 443 699 443 699 427 699 c 0,30,31
 410 699 410 699 403 689.5 c 128,-1,32
 396 680 396 680 396 673 c 0,33,34
 396 662 396 662 403.5 653.5 c 128,-1,35
 411 645 411 645 422 645 c 0,36,37
 434 645 434 645 441 652 c 0,38,39
 445 655 445 655 447 659 c 1,40,-1
 514 617 l 1,41,-1
 558 0 l 1,0,-1
EndSplineSet
EndChar

StartChar: AE
Encoding: 198 198 162
Width: 829
Flags: W
LayerCount: 2
Fore
SplineSet
231 0 m 1,0,-1
 37 0 l 1,1,-1
 420 666 l 1,2,-1
 791 666 l 1,3,-1
 774 528 l 1,4,-1
 639 528 l 1,5,-1
 620 401 l 1,6,-1
 749 401 l 1,7,-1
 731 269 l 1,8,-1
 598 269 l 1,9,-1
 581 148 l 1,10,-1
 713 149 l 1,11,-1
 690 0 l 1,12,-1
 396 0 l 1,13,-1
 472 468 l 1,14,-1
 334 235 l 1,15,-1
 425 236 l 1,16,-1
 406 117 l 1,17,-1
 291 117 l 1,18,-1
 231 0 l 1,0,-1
EndSplineSet
EndChar

StartChar: Ccedilla
Encoding: 199 199 118
Width: 515
Flags: W
LayerCount: 2
Fore
SplineSet
349 431 m 1,0,1
 351 440 351 440 351.5 447 c 128,-1,2
 352 454 352 454 353 459 c 0,3,4
 354 465 354 465 355 470 c 256,5,6
 356 475 356 475 355.5 486 c 128,-1,7
 355 497 355 497 351 508 c 128,-1,8
 347 519 347 519 338 527 c 128,-1,9
 329 535 329 535 314 535 c 0,10,11
 300 535 300 535 289.5 524 c 128,-1,12
 279 513 279 513 271.5 497 c 128,-1,13
 264 481 264 481 259.5 463 c 128,-1,14
 255 445 255 445 252 430 c 256,15,16
 249 415 249 415 243.5 388 c 128,-1,17
 238 361 238 361 231.5 331 c 128,-1,18
 225 301 225 301 219 272 c 128,-1,19
 213 243 213 243 210 222 c 0,20,21
 204 180 204 180 212.5 158 c 128,-1,22
 221 136 221 136 247 136 c 0,23,24
 259 136 259 136 269 144 c 128,-1,25
 279 152 279 152 286.5 163 c 128,-1,26
 294 174 294 174 299 185.5 c 128,-1,27
 304 197 304 197 305 204 c 0,28,29
 306 209 306 209 307 217 c 0,30,31
 308 224 308 224 309 233 c 128,-1,32
 310 242 310 242 312 256 c 1,33,-1
 435 256 l 1,34,35
 426 204 426 204 422 185 c 0,36,37
 419 173 419 173 418 165 c 1,38,39
 404 126 404 126 385 98 c 128,-1,40
 366 70 366 70 343 50.5 c 128,-1,41
 320 31 320 31 294.5 19 c 128,-1,42
 269 7 269 7 243 1 c 1,43,44
 245 -10 245 -10 244 -21 c 128,-1,45
 243 -32 243 -32 243 -43 c 1,46,47
 241 -56 241 -56 235 -67 c 0,48,49
 230 -77 230 -77 218.5 -87.5 c 128,-1,50
 207 -98 207 -98 187 -105 c 1,51,52
 184 -84 184 -84 177.5 -72 c 128,-1,53
 171 -60 171 -60 164.5 -55 c 128,-1,54
 158 -50 158 -50 153 -49 c 128,-1,55
 148 -48 148 -48 147 -48 c 2,56,-1
 139 -48 l 2,57,58
 135 -48 135 -48 129.5 -48.5 c 128,-1,59
 124 -49 124 -49 119 -50 c 1,60,61
 118 -45 118 -45 117.5 -29.5 c 128,-1,62
 117 -14 117 -14 127 18 c 1,63,64
 92 28 92 28 75.5 53.5 c 128,-1,65
 59 79 59 79 53 106 c 128,-1,66
 47 133 47 133 48 154.5 c 128,-1,67
 49 176 49 176 49 176 c 2,68,69
 50 184 50 184 54 210.5 c 128,-1,70
 58 237 58 237 64 272 c 128,-1,71
 70 307 70 307 76.5 346.5 c 128,-1,72
 83 386 83 386 88.5 420 c 128,-1,73
 94 454 94 454 98 478 c 128,-1,74
 102 502 102 502 103 507 c 0,75,76
 106 529 106 529 123.5 556.5 c 128,-1,77
 141 584 141 584 170.5 608.5 c 128,-1,78
 200 633 200 633 239 649.5 c 128,-1,79
 278 666 278 666 325 666 c 0,80,81
 362 666 362 666 389.5 653 c 128,-1,82
 417 640 417 640 436 622 c 128,-1,83
 455 604 455 604 466 585.5 c 128,-1,84
 477 567 477 567 480 556 c 0,85,86
 482 546 482 546 482 529 c 0,87,88
 482 514 482 514 480 490 c 128,-1,89
 478 466 478 466 473 431 c 1,90,-1
 349 431 l 1,0,1
EndSplineSet
EndChar

StartChar: Egrave
Encoding: 200 200 220
Width: 452
Flags: W
LayerCount: 2
Fore
SplineSet
266 522 m 1,0,-1
 248 395 l 1,1,-1
 386 395 l 1,2,-1
 365 267 l 1,3,-1
 223 267 l 1,4,-1
 203 146 l 1,5,-1
 346 147 l 1,6,-1
 318 2 l 1,7,8
 243 1 243 1 182 1 c 2,9,-1
 31 1 l 1,10,11
 32 7 32 7 37.5 39.5 c 128,-1,12
 43 72 43 72 50.5 120 c 128,-1,13
 58 168 58 168 67.5 227 c 128,-1,14
 77 286 77 286 87 347 c 0,15,16
 110 490 110 490 139 667 c 1,17,-1
 206 667 l 1,18,-1
 175 781 l 1,19,-1
 330 781 l 1,20,-1
 364 666 l 1,21,-1
 424 666 l 1,22,-1
 406 522 l 1,23,-1
 266 522 l 1,0,-1
EndSplineSet
EndChar

StartChar: Eacute
Encoding: 201 201 119
Width: 478
Flags: W
LayerCount: 2
Fore
SplineSet
390 781 m 1,0,-1
 368 666 l 1,1,-1
 453 666 l 1,2,-1
 430 511 l 1,3,-1
 291 511 l 1,4,-1
 273 394 l 1,5,-1
 416 394 l 1,6,-1
 396 249 l 1,7,-1
 249 249 l 1,8,-1
 232 141 l 1,9,-1
 385 141 l 1,10,-1
 366 -1 l 1,11,-1
 37 0 l 1,12,-1
 144 666 l 1,13,-1
 216 666 l 1,14,-1
 238 780 l 1,15,-1
 390 781 l 1,0,-1
EndSplineSet
EndChar

StartChar: Ecircumflex
Encoding: 202 202 217
Width: 452
Flags: W
LayerCount: 2
Fore
SplineSet
173 721 m 1,0,-1
 307 794 l 1,1,-1
 427 742 l 1,2,-1
 386 658 l 1,3,-1
 288 702 l 1,4,-1
 203 643 l 1,5,-1
 337 643 l 1,6,-1
 423 643 l 1,7,-1
 402 512 l 1,8,-1
 266 512 l 1,9,-1
 248 390 l 1,10,-1
 385 390 l 1,11,-1
 365 262 l 1,12,-1
 223 262 l 1,13,-1
 204 141 l 1,14,-1
 346 142 l 1,15,-1
 321 2 l 1,16,17
 246 1 246 1 184 1 c 2,18,-1
 31 1 l 1,19,20
 32 7 32 7 37 38 c 128,-1,21
 42 69 42 69 49.5 115.5 c 128,-1,22
 57 162 57 162 66.5 219 c 128,-1,23
 76 276 76 276 85 335 c 0,24,25
 107 472 107 472 135 642 c 1,26,-1
 162 642 l 1,27,-1
 173 721 l 1,0,-1
EndSplineSet
EndChar

StartChar: Edieresis
Encoding: 203 203 219
Width: 452
Flags: W
LayerCount: 2
Fore
SplineSet
468 781 m 1,0,-1
 449 645 l 1,1,-1
 422 645 l 1,2,-1
 406 522 l 1,3,-1
 266 522 l 1,4,-1
 248 395 l 1,5,-1
 386 395 l 1,6,-1
 365 267 l 1,7,-1
 223 267 l 1,8,-1
 203 146 l 1,9,-1
 346 147 l 1,10,-1
 318 2 l 1,11,12
 243 1 243 1 182 1 c 2,13,-1
 31 1 l 1,14,15
 32 7 32 7 37 38 c 128,-1,16
 42 69 42 69 49.5 115.5 c 128,-1,17
 57 162 57 162 66.5 219 c 128,-1,18
 76 276 76 276 86 335 c 0,19,20
 108 472 108 472 136 644 c 1,21,-1
 76 644 l 1,22,-1
 96 781 l 1,23,-1
 234 781 l 1,24,-1
 215 666 l 1,25,-1
 306 666 l 1,26,-1
 324 781 l 1,27,-1
 468 781 l 1,0,-1
EndSplineSet
EndChar

StartChar: Igrave
Encoding: 204 204 224
Width: 320
Flags: W
LayerCount: 2
Fore
SplineSet
37 0 m 1,0,-1
 143 666 l 1,1,-1
 180 666 l 1,2,-1
 101 781 l 1,3,-1
 222 781 l 1,4,-1
 255 666 l 1,5,-1
 294 666 l 1,6,-1
 185 0 l 1,7,-1
 37 0 l 1,0,-1
EndSplineSet
EndChar

StartChar: Iacute
Encoding: 205 205 221
Width: 325
Flags: W
LayerCount: 2
Fore
SplineSet
36 -1 m 1,0,-1
 146 666 l 1,1,-1
 202 667 l 1,2,-1
 221 781 l 1,3,-1
 340 781 l 1,4,-1
 266 666 l 1,5,-1
 297 666 l 1,6,-1
 184 -1 l 1,7,-1
 36 -1 l 1,0,-1
EndSplineSet
EndChar

StartChar: Icircumflex
Encoding: 206 206 222
Width: 333
Flags: W
LayerCount: 2
Fore
SplineSet
117 707 m 1,0,1
 130 716 130 716 150.5 728 c 128,-1,2
 171 740 171 740 192.5 752.5 c 128,-1,3
 214 765 214 765 234 776 c 128,-1,4
 254 787 254 787 267 794 c 1,5,-1
 375 743 l 1,6,-1
 327 651 l 1,7,8
 324 652 324 652 315 655 c 128,-1,9
 306 658 306 658 295.5 661.5 c 128,-1,10
 285 665 285 665 274.5 668.5 c 128,-1,11
 264 672 264 672 257 674 c 1,12,13
 252 670 252 670 242.5 663.5 c 128,-1,14
 233 657 233 657 223 650 c 0,15,16
 212 642 212 642 198 634 c 1,17,-1
 293 635 l 1,18,-1
 185 0 l 1,19,-1
 37 0 l 1,20,-1
 140 622 l 1,21,22
 135 648 135 648 128.5 665.5 c 128,-1,23
 122 683 122 683 117 707 c 1,0,1
EndSplineSet
EndChar

StartChar: Idieresis
Encoding: 207 207 223
Width: 336
Flags: W
LayerCount: 2
Fore
SplineSet
436 781 m 1,0,-1
 408 645 l 1,1,-1
 304 645 l 1,2,-1
 192 -1 l 1,3,-1
 44 -1 l 1,4,-1
 152 646 l 1,5,-1
 40 646 l 1,6,-1
 61 781 l 1,7,-1
 200 781 l 1,8,-1
 181 665 l 1,9,-1
 276 665 l 1,10,-1
 297 781 l 1,11,-1
 436 781 l 1,0,-1
EndSplineSet
EndChar

StartChar: Eth
Encoding: 208 208 242
Width: 535
Flags: W
LayerCount: 2
Fore
SplineSet
85 397 m 1,0,-1
 129 666 l 1,1,-1
 277 665 l 1,2,-1
 238 397 l 1,3,-1
 282 397 l 1,4,-1
 261 264 l 1,5,-1
 219 264 l 1,6,-1
 205 163 l 1,7,8
 218 166 218 166 232.5 171 c 128,-1,9
 247 176 247 176 260 185 c 128,-1,10
 273 194 273 194 283.5 209.5 c 128,-1,11
 294 225 294 225 299 249 c 0,12,13
 305 276 305 276 311 309.5 c 128,-1,14
 317 343 317 343 322 375.5 c 128,-1,15
 327 408 327 408 329.5 435.5 c 128,-1,16
 332 463 332 463 332 477 c 0,17,18
 332 489 332 489 325.5 497.5 c 128,-1,19
 319 506 319 506 309 511 c 128,-1,20
 299 516 299 516 287.5 518.5 c 128,-1,21
 276 521 276 521 266 521 c 1,22,-1
 288 666 l 1,23,-1
 379 666 l 1,24,25
 424 658 424 658 448 631 c 128,-1,26
 472 604 472 604 483.5 567.5 c 128,-1,27
 495 531 495 531 496.5 490 c 128,-1,28
 498 449 498 449 498 413 c 0,29,30
 496 291 496 291 459.5 204 c 128,-1,31
 423 117 423 117 371 58 c 1,32,33
 338 31 338 31 293.5 18.5 c 128,-1,34
 249 6 249 6 201 2 c 128,-1,35
 153 -2 153 -2 105.5 -1 c 128,-1,36
 58 0 58 0 20 0 c 1,37,-1
 63 264 l 1,38,-1
 16 264 l 1,39,-1
 37 397 l 1,40,-1
 85 397 l 1,0,-1
EndSplineSet
EndChar

StartChar: Ntilde
Encoding: 209 209 120
Width: 581
Flags: W
LayerCount: 2
Fore
SplineSet
203 754 m 1,0,1
 218 761 218 761 233 766 c 0,2,3
 246 771 246 771 260 775.5 c 128,-1,4
 274 780 274 780 286 783 c 256,5,6
 298 786 298 786 313.5 785 c 128,-1,7
 329 784 329 784 345 782.5 c 128,-1,8
 361 781 361 781 375.5 778.5 c 128,-1,9
 390 776 390 776 401 776 c 0,10,11
 412 775 412 775 425 776.5 c 128,-1,12
 438 778 438 778 449 780 c 0,13,14
 462 782 462 782 476 784 c 2,15,-1
 539 796 l 1,16,-1
 524 701 l 1,17,18
 511 697 511 697 499 693 c 0,19,20
 488 690 488 690 476.5 687.5 c 128,-1,21
 465 685 465 685 457 685 c 0,22,23
 419 685 419 685 396 686.5 c 128,-1,24
 373 688 373 688 357 689 c 128,-1,25
 341 690 341 690 330 689.5 c 128,-1,26
 319 689 319 689 305 685 c 0,27,28
 277 677 277 677 266 670 c 128,-1,29
 255 663 255 663 249 657 c 1,30,-1
 294 657 l 1,31,-1
 365 485 l 1,32,-1
 392 658 l 1,33,-1
 546 658 l 1,34,-1
 439 0 l 1,35,-1
 278 0 l 1,36,37
 287 58 287 58 295 103 c 0,38,39
 298 122 298 122 301.5 140.5 c 128,-1,40
 305 159 305 159 307.5 173.5 c 128,-1,41
 310 188 310 188 311.5 197 c 128,-1,42
 313 206 313 206 313 206 c 1,43,44
 308 214 308 214 303 223 c 0,45,46
 298 231 298 231 292.5 240 c 128,-1,47
 287 249 287 249 282 259 c 0,48,49
 268 282 268 282 251 312 c 1,50,-1
 196 0 l 1,51,-1
 37 0 l 1,52,-1
 145 656 l 1,53,-1
 189 656 l 1,54,-1
 203 754 l 1,0,1
EndSplineSet
EndChar

StartChar: Ograve
Encoding: 210 210 227
Width: 508
Flags: W
LayerCount: 2
Fore
SplineSet
324 781 m 1,0,-1
 354 666 l 1,1,2
 379 663 379 663 402 655.5 c 128,-1,3
 425 648 425 648 442 634.5 c 128,-1,4
 459 621 459 621 469.5 600 c 128,-1,5
 480 579 480 579 482 549 c 0,6,7
 483 536 483 536 482 529 c 128,-1,8
 481 522 481 522 481 518 c 0,9,10
 481 511 481 511 477.5 477 c 128,-1,11
 474 443 474 443 466.5 393.5 c 128,-1,12
 459 344 459 344 448 284.5 c 128,-1,13
 437 225 437 225 423 167 c 0,14,15
 414 130 414 130 395 103 c 128,-1,16
 376 76 376 76 352.5 57.5 c 128,-1,17
 329 39 329 39 303.5 27.5 c 128,-1,18
 278 16 278 16 256 10 c 128,-1,19
 234 4 234 4 218.5 2 c 128,-1,20
 203 0 203 0 199 0 c 2,21,-1
 171 0 l 1,22,-1
 202 167 l 1,23,24
 212 168 212 168 225 171.5 c 128,-1,25
 238 175 238 175 249.5 181 c 128,-1,26
 261 187 261 187 270 195 c 128,-1,27
 279 203 279 203 282 214 c 0,28,29
 285 223 285 223 290 245.5 c 128,-1,30
 295 268 295 268 300.5 297.5 c 128,-1,31
 306 327 306 327 311 358.5 c 128,-1,32
 316 390 316 390 320.5 417.5 c 128,-1,33
 325 445 325 445 327.5 464 c 128,-1,34
 330 483 330 483 330 487 c 0,35,36
 330 500 330 500 324 509 c 128,-1,37
 318 518 318 518 298 518 c 0,38,39
 284 518 284 518 275 515 c 128,-1,40
 266 512 266 512 260.5 505.5 c 128,-1,41
 255 499 255 499 251.5 487.5 c 128,-1,42
 248 476 248 476 244 460 c 1,43,-1
 161 2 l 1,44,45
 116 6 116 6 91.5 23.5 c 128,-1,46
 67 41 67 41 55 61 c 0,47,48
 41 84 41 84 38 112 c 1,49,50
 38 122 38 122 42 152 c 128,-1,51
 46 182 46 182 51.5 221.5 c 128,-1,52
 57 261 57 261 64 306.5 c 128,-1,53
 71 352 71 352 78 392.5 c 128,-1,54
 85 433 85 433 90 465 c 128,-1,55
 95 497 95 497 98 510 c 0,56,57
 102 527 102 527 112 550.5 c 128,-1,58
 122 574 122 574 141 597.5 c 128,-1,59
 160 621 160 621 189 640 c 128,-1,60
 218 659 218 659 259 666 c 1,61,-1
 176 781 l 1,62,-1
 324 781 l 1,0,-1
EndSplineSet
EndChar

StartChar: Oacute
Encoding: 211 211 225
Width: 508
Flags: W
LayerCount: 2
Fore
SplineSet
321 781 m 1,0,-1
 448 781 l 1,1,-1
 390 652 l 1,2,3
 428 640 428 640 452.5 612.5 c 128,-1,4
 477 585 477 585 479 536 c 0,5,6
 481 497 481 497 475.5 448 c 128,-1,7
 470 399 470 399 461.5 348.5 c 128,-1,8
 453 298 453 298 442.5 250.5 c 128,-1,9
 432 203 432 203 423 167 c 0,10,11
 408 105 408 105 376 71.5 c 128,-1,12
 344 38 344 38 308.5 22 c 128,-1,13
 273 6 273 6 242 3 c 128,-1,14
 211 0 211 0 199 0 c 2,15,-1
 189 0 l 2,16,17
 184 0 184 0 179.5 0 c 128,-1,18
 175 0 175 0 171 1 c 1,19,-1
 202 168 l 1,20,21
 226 168 226 168 240.5 172 c 128,-1,22
 255 176 255 176 263 183 c 128,-1,23
 271 190 271 190 275 198.5 c 128,-1,24
 279 207 279 207 282 215 c 1,25,26
 284 225 284 225 288 246.5 c 128,-1,27
 292 268 292 268 297 295 c 128,-1,28
 302 322 302 322 307.5 351.5 c 128,-1,29
 313 381 313 381 317 406 c 128,-1,30
 321 431 321 431 324 448.5 c 128,-1,31
 327 466 327 466 327 470 c 0,32,33
 327 483 327 483 321.5 492.5 c 128,-1,34
 316 502 316 502 296 502 c 0,35,36
 272 502 272 502 259 490 c 128,-1,37
 246 478 246 478 241 444 c 1,38,-1
 161 3 l 1,39,40
 116 6 116 6 91.5 25.5 c 128,-1,41
 67 45 67 45 54 67 c 0,42,43
 39 93 39 93 35 125 c 1,44,45
 35 134 35 134 39 163 c 128,-1,46
 43 192 43 192 49.5 231 c 128,-1,47
 56 270 56 270 63.5 314 c 128,-1,48
 71 358 71 358 78 397.5 c 128,-1,49
 85 437 85 437 90.5 468 c 128,-1,50
 96 499 96 499 98 512 c 0,51,52
 101 531 101 531 113 557.5 c 128,-1,53
 125 584 125 584 148 608 c 128,-1,54
 171 632 171 632 207.5 649 c 128,-1,55
 244 666 244 666 297 666 c 0,56,57
 305 666 305 666 309 665 c 1,58,-1
 321 781 l 1,0,-1
EndSplineSet
EndChar

StartChar: Ocircumflex
Encoding: 212 212 226
Width: 508
Flags: W
LayerCount: 2
Fore
SplineSet
252 719 m 1,0,-1
 392 792 l 1,1,-1
 508 739 l 1,2,-1
 466 656 l 1,3,-1
 368 698 l 1,4,-1
 318 662 l 1,5,6
 349 660 349 660 378 653.5 c 128,-1,7
 407 647 407 647 429.5 632 c 128,-1,8
 452 617 452 617 466 593 c 128,-1,9
 480 569 480 569 482 533 c 0,10,11
 483 520 483 520 482 511 c 128,-1,12
 481 502 481 502 481 498 c 0,13,14
 481 491 481 491 477.5 460 c 128,-1,15
 474 429 474 429 467 383.5 c 128,-1,16
 460 338 460 338 449.5 281.5 c 128,-1,17
 439 225 439 225 425 167 c 0,18,19
 416 130 416 130 397 103.5 c 128,-1,20
 378 77 378 77 354.5 58.5 c 128,-1,21
 331 40 331 40 305.5 28.5 c 128,-1,22
 280 17 280 17 258 10.5 c 128,-1,23
 236 4 236 4 220.5 2 c 128,-1,24
 205 0 205 0 201 0 c 2,25,-1
 173 0 l 1,26,-1
 204 168 l 1,27,28
 216 168 216 168 228.5 171 c 128,-1,29
 241 174 241 174 252 180 c 128,-1,30
 263 186 263 186 272 194.5 c 128,-1,31
 281 203 281 203 284 215 c 0,32,33
 287 230 287 230 294.5 267.5 c 128,-1,34
 302 305 302 305 309.5 346 c 128,-1,35
 317 387 317 387 323 420 c 128,-1,36
 329 453 329 453 329 459 c 0,37,38
 331 475 331 475 325 486.5 c 128,-1,39
 319 498 319 498 299 498 c 0,40,41
 272 498 272 498 260.5 484.5 c 128,-1,42
 249 471 249 471 244 441 c 2,43,-1
 163 2 l 1,44,45
 118 6 118 6 93.5 24.5 c 128,-1,46
 69 43 69 43 57 65 c 0,47,48
 43 90 43 90 39 121 c 1,49,50
 39 132 39 132 43 161 c 128,-1,51
 47 190 47 190 53 228.5 c 128,-1,52
 59 267 59 267 66 311 c 128,-1,53
 73 355 73 355 80 394 c 128,-1,54
 87 433 87 433 92.5 463.5 c 128,-1,55
 98 494 98 494 100 507 c 0,56,57
 103 523 103 523 112 545 c 128,-1,58
 121 567 121 567 138 589 c 128,-1,59
 155 611 155 611 181 629 c 128,-1,60
 207 647 207 647 244 656 c 1,61,-1
 252 719 l 1,0,-1
EndSplineSet
EndChar

StartChar: Otilde
Encoding: 213 213 192
Width: 508
Flags: W
LayerCount: 2
Fore
SplineSet
149 766 m 1,0,1
 161 772 161 772 176 777 c 0,2,3
 189 782 189 782 206.5 785.5 c 128,-1,4
 224 789 224 789 244 789 c 256,5,6
 264 789 264 789 290.5 784.5 c 128,-1,7
 317 780 317 780 343 774.5 c 128,-1,8
 369 769 369 769 390.5 764.5 c 128,-1,9
 412 760 412 760 422 760 c 0,10,11
 433 760 433 760 443 762.5 c 128,-1,12
 453 765 453 765 462 768 c 0,13,14
 472 772 472 772 482 776 c 1,15,-1
 470 654 l 1,16,17
 465 651 465 651 459 648 c 0,18,19
 454 646 454 646 447.5 644 c 128,-1,20
 441 642 441 642 433 642 c 1,21,22
 455 628 455 628 467.5 602 c 128,-1,23
 480 576 480 576 480 544 c 0,24,25
 480 506 480 506 474.5 455.5 c 128,-1,26
 469 405 469 405 460.5 352.5 c 128,-1,27
 452 300 452 300 442 251 c 128,-1,28
 432 202 432 202 423 166 c 0,29,30
 408 104 408 104 375.5 70.5 c 128,-1,31
 343 37 343 37 308 21 c 128,-1,32
 273 5 273 5 242 2 c 128,-1,33
 211 -1 211 -1 199 -1 c 2,34,-1
 189 -1 l 2,35,36
 184 -1 184 -1 179.5 -1 c 128,-1,37
 175 -1 175 -1 171 0 c 1,38,-1
 202 167 l 1,39,40
 214 167 214 167 226.5 169 c 128,-1,41
 239 171 239 171 250 176 c 128,-1,42
 261 181 261 181 270 190.5 c 128,-1,43
 279 200 279 200 282 214 c 0,44,45
 284 224 284 224 288.5 246 c 128,-1,46
 293 268 293 268 297.5 295.5 c 128,-1,47
 302 323 302 323 307.5 352.5 c 128,-1,48
 313 382 313 382 317.5 407 c 128,-1,49
 322 432 322 432 324.5 449.5 c 128,-1,50
 327 467 327 467 328 471 c 0,51,52
 330 484 330 484 323.5 496.5 c 128,-1,53
 317 509 317 509 297 509 c 0,54,55
 268 509 268 509 257.5 494 c 128,-1,56
 247 479 247 479 242 451 c 2,57,-1
 161 2 l 1,58,59
 116 5 116 5 91.5 22.5 c 128,-1,60
 67 40 67 40 55 60 c 0,61,62
 41 83 41 83 38 112 c 0,63,64
 36 125 36 125 40 156.5 c 128,-1,65
 44 188 44 188 50.5 229 c 128,-1,66
 57 270 57 270 65.5 315.5 c 128,-1,67
 74 361 74 361 81.5 401.5 c 128,-1,68
 89 442 89 442 95.5 473.5 c 128,-1,69
 102 505 102 505 104 518 c 0,70,71
 107 532 107 532 113.5 551.5 c 128,-1,72
 120 571 120 571 133 590.5 c 128,-1,73
 146 610 146 610 165.5 628 c 128,-1,74
 185 646 185 646 213 658 c 1,75,76
 209 658 209 658 203.5 660 c 128,-1,77
 198 662 198 662 192 662 c 0,78,79
 183 662 183 662 173 660 c 128,-1,80
 163 658 163 658 154 656 c 0,81,82
 143 653 143 653 133 651 c 1,83,-1
 149 766 l 1,0,1
EndSplineSet
EndChar

StartChar: Odieresis
Encoding: 214 214 121
Width: 508
Flags: W
LayerCount: 2
Fore
SplineSet
524 781 m 1,0,-1
 500 643 l 1,1,-1
 428 643 l 1,2,3
 446 630 446 630 456 615 c 128,-1,4
 466 600 466 600 471 586 c 0,5,6
 477 570 477 570 479 553 c 1,7,8
 477 544 477 544 472.5 514.5 c 128,-1,9
 468 485 468 485 461 445 c 128,-1,10
 454 405 454 405 446 359.5 c 128,-1,11
 438 314 438 314 431 272.5 c 128,-1,12
 424 231 424 231 418.5 199.5 c 128,-1,13
 413 168 413 168 411 155 c 0,14,15
 408 136 408 136 397.5 109.5 c 128,-1,16
 387 83 387 83 365 58.5 c 128,-1,17
 343 34 343 34 308 17 c 128,-1,18
 273 0 273 0 221 0 c 0,19,20
 187 0 187 0 155 6 c 128,-1,21
 123 12 123 12 97.5 27 c 128,-1,22
 72 42 72 42 56 67 c 128,-1,23
 40 92 40 92 38 130 c 0,24,25
 38 142 38 142 38.5 151.5 c 128,-1,26
 39 161 39 161 39 164 c 0,27,28
 40 173 40 173 45 203 c 128,-1,29
 50 233 50 233 57.5 278.5 c 128,-1,30
 65 324 65 324 74.5 380.5 c 128,-1,31
 84 437 84 437 95 499 c 0,32,33
 99 525 99 525 110.5 548 c 128,-1,34
 122 571 122 571 136.5 589.5 c 128,-1,35
 151 608 151 608 167.5 621.5 c 128,-1,36
 184 635 184 635 198 643 c 1,37,-1
 113 643 l 1,38,-1
 132 781 l 1,39,-1
 280 781 l 1,40,-1
 263 663 l 1,41,42
 283 667 283 667 297.5 666.5 c 128,-1,43
 312 666 312 666 315 666 c 0,44,45
 328 666 328 666 334 665 c 128,-1,46
 340 664 340 664 346 662 c 1,47,-1
 315 498 l 1,48,49
 306 501 306 501 295 500 c 128,-1,50
 284 499 284 499 272.5 493.5 c 128,-1,51
 261 488 261 488 251.5 477.5 c 128,-1,52
 242 467 242 467 236 451 c 0,53,54
 233 442 233 442 228 420.5 c 128,-1,55
 223 399 223 399 218 372 c 128,-1,56
 213 345 213 345 208 315.5 c 128,-1,57
 203 286 203 286 199 260.5 c 128,-1,58
 195 235 195 235 192.5 217.5 c 128,-1,59
 190 200 190 200 190 196 c 0,60,61
 190 183 190 183 196 173.5 c 128,-1,62
 202 164 202 164 222 164 c 0,63,64
 251 164 251 164 261.5 178.5 c 128,-1,65
 272 193 272 193 277 222 c 0,66,67
 301 355 301 355 316 441 c 128,-1,68
 331 527 331 527 340.5 580 c 128,-1,69
 350 633 350 633 355 660.5 c 128,-1,70
 360 688 360 688 363 705.5 c 128,-1,71
 366 723 366 723 369 738 c 128,-1,72
 372 753 372 753 377 780 c 1,73,-1
 524 781 l 1,0,-1
EndSplineSet
EndChar

StartChar: multiply
Encoding: 215 215 20
Width: 544
Flags: W
LayerCount: 2
Fore
SplineSet
197 390 m 1,0,-1
 277 295 l 1,1,-1
 390 395 l 1,2,-1
 477 295 l 1,3,-1
 366 199 l 1,4,-1
 457 96 l 1,5,-1
 347 0 l 1,6,-1
 258 107 l 1,7,-1
 152 0 l 1,8,-1
 54 96 l 1,9,-1
 169 206 l 1,10,-1
 96 295 l 1,11,-1
 197 390 l 1,0,-1
EndSplineSet
EndChar

StartChar: Oslash
Encoding: 216 216 163
Width: 605
Flags: W
LayerCount: 2
Fore
SplineSet
89 162 m 2,0,1
 89 169 89 169 92.5 200.5 c 128,-1,2
 96 232 96 232 102.5 278.5 c 128,-1,3
 109 325 109 325 119.5 381.5 c 128,-1,4
 130 438 130 438 145 497 c 0,5,6
 154 534 154 534 173 560.5 c 128,-1,7
 192 587 192 587 215.5 605.5 c 128,-1,8
 239 624 239 624 264.5 635.5 c 128,-1,9
 290 647 290 647 311.5 653.5 c 128,-1,10
 333 660 333 660 348.5 662 c 128,-1,11
 364 664 364 664 368 664 c 2,12,-1
 379 664 l 2,13,14
 384 664 384 664 388 663.5 c 128,-1,15
 392 663 392 663 396 663 c 1,16,-1
 365 496 l 1,17,18
 354 496 354 496 341.5 492.5 c 128,-1,19
 329 489 329 489 318 483 c 128,-1,20
 307 477 307 477 298 468.5 c 128,-1,21
 289 460 289 460 286 449 c 0,22,23
 283 440 283 440 278 418.5 c 128,-1,24
 273 397 273 397 268 370 c 128,-1,25
 263 343 263 343 258 313.5 c 128,-1,26
 253 284 253 284 249 258.5 c 128,-1,27
 245 233 245 233 242.5 215.5 c 128,-1,28
 240 198 240 198 240 194 c 0,29,30
 240 181 240 181 246 171.5 c 128,-1,31
 252 162 252 162 272 162 c 0,32,33
 301 162 301 162 311 174 c 128,-1,34
 321 186 321 186 327 220 c 2,35,-1
 406 661 l 1,36,-1
 464 756 l 1,37,-1
 589 685 l 1,38,-1
 525 571 l 1,39,40
 527 566 527 566 527 562 c 128,-1,41
 527 558 527 558 528 556 c 1,42,43
 528 552 528 552 529 551 c 1,44,45
 527 542 527 542 522.5 512.5 c 128,-1,46
 518 483 518 483 511 443 c 128,-1,47
 504 403 504 403 496 357.5 c 128,-1,48
 488 312 488 312 481 270.5 c 128,-1,49
 474 229 474 229 468.5 197.5 c 128,-1,50
 463 166 463 166 461 153 c 0,51,52
 458 134 458 134 447.5 107.5 c 128,-1,53
 437 81 437 81 415 56.5 c 128,-1,54
 393 32 393 32 358 15 c 128,-1,55
 323 -2 323 -2 271 -2 c 0,56,57
 245 -2 245 -2 219.5 2 c 128,-1,58
 194 6 194 6 171 14 c 1,59,-1
 128 -43 l 1,60,-1
 15 38 l 1,61,-1
 89 157 l 1,62,-1
 89 162 l 2,0,1
EndSplineSet
EndChar

StartChar: Ugrave
Encoding: 217 217 230
Width: 549
Flags: W
LayerCount: 2
Fore
SplineSet
421 666 m 1,0,-1
 523 666 l 1,1,-1
 440 140 l 2,2,3
 436 116 436 116 420.5 91.5 c 128,-1,4
 405 67 405 67 379 46.5 c 128,-1,5
 353 26 353 26 317 13 c 128,-1,6
 281 0 281 0 236 0 c 0,7,8
 166 0 166 0 128 22.5 c 128,-1,9
 90 45 90 45 72 74 c 128,-1,10
 54 103 54 103 51 130 c 128,-1,11
 48 157 48 157 48 166 c 1,12,13
 68 301 68 301 85 409 c 0,14,15
 92 455 92 455 98.5 499.5 c 128,-1,16
 105 544 105 544 110.5 580 c 128,-1,17
 116 616 116 616 119.5 639 c 128,-1,18
 123 662 123 662 123 666 c 1,19,-1
 280 666 l 1,20,-1
 223 282 l 2,21,22
 214 219 214 219 226.5 193 c 128,-1,23
 239 167 239 167 267 167 c 0,24,25
 279 167 279 167 286.5 174 c 128,-1,26
 294 181 294 181 298.5 192 c 128,-1,27
 303 203 303 203 305.5 215.5 c 128,-1,28
 308 228 308 228 310 239 c 2,29,-1
 374 625 l 1,30,-1
 335 625 l 1,31,-1
 285 781 l 1,32,-1
 396 781 l 1,33,-1
 421 666 l 1,0,-1
EndSplineSet
EndChar

StartChar: Uacute
Encoding: 218 218 228
Width: 549
Flags: W
LayerCount: 2
Fore
SplineSet
280 781 m 1,0,-1
 406 781 l 1,1,-1
 299 634 l 1,2,-1
 279 634 l 1,3,-1
 223 284 l 2,4,5
 213 222 213 222 220 195.5 c 128,-1,6
 227 169 227 169 256 169 c 0,7,8
 271 169 271 169 280.5 176 c 128,-1,9
 290 183 290 183 296 194 c 128,-1,10
 302 205 302 205 305 217.5 c 128,-1,11
 308 230 308 230 310 241 c 0,12,13
 311 246 311 246 314.5 267 c 128,-1,14
 318 288 318 288 323 319 c 128,-1,15
 328 350 328 350 334.5 387.5 c 128,-1,16
 341 425 341 425 347 464 c 0,17,18
 362 555 362 555 380 666 c 1,19,-1
 526 666 l 1,20,-1
 440 142 l 2,21,22
 436 118 436 118 420.5 93 c 128,-1,23
 405 68 405 68 378.5 47.5 c 128,-1,24
 352 27 352 27 316.5 13.5 c 128,-1,25
 281 0 281 0 236 0 c 0,26,27
 189 0 189 0 157 11 c 128,-1,28
 125 22 125 22 104 38.5 c 128,-1,29
 83 55 83 55 71.5 75 c 128,-1,30
 60 95 60 95 55 113.5 c 128,-1,31
 50 132 50 132 49 147 c 128,-1,32
 48 162 48 162 48 168 c 2,33,-1
 125 666 l 1,34,-1
 235 666 l 1,35,-1
 280 781 l 1,0,-1
EndSplineSet
EndChar

StartChar: Ucircumflex
Encoding: 219 219 229
Width: 549
Flags: W
LayerCount: 2
Fore
SplineSet
143 722 m 1,0,-1
 279 793 l 1,1,-1
 396 740 l 1,2,-1
 357 661 l 1,3,-1
 259 699 l 1,4,-1
 200 652 l 1,5,-1
 276 652 l 1,6,-1
 223 282 l 2,7,8
 214 219 214 219 219.5 193 c 128,-1,9
 225 167 225 167 253 167 c 0,10,11
 269 167 269 167 279 174 c 128,-1,12
 289 181 289 181 295.5 192 c 128,-1,13
 302 203 302 203 305 215.5 c 128,-1,14
 308 228 308 228 310 239 c 2,15,-1
 366 652 l 1,16,-1
 521 652 l 1,17,-1
 440 140 l 2,18,19
 436 116 436 116 420.5 91.5 c 128,-1,20
 405 67 405 67 379 46.5 c 128,-1,21
 353 26 353 26 317 13 c 128,-1,22
 281 0 281 0 236 0 c 0,23,24
 189 0 189 0 157 10.5 c 128,-1,25
 125 21 125 21 103.5 37 c 128,-1,26
 82 53 82 53 70.5 72.5 c 128,-1,27
 59 92 59 92 54 110.5 c 128,-1,28
 49 129 49 129 48 144 c 128,-1,29
 47 159 47 159 48 166 c 2,30,-1
 124 652 l 1,31,-1
 145 652 l 1,32,-1
 143 722 l 1,0,-1
EndSplineSet
EndChar

StartChar: Udieresis
Encoding: 220 220 122
Width: 581
Flags: W
LayerCount: 2
Fore
SplineSet
445 136 m 0,0,1
 440 112 440 112 424 88 c 128,-1,2
 408 64 408 64 381 44.5 c 128,-1,3
 354 25 354 25 317.5 12.5 c 128,-1,4
 281 0 281 0 236 0 c 0,5,6
 166 0 166 0 127.5 22 c 128,-1,7
 89 44 89 44 71 72 c 128,-1,8
 53 100 53 100 50 126.5 c 128,-1,9
 47 153 47 153 48 162 c 0,10,11
 61 256 61 256 74.5 344 c 128,-1,12
 88 432 88 432 99 501 c 0,13,14
 112 582 112 582 124 655 c 1,15,-1
 192 655 l 1,16,-1
 194 671 l 1,17,-1
 139 671 l 1,18,-1
 156 781 l 1,19,-1
 317 781 l 1,20,-1
 299 671 l 1,21,-1
 236 671 l 1,22,-1
 235 656 l 1,23,-1
 286 655 l 1,24,-1
 223 278 l 2,25,26
 213 216 213 216 219.5 189.5 c 128,-1,27
 226 163 226 163 254 163 c 0,28,29
 266 163 266 163 275.5 170 c 128,-1,30
 285 177 285 177 292 188 c 128,-1,31
 299 199 299 199 303.5 211.5 c 128,-1,32
 308 224 308 224 310 235 c 2,33,-1
 377 655 l 1,34,-1
 445 656 l 1,35,-1
 446 671 l 1,36,-1
 390 671 l 1,37,-1
 409 781 l 1,38,-1
 565 781 l 1,39,-1
 548 671 l 1,40,-1
 493 671 l 1,41,-1
 492 655 l 1,42,-1
 530 654 l 1,43,44
 512 540 512 540 496 439 c 0,45,46
 489 396 489 396 481.5 351.5 c 128,-1,47
 474 307 474 307 467.5 266.5 c 128,-1,48
 461 226 461 226 455 192 c 128,-1,49
 449 158 449 158 445 136 c 0,0,1
EndSplineSet
EndChar

StartChar: Yacute
Encoding: 221 221 6
Width: 571
Flags: W
LayerCount: 2
Fore
SplineSet
577 666 m 1,0,-1
 351 303 l 1,1,-1
 308 0 l 1,2,-1
 128 0 l 1,3,-1
 190 377 l 1,4,-1
 45 666 l 1,5,-1
 144 666 l 1,6,-1
 194 780 l 1,7,-1
 356 781 l 1,8,-1
 240 624 l 1,9,-1
 287 509 l 1,10,-1
 375 666 l 1,11,-1
 577 666 l 1,0,-1
EndSplineSet
EndChar

StartChar: Thorn
Encoding: 222 222 8
Width: 597
Flags: W
LayerCount: 2
Fore
SplineSet
184 -1 m 1,0,-1
 36 -1 l 1,1,-1
 146 665 l 1,2,-1
 296 666 l 1,3,-1
 221 223 l 1,4,5
 222 221 222 221 226.5 216 c 128,-1,6
 231 211 231 211 238.5 206 c 128,-1,7
 246 201 246 201 256.5 196.5 c 128,-1,8
 267 192 267 192 280 192 c 0,9,10
 300 192 300 192 314 198 c 128,-1,11
 328 204 328 204 337.5 212.5 c 128,-1,12
 347 221 347 221 352 229.5 c 128,-1,13
 357 238 357 238 360 244 c 0,14,15
 363 249 363 249 366 263 c 128,-1,16
 369 277 369 277 372 293 c 128,-1,17
 375 309 375 309 377.5 322.5 c 128,-1,18
 380 336 380 336 381 341 c 0,19,20
 383 350 383 350 383.5 368.5 c 128,-1,21
 384 387 384 387 378 399 c 1,22,23
 373 412 373 412 361 415.5 c 128,-1,24
 349 419 349 419 329 417 c 0,25,26
 319 416 319 416 307.5 411 c 128,-1,27
 296 406 296 406 285 399 c 0,28,29
 273 391 273 391 261 381 c 1,30,-1
 281 508 l 1,31,32
 300 523 300 523 322 535 c 0,33,34
 341 546 341 546 366.5 555 c 128,-1,35
 392 564 392 564 422 566 c 0,36,37
 440 567 440 567 466 558.5 c 128,-1,38
 492 550 492 550 515.5 533.5 c 128,-1,39
 539 517 539 517 555.5 492.5 c 128,-1,40
 572 468 572 468 572 437 c 0,41,42
 572 380 572 380 560.5 330.5 c 128,-1,43
 549 281 549 281 539 245 c 0,44,45
 536 234 536 234 522 210 c 128,-1,46
 508 186 508 186 483 161 c 128,-1,47
 458 136 458 136 422 117.5 c 128,-1,48
 386 99 386 99 338 99 c 0,49,50
 281 99 281 99 250.5 110.5 c 128,-1,51
 220 122 220 122 206 131 c 1,52,-1
 184 -1 l 1,0,-1
EndSplineSet
EndChar

StartChar: germandbls
Encoding: 223 223 155
Width: 588
Flags: W
LayerCount: 2
Fore
SplineSet
423 371 m 1,0,1
 441 365 441 365 462 352 c 128,-1,2
 483 339 483 339 501 317.5 c 128,-1,3
 519 296 519 296 529.5 264.5 c 128,-1,4
 540 233 540 233 536 190 c 1,5,6
 532 161 532 161 517.5 128 c 128,-1,7
 503 95 503 95 478 66.5 c 128,-1,8
 453 38 453 38 417 19 c 128,-1,9
 381 0 381 0 333 0 c 1,10,11
 346 -1 346 -1 348 -1 c 256,12,13
 350 -1 350 -1 341 -1 c 128,-1,14
 332 -1 332 -1 300 0 c 1,15,-1
 321 134 l 1,16,17
 329 134 329 134 339 138.5 c 128,-1,18
 349 143 349 143 358 150.5 c 128,-1,19
 367 158 367 158 374 168.5 c 128,-1,20
 381 179 381 179 383 190 c 0,21,22
 389 220 389 220 385 246 c 128,-1,23
 381 272 381 272 369 291.5 c 128,-1,24
 357 311 357 311 339 322 c 128,-1,25
 321 333 321 333 299 333 c 1,26,-1
 316 429 l 1,27,28
 342 429 342 429 357.5 433 c 128,-1,29
 373 437 373 437 381.5 443 c 128,-1,30
 390 449 390 449 393 456 c 128,-1,31
 396 463 396 463 397 469 c 0,32,33
 399 481 399 481 393.5 489 c 128,-1,34
 388 497 388 497 378.5 502 c 128,-1,35
 369 507 369 507 358 509 c 128,-1,36
 347 511 347 511 338 511 c 2,37,-1
 310 511 l 1,38,-1
 220 0 l 1,39,-1
 58 0 l 1,40,-1
 169 658 l 1,41,-1
 364 658 l 2,42,43
 382 658 382 658 411 649.5 c 128,-1,44
 440 641 440 641 466 619.5 c 128,-1,45
 492 598 492 598 508.5 561.5 c 128,-1,46
 525 525 525 525 518 469 c 0,47,48
 516 458 516 458 508 443 c 128,-1,49
 500 428 500 428 487.5 413.5 c 128,-1,50
 475 399 475 399 458.5 387 c 128,-1,51
 442 375 442 375 423 371 c 1,0,1
EndSplineSet
EndChar

StartChar: agrave
Encoding: 224 224 124
Width: 623
Flags: W
LayerCount: 2
Fore
SplineSet
344 459 m 1,0,1
 365 453 365 453 384 443 c 128,-1,2
 403 433 403 433 414 419 c 1,3,-1
 422 469 l 1,4,-1
 577 469 l 1,5,-1
 498 -1 l 1,6,-1
 332 0 l 1,7,-1
 390 337 l 1,8,-1
 388 348 l 1,9,10
 384 356 384 356 377 363 c 0,11,12
 370 369 370 369 359 374 c 128,-1,13
 348 379 348 379 328 379 c 256,14,15
 308 379 308 379 293.5 370 c 128,-1,16
 279 361 279 361 269.5 349.5 c 128,-1,17
 260 338 260 338 255 327 c 128,-1,18
 250 316 250 316 249 312 c 0,19,20
 248 307 248 307 244 289 c 128,-1,21
 240 271 240 271 235.5 248.5 c 128,-1,22
 231 226 231 226 227.5 204.5 c 128,-1,23
 224 183 224 183 224 172 c 0,24,25
 224 160 224 160 232 153.5 c 128,-1,26
 240 147 240 147 251 143 c 128,-1,27
 262 139 262 139 273.5 138 c 128,-1,28
 285 137 285 137 292 137 c 0,29,30
 300 137 300 137 310 142.5 c 128,-1,31
 320 148 320 148 330 156 c 0,32,33
 341 164 341 164 353 175 c 1,34,-1
 332 61 l 1,35,36
 309 44 309 44 291 32 c 128,-1,37
 273 20 273 20 256.5 12.5 c 128,-1,38
 240 5 240 5 223 2 c 128,-1,39
 206 -1 206 -1 185 -1 c 0,40,41
 152 -1 152 -1 124 8.5 c 128,-1,42
 96 18 96 18 75.5 33 c 128,-1,43
 55 48 55 48 43 67 c 128,-1,44
 31 86 31 86 31 104 c 0,45,46
 31 111 31 111 32 122 c 128,-1,47
 33 133 33 133 36 148 c 0,48,49
 44 193 44 193 51 231 c 0,50,51
 57 263 57 263 63 294 c 128,-1,52
 69 325 69 325 72 337 c 1,53,54
 98 393 98 393 143 424 c 128,-1,55
 188 455 188 455 238 464 c 1,56,-1
 161 594 l 1,57,-1
 311 594 l 1,58,-1
 344 459 l 1,0,1
EndSplineSet
EndChar

StartChar: aacute
Encoding: 225 225 123
Width: 623
Flags: W
LayerCount: 2
Fore
SplineSet
257 594 m 1,0,-1
 398 594 l 1,1,-1
 342 460 l 1,2,3
 363 453 363 453 383 443 c 128,-1,4
 403 433 403 433 414 419 c 1,5,-1
 422 469 l 1,6,-1
 577 469 l 1,7,-1
 498 -1 l 1,8,-1
 332 0 l 1,9,-1
 390 337 l 1,10,-1
 388 348 l 1,11,12
 384 356 384 356 377 363 c 0,13,14
 370 369 370 369 359 374 c 128,-1,15
 348 379 348 379 328 379 c 256,16,17
 308 379 308 379 293.5 370 c 128,-1,18
 279 361 279 361 269.5 349.5 c 128,-1,19
 260 338 260 338 255 327 c 128,-1,20
 250 316 250 316 249 312 c 0,21,22
 248 307 248 307 244 289 c 128,-1,23
 240 271 240 271 235.5 248.5 c 128,-1,24
 231 226 231 226 227.5 204.5 c 128,-1,25
 224 183 224 183 224 172 c 0,26,27
 224 160 224 160 232 153.5 c 128,-1,28
 240 147 240 147 251 143 c 128,-1,29
 262 139 262 139 273.5 138 c 128,-1,30
 285 137 285 137 292 137 c 0,31,32
 300 137 300 137 310 142.5 c 128,-1,33
 320 148 320 148 330 156 c 0,34,35
 341 164 341 164 353 175 c 1,36,-1
 332 61 l 1,37,38
 309 44 309 44 291 32 c 128,-1,39
 273 20 273 20 256.5 12.5 c 128,-1,40
 240 5 240 5 223 2 c 128,-1,41
 206 -1 206 -1 185 -1 c 0,42,43
 152 -1 152 -1 124 8.5 c 128,-1,44
 96 18 96 18 75.5 33 c 128,-1,45
 55 48 55 48 43 67 c 128,-1,46
 31 86 31 86 31 104 c 0,47,48
 31 111 31 111 32 122 c 128,-1,49
 33 133 33 133 36 148 c 0,50,51
 44 193 44 193 51 231 c 0,52,53
 57 263 57 263 63 294 c 128,-1,54
 69 325 69 325 72 337 c 1,55,56
 98 393 98 393 141.5 423 c 128,-1,57
 185 453 185 453 235 464 c 1,58,-1
 257 594 l 1,0,-1
EndSplineSet
EndChar

StartChar: acircumflex
Encoding: 226 226 125
Width: 623
Flags: W
LayerCount: 2
Fore
SplineSet
193 562 m 1,0,1
 216 572 216 572 236 581 c 0,2,3
 253 589 253 589 270.5 595.5 c 128,-1,4
 288 602 288 602 297 604 c 0,5,6
 306 605 306 605 327 606 c 128,-1,7
 348 607 348 607 371.5 608 c 128,-1,8
 395 609 395 609 415.5 609.5 c 128,-1,9
 436 610 436 610 443 612 c 0,10,11
 460 615 460 615 477.5 621 c 128,-1,12
 495 627 495 627 510 632 c 0,13,14
 528 638 528 638 544 645 c 1,15,-1
 528 530 l 1,16,17
 515 524 515 524 499 519 c 0,18,19
 485 514 485 514 468 510 c 128,-1,20
 451 506 451 506 433 504 c 0,21,22
 428 503 428 503 408 502.5 c 128,-1,23
 388 502 388 502 365 501 c 128,-1,24
 342 500 342 500 320 498.5 c 128,-1,25
 298 497 298 497 288 495 c 0,26,27
 274 492 274 492 256 482 c 128,-1,28
 238 472 238 472 221 461 c 1,29,30
 256 469 256 469 287 469 c 0,31,32
 301 469 301 469 319 465.5 c 128,-1,33
 337 462 337 462 355 455.5 c 128,-1,34
 373 449 373 449 388.5 440 c 128,-1,35
 404 431 404 431 414 419 c 1,36,-1
 422 469 l 1,37,-1
 577 469 l 1,38,-1
 498 -1 l 1,39,-1
 332 0 l 1,40,-1
 390 337 l 1,41,-1
 388 348 l 1,42,43
 384 356 384 356 377 363 c 0,44,45
 370 369 370 369 359 374 c 128,-1,46
 348 379 348 379 328 379 c 256,47,48
 308 379 308 379 293.5 370 c 128,-1,49
 279 361 279 361 269.5 349.5 c 128,-1,50
 260 338 260 338 255 327 c 128,-1,51
 250 316 250 316 249 312 c 0,52,53
 248 307 248 307 244 289 c 128,-1,54
 240 271 240 271 235.5 248.5 c 128,-1,55
 231 226 231 226 227.5 204.5 c 128,-1,56
 224 183 224 183 224 172 c 0,57,58
 224 160 224 160 232 153.5 c 128,-1,59
 240 147 240 147 251 143 c 128,-1,60
 262 139 262 139 273.5 138 c 128,-1,61
 285 137 285 137 292 137 c 0,62,63
 300 137 300 137 310 142.5 c 128,-1,64
 320 148 320 148 330 156 c 0,65,66
 341 164 341 164 353 175 c 1,67,-1
 332 61 l 1,68,69
 309 44 309 44 291 32 c 128,-1,70
 273 20 273 20 256.5 12.5 c 128,-1,71
 240 5 240 5 223 2 c 128,-1,72
 206 -1 206 -1 185 -1 c 0,73,74
 152 -1 152 -1 124 8.5 c 128,-1,75
 96 18 96 18 75.5 33 c 128,-1,76
 55 48 55 48 43 67 c 128,-1,77
 31 86 31 86 31 104 c 0,78,79
 31 111 31 111 32 122 c 128,-1,80
 33 133 33 133 36 148 c 0,81,82
 44 193 44 193 51 231 c 0,83,84
 57 263 57 263 63 294 c 128,-1,85
 69 325 69 325 72 337 c 1,86,87
 91 376 91 376 118.5 402.5 c 128,-1,88
 146 429 146 429 179 445 c 1,89,-1
 193 562 l 1,0,1
EndSplineSet
EndChar

StartChar: atilde
Encoding: 227 227 127
Width: 623
Flags: W
LayerCount: 2
Fore
SplineSet
498 -1 m 1,0,-1
 332 0 l 1,1,-1
 390 337 l 1,2,-1
 388 348 l 1,3,4
 384 356 384 356 377 363 c 0,5,6
 370 369 370 369 359 374 c 128,-1,7
 348 379 348 379 328 379 c 256,8,9
 308 379 308 379 293.5 370 c 128,-1,10
 279 361 279 361 269.5 349.5 c 128,-1,11
 260 338 260 338 255 327 c 128,-1,12
 250 316 250 316 249 312 c 0,13,14
 248 307 248 307 244 289 c 128,-1,15
 240 271 240 271 235.5 248.5 c 128,-1,16
 231 226 231 226 227.5 204.5 c 128,-1,17
 224 183 224 183 224 172 c 0,18,19
 224 160 224 160 232 153.5 c 128,-1,20
 240 147 240 147 251 143 c 128,-1,21
 262 139 262 139 273.5 138 c 128,-1,22
 285 137 285 137 292 137 c 0,23,24
 300 137 300 137 310 142.5 c 128,-1,25
 320 148 320 148 330 156 c 0,26,27
 341 164 341 164 353 175 c 1,28,-1
 332 61 l 1,29,30
 309 44 309 44 291 32 c 128,-1,31
 273 20 273 20 256.5 12.5 c 128,-1,32
 240 5 240 5 223 2 c 128,-1,33
 206 -1 206 -1 185 -1 c 0,34,35
 152 -1 152 -1 124 8.5 c 128,-1,36
 96 18 96 18 75.5 33 c 128,-1,37
 55 48 55 48 43 67 c 128,-1,38
 31 86 31 86 31 104 c 0,39,40
 31 111 31 111 32 122 c 128,-1,41
 33 133 33 133 36 148 c 0,42,43
 44 193 44 193 51 231 c 0,44,45
 57 263 57 263 63 294 c 128,-1,46
 69 325 69 325 72 337 c 1,47,48
 90 376 90 376 118 402.5 c 128,-1,49
 146 429 146 429 179 445 c 1,50,-1
 193 562 l 1,51,52
 213 572 213 572 234 581 c 0,53,54
 251 589 251 589 272 596 c 128,-1,55
 293 603 293 603 312 606 c 0,56,57
 338 610 338 610 374.5 608.5 c 128,-1,58
 411 607 411 607 442 612 c 0,59,60
 478 618 478 618 503 628.5 c 128,-1,61
 528 639 528 639 545 649 c 1,62,-1
 528 530 l 1,63,64
 511 519 511 519 485 512.5 c 128,-1,65
 459 506 459 506 429 504 c 0,66,67
 392 501 392 501 360.5 501.5 c 128,-1,68
 329 502 329 502 303 498 c 0,69,70
 288 496 288 496 269 486 c 128,-1,71
 250 476 250 476 234 462 c 1,72,73
 251 467 251 467 260.5 468 c 128,-1,74
 270 469 270 469 287 469 c 0,75,76
 301 469 301 469 319 465.5 c 128,-1,77
 337 462 337 462 355 455.5 c 128,-1,78
 373 449 373 449 388.5 440 c 128,-1,79
 404 431 404 431 414 419 c 1,80,-1
 422 469 l 1,81,-1
 577 469 l 1,82,-1
 498 -1 l 1,0,-1
EndSplineSet
EndChar

StartChar: adieresis
Encoding: 228 228 126
Width: 623
Flags: W
LayerCount: 2
Fore
SplineSet
343 481 m 1,0,-1
 310 481 l 1,1,-1
 333 594 l 1,2,-1
 467 594 l 1,3,-1
 443 480 l 1,4,-1
 385 480 l 1,5,-1
 377 446 l 1,6,7
 401 435 401 435 414 419 c 1,8,-1
 422 469 l 1,9,-1
 577 469 l 1,10,-1
 498 -1 l 1,11,-1
 332 0 l 1,12,-1
 390 337 l 1,13,-1
 388 348 l 1,14,15
 384 356 384 356 377 363 c 0,16,17
 370 369 370 369 359 374 c 128,-1,18
 348 379 348 379 328 379 c 256,19,20
 308 379 308 379 293.5 370 c 128,-1,21
 279 361 279 361 269.5 349.5 c 128,-1,22
 260 338 260 338 255 327 c 128,-1,23
 250 316 250 316 249 312 c 0,24,25
 248 307 248 307 244 289 c 128,-1,26
 240 271 240 271 235.5 248.5 c 128,-1,27
 231 226 231 226 227.5 204.5 c 128,-1,28
 224 183 224 183 224 172 c 0,29,30
 224 160 224 160 232 153.5 c 128,-1,31
 240 147 240 147 251 143 c 128,-1,32
 262 139 262 139 273.5 138 c 128,-1,33
 285 137 285 137 292 137 c 0,34,35
 300 137 300 137 310 142.5 c 128,-1,36
 320 148 320 148 330 156 c 0,37,38
 341 164 341 164 353 175 c 1,39,-1
 332 61 l 1,40,41
 309 44 309 44 291 32 c 128,-1,42
 273 20 273 20 256.5 12.5 c 128,-1,43
 240 5 240 5 223 2 c 128,-1,44
 206 -1 206 -1 185 -1 c 0,45,46
 152 -1 152 -1 124 8.5 c 128,-1,47
 96 18 96 18 75.5 33 c 128,-1,48
 55 48 55 48 43 67 c 128,-1,49
 31 86 31 86 31 104 c 0,50,51
 31 111 31 111 32 122 c 128,-1,52
 33 133 33 133 36 148 c 0,53,54
 44 193 44 193 51 231 c 0,55,56
 57 263 57 263 63 294 c 128,-1,57
 69 325 69 325 72 337 c 1,58,59
 95 385 95 385 130.5 414 c 128,-1,60
 166 443 166 443 208 457 c 1,61,-1
 211 479 l 1,62,-1
 156 479 l 1,63,-1
 177 594 l 1,64,-1
 316 594 l 1,65,-1
 293 479 l 1,66,-1
 248 479 l 1,67,-1
 246 466 l 1,68,69
 267 469 267 469 287 469 c 0,70,71
 309 469 309 469 338 461 c 1,72,-1
 343 481 l 1,0,-1
EndSplineSet
EndChar

StartChar: aring
Encoding: 229 229 128
Width: 618
Flags: W
LayerCount: 2
Fore
SplineSet
498 -1 m 1,0,-1
 332 0 l 1,1,-1
 390 337 l 1,2,-1
 388 348 l 1,3,4
 384 356 384 356 377 363 c 0,5,6
 370 369 370 369 359 374 c 128,-1,7
 348 379 348 379 328 379 c 256,8,9
 308 379 308 379 293.5 370 c 128,-1,10
 279 361 279 361 269.5 349.5 c 128,-1,11
 260 338 260 338 255 327 c 128,-1,12
 250 316 250 316 249 312 c 0,13,14
 248 307 248 307 244 289 c 128,-1,15
 240 271 240 271 235.5 248.5 c 128,-1,16
 231 226 231 226 227.5 204.5 c 128,-1,17
 224 183 224 183 224 172 c 0,18,19
 224 160 224 160 232 153.5 c 128,-1,20
 240 147 240 147 251 143 c 128,-1,21
 262 139 262 139 273.5 138 c 128,-1,22
 285 137 285 137 292 137 c 0,23,24
 300 137 300 137 310 142.5 c 128,-1,25
 320 148 320 148 330 156 c 0,26,27
 341 164 341 164 353 175 c 1,28,-1
 332 61 l 1,29,30
 309 44 309 44 291 32 c 128,-1,31
 273 20 273 20 256.5 12.5 c 128,-1,32
 240 5 240 5 223 2 c 128,-1,33
 206 -1 206 -1 185 -1 c 0,34,35
 152 -1 152 -1 124 8.5 c 128,-1,36
 96 18 96 18 75.5 33 c 128,-1,37
 55 48 55 48 43 67 c 128,-1,38
 31 86 31 86 31 104 c 0,39,40
 31 111 31 111 32 122 c 128,-1,41
 33 133 33 133 36 148 c 0,42,43
 44 193 44 193 51 231 c 0,44,45
 57 263 57 263 63 294 c 128,-1,46
 69 325 69 325 72 337 c 1,47,48
 94 383 94 383 129 413 c 128,-1,49
 164 443 164 443 206 455 c 1,50,51
 184 470 184 470 173 495 c 128,-1,52
 162 520 162 520 162 543 c 0,53,54
 162 571 162 571 173 591.5 c 128,-1,55
 184 612 184 612 200.5 625.5 c 128,-1,56
 217 639 217 639 237 645.5 c 128,-1,57
 257 652 257 652 275 652 c 0,58,59
 296 652 296 652 316 645.5 c 128,-1,60
 336 639 336 639 352 625.5 c 128,-1,61
 368 612 368 612 378 591 c 128,-1,62
 388 570 388 570 388 540 c 0,63,64
 388 519 388 519 382.5 504.5 c 128,-1,65
 377 490 377 490 371 480 c 0,66,67
 364 469 364 469 355 462 c 1,68,-1
 299 528 l 1,69,70
 300 530 300 530 302 533 c 0,71,72
 303 535 303 535 304 538.5 c 128,-1,73
 305 542 305 542 305 545 c 0,74,75
 305 550 305 550 298 560.5 c 128,-1,76
 291 571 291 571 279 571 c 0,77,78
 268 571 268 571 260 563 c 128,-1,79
 252 555 252 555 252 542 c 256,80,81
 252 529 252 529 263 522 c 128,-1,82
 274 515 274 515 279 515 c 256,83,84
 284 515 284 515 290 519 c 0,85,86
 293 521 293 521 295 523 c 1,87,-1
 350 457 l 1,88,89
 369 451 369 451 386 441.5 c 128,-1,90
 403 432 403 432 414 419 c 1,91,-1
 422 469 l 1,92,-1
 577 469 l 1,93,-1
 498 -1 l 1,0,-1
EndSplineSet
EndChar

StartChar: ae
Encoding: 230 230 178
Width: 805
Flags: W
LayerCount: 2
Fore
SplineSet
639 468 m 0,0,1
 659 468 659 468 682.5 460.5 c 128,-1,2
 706 453 706 453 725.5 438 c 128,-1,3
 745 423 745 423 757 400 c 128,-1,4
 769 377 769 377 766 346 c 0,5,6
 762 306 762 306 743.5 280.5 c 128,-1,7
 725 255 725 255 700 241 c 128,-1,8
 675 227 675 227 647 221.5 c 128,-1,9
 619 216 619 216 595 216 c 2,10,-1
 565 216 l 2,11,12
 558 216 558 216 551 217 c 1,13,-1
 561 277 l 1,14,-1
 578 277 l 2,15,16
 593 277 593 277 613 280 c 1,17,18
 629 281 629 281 639 286.5 c 128,-1,19
 649 292 649 292 654.5 298.5 c 128,-1,20
 660 305 660 305 662 312.5 c 128,-1,21
 664 320 664 320 664 325 c 0,22,23
 665 334 665 334 653 341.5 c 128,-1,24
 641 349 641 349 621 349 c 0,25,26
 609 349 609 349 597.5 343 c 128,-1,27
 586 337 586 337 576.5 328 c 128,-1,28
 567 319 567 319 560.5 308 c 128,-1,29
 554 297 554 297 552 286 c 0,30,31
 547 256 547 256 543.5 226 c 128,-1,32
 540 196 540 196 538 178 c 0,33,34
 536 164 536 164 549.5 152 c 128,-1,35
 563 140 563 140 586 140 c 0,36,37
 605 140 605 140 627 155.5 c 128,-1,38
 649 171 649 171 672 185 c 0,39,40
 679 189 679 189 690 183.5 c 128,-1,41
 701 178 701 178 710.5 168 c 128,-1,42
 720 158 720 158 725 147 c 128,-1,43
 730 136 730 136 725 129 c 0,44,45
 722 124 722 124 704 103.5 c 128,-1,46
 686 83 686 83 656 60 c 128,-1,47
 626 37 626 37 584.5 18.5 c 128,-1,48
 543 0 543 0 494 0 c 0,49,50
 454 0 454 0 426.5 7 c 128,-1,51
 399 14 399 14 382 26 c 128,-1,52
 365 38 365 38 358.5 53.5 c 128,-1,53
 352 69 352 69 355 86 c 2,54,-1
 376 215 l 1,55,56
 371 219 371 219 366 223.5 c 128,-1,57
 361 228 361 228 353 231.5 c 128,-1,58
 345 235 345 235 332.5 237 c 128,-1,59
 320 239 320 239 300 239 c 0,60,61
 288 239 288 239 275.5 234.5 c 128,-1,62
 263 230 263 230 252.5 222.5 c 128,-1,63
 242 215 242 215 235 205.5 c 128,-1,64
 228 196 228 196 227 186 c 0,65,66
 224 170 224 170 228 160 c 128,-1,67
 232 150 232 150 240 145 c 128,-1,68
 248 140 248 140 258.5 138 c 128,-1,69
 269 136 269 136 280 137 c 256,70,71
 291 138 291 138 304 144.5 c 128,-1,72
 317 151 317 151 330 159 c 0,73,74
 344 168 344 168 360 180 c 1,75,-1
 342 69 l 1,76,77
 323 50 323 50 308 37 c 128,-1,78
 293 24 293 24 276.5 15.5 c 128,-1,79
 260 7 260 7 239 3.5 c 128,-1,80
 218 0 218 0 185 0 c 256,81,82
 152 0 152 0 128 8.5 c 128,-1,83
 104 17 104 17 88 31.5 c 128,-1,84
 72 46 72 46 63.5 64 c 128,-1,85
 55 82 55 82 54 102 c 1,86,87
 52 121 52 121 56 138 c 128,-1,88
 60 155 60 155 65 181 c 0,89,90
 72 223 72 223 98 252 c 128,-1,91
 124 281 124 281 158 298 c 128,-1,92
 192 315 192 315 230 322.5 c 128,-1,93
 268 330 268 330 301 330 c 0,94,95
 326 330 326 330 349 321.5 c 128,-1,96
 372 313 372 313 393 301 c 1,97,-1
 396 314 l 2,98,99
 397 320 397 320 397.5 333 c 128,-1,100
 398 346 398 346 393 358.5 c 128,-1,101
 388 371 388 371 374.5 381 c 128,-1,102
 361 391 361 391 334 391 c 0,103,104
 313 391 313 391 300 385 c 128,-1,105
 287 379 287 379 279 372 c 0,106,107
 270 363 270 363 267 353 c 1,108,-1
 182 402 l 1,109,110
 197 421 197 421 219 436 c 0,111,112
 238 449 238 449 266 459.5 c 128,-1,113
 294 470 294 470 334 470 c 0,114,115
 392 470 392 470 427 455 c 128,-1,116
 462 440 462 440 484 417 c 1,117,118
 491 424 491 424 504 433 c 128,-1,119
 517 442 517 442 535.5 450 c 128,-1,120
 554 458 554 458 580 463 c 128,-1,121
 606 468 606 468 639 468 c 0,0,1
EndSplineSet
EndChar

StartChar: ccedilla
Encoding: 231 231 129
Width: 511
Flags: W
LayerCount: 2
Fore
SplineSet
133 8 m 1,0,1
 102 19 102 19 77 43 c 128,-1,2
 52 67 52 67 42 98 c 0,3,4
 40 105 40 105 38.5 119.5 c 128,-1,5
 37 134 37 134 39 145 c 0,6,7
 44 171 44 171 48 198 c 0,8,9
 52 221 52 221 56.5 248 c 128,-1,10
 61 275 61 275 65 299 c 0,11,12
 69 322 69 322 81.5 341.5 c 128,-1,13
 94 361 94 361 108 376 c 0,14,15
 124 392 124 392 146.5 409 c 128,-1,16
 169 426 169 426 195.5 439.5 c 128,-1,17
 222 453 222 453 252.5 462 c 128,-1,18
 283 471 283 471 315 471 c 0,19,20
 383 471 383 471 417 452 c 128,-1,21
 451 433 451 433 468 403 c 0,22,23
 483 377 483 377 481 350.5 c 128,-1,24
 479 324 479 324 465 315 c 0,25,26
 445 302 445 302 431.5 311 c 128,-1,27
 418 320 418 320 410 331 c 1,28,29
 402 348 402 348 385.5 365.5 c 128,-1,30
 369 383 369 383 343 383 c 0,31,32
 337 383 337 383 326 382 c 128,-1,33
 315 381 315 381 303.5 376.5 c 128,-1,34
 292 372 292 372 281.5 363.5 c 128,-1,35
 271 355 271 355 265 340 c 1,36,37
 254 304 254 304 245 269.5 c 128,-1,38
 236 235 236 235 236 197 c 0,39,40
 236 189 236 189 237 181 c 128,-1,41
 238 173 238 173 242.5 166.5 c 128,-1,42
 247 160 247 160 256 155.5 c 128,-1,43
 265 151 265 151 280 151 c 0,44,45
 309 151 309 151 332 167.5 c 128,-1,46
 355 184 355 184 378 203 c 1,47,48
 393 210 393 210 408 208.5 c 128,-1,49
 423 207 423 207 433.5 198.5 c 128,-1,50
 444 190 444 190 448.5 176.5 c 128,-1,51
 453 163 453 163 447 148 c 1,52,53
 413 87 413 87 360 51 c 128,-1,54
 307 15 307 15 242 4 c 1,55,56
 245 -11 245 -11 246.5 -33 c 128,-1,57
 248 -55 248 -55 242 -72 c 0,58,59
 237 -86 237 -86 228.5 -93 c 128,-1,60
 220 -100 220 -100 212 -105 c 0,61,62
 202 -110 202 -110 192 -112 c 1,63,64
 189 -104 189 -104 185 -96 c 0,65,66
 182 -89 182 -89 178.5 -81.5 c 128,-1,67
 175 -74 175 -74 171 -68 c 0,68,69
 167 -63 167 -63 159.5 -60.5 c 128,-1,70
 152 -58 152 -58 144 -58 c 0,71,72
 135 -58 135 -58 125 -59 c 1,73,74
 122 -36 122 -36 125 -22.5 c 128,-1,75
 128 -9 128 -9 133 8 c 1,0,1
EndSplineSet
EndChar

StartChar: egrave
Encoding: 232 232 131
Width: 471
Flags: W
LayerCount: 2
Fore
SplineSet
161 594 m 1,0,-1
 313 594 l 1,1,-1
 345 458 l 1,2,3
 378 447 378 447 401 423 c 128,-1,4
 424 399 424 399 429 361 c 1,5,6
 433 321 433 321 419 296 c 128,-1,7
 405 271 405 271 383.5 257 c 128,-1,8
 362 243 362 243 339 237 c 128,-1,9
 316 231 316 231 302 230 c 0,10,11
 294 229 294 229 279.5 229 c 128,-1,12
 265 229 265 229 250 230 c 1,13,14
 232 230 232 230 213 231 c 1,15,-1
 228 287 l 1,16,17
 234 288 234 288 242 289 c 0,18,19
 249 290 249 290 257.5 291 c 128,-1,20
 266 292 266 292 275 294 c 1,21,22
 307 297 307 297 317.5 312.5 c 128,-1,23
 328 328 328 328 326 339 c 0,24,25
 326 340 326 340 325 344 c 128,-1,26
 324 348 324 348 321 352.5 c 128,-1,27
 318 357 318 357 312.5 360.5 c 128,-1,28
 307 364 307 364 297 364 c 0,29,30
 238 364 238 364 219 286 c 0,31,32
 216 272 216 272 212 255 c 128,-1,33
 208 238 208 238 205 223 c 128,-1,34
 202 208 202 208 200 197 c 128,-1,35
 198 186 198 186 198 182 c 0,36,37
 198 173 198 173 204 167.5 c 128,-1,38
 210 162 210 162 218.5 160 c 128,-1,39
 227 158 227 158 235 157.5 c 128,-1,40
 243 157 243 157 247 157 c 0,41,42
 260 157 260 157 282 170 c 128,-1,43
 304 183 304 183 326 197 c 0,44,45
 337 204 337 204 350.5 201 c 128,-1,46
 364 198 364 198 374.5 188.5 c 128,-1,47
 385 179 385 179 389 164 c 128,-1,48
 393 149 393 149 386 133 c 0,49,50
 384 128 384 128 367.5 106.5 c 128,-1,51
 351 85 351 85 324 61.5 c 128,-1,52
 297 38 297 38 259.5 19 c 128,-1,53
 222 0 222 0 178 0 c 0,54,55
 132 0 132 0 102 14.5 c 128,-1,56
 72 29 72 29 54.5 48 c 128,-1,57
 37 67 37 67 30.5 85.5 c 128,-1,58
 24 104 24 104 25 111 c 2,59,-1
 48 270 l 2,60,61
 53 306 53 306 70 338.5 c 128,-1,62
 87 371 87 371 113 397.5 c 128,-1,63
 139 424 139 424 171 442 c 128,-1,64
 203 460 203 460 238 466 c 1,65,-1
 161 594 l 1,0,-1
EndSplineSet
EndChar

StartChar: eacute
Encoding: 233 233 130
Width: 471
Flags: W
LayerCount: 2
Fore
SplineSet
260 594 m 1,0,-1
 396 594 l 1,1,-1
 341 460 l 1,2,3
 375 449 375 449 399.5 425 c 128,-1,4
 424 401 424 401 429 361 c 0,5,6
 433 321 433 321 419 296 c 128,-1,7
 405 271 405 271 383.5 257 c 128,-1,8
 362 243 362 243 339 237 c 128,-1,9
 316 231 316 231 302 230 c 0,10,11
 294 229 294 229 279.5 229 c 128,-1,12
 265 229 265 229 250 230 c 1,13,14
 232 230 232 230 213 231 c 1,15,-1
 228 287 l 1,16,17
 234 288 234 288 242 289 c 0,18,19
 249 290 249 290 257.5 291 c 128,-1,20
 266 292 266 292 275 294 c 1,21,22
 307 297 307 297 317.5 312.5 c 128,-1,23
 328 328 328 328 326 339 c 0,24,25
 326 340 326 340 325 344 c 128,-1,26
 324 348 324 348 321 352.5 c 128,-1,27
 318 357 318 357 312.5 360.5 c 128,-1,28
 307 364 307 364 297 364 c 0,29,30
 238 364 238 364 219 286 c 0,31,32
 216 272 216 272 212 255 c 128,-1,33
 208 238 208 238 205 223 c 128,-1,34
 202 208 202 208 200 197 c 128,-1,35
 198 186 198 186 198 182 c 0,36,37
 198 173 198 173 204 167.5 c 128,-1,38
 210 162 210 162 218.5 160 c 128,-1,39
 227 158 227 158 235 157.5 c 128,-1,40
 243 157 243 157 247 157 c 0,41,42
 260 157 260 157 282 170 c 128,-1,43
 304 183 304 183 326 197 c 0,44,45
 337 204 337 204 350.5 201 c 128,-1,46
 364 198 364 198 374.5 188.5 c 128,-1,47
 385 179 385 179 389 164 c 128,-1,48
 393 149 393 149 386 133 c 0,49,50
 384 128 384 128 367.5 106.5 c 128,-1,51
 351 85 351 85 324 61.5 c 128,-1,52
 297 38 297 38 259.5 19 c 128,-1,53
 222 0 222 0 178 0 c 0,54,55
 132 0 132 0 102 14.5 c 128,-1,56
 72 29 72 29 54.5 48 c 128,-1,57
 37 67 37 67 30.5 85.5 c 128,-1,58
 24 104 24 104 25 111 c 2,59,-1
 48 270 l 2,60,61
 53 306 53 306 70 338.5 c 128,-1,62
 87 371 87 371 112.5 397 c 128,-1,63
 138 423 138 423 170 441 c 128,-1,64
 202 459 202 459 237 466 c 1,65,-1
 260 594 l 1,0,-1
EndSplineSet
EndChar

StartChar: ecircumflex
Encoding: 234 234 132
Width: 471
Flags: W
LayerCount: 2
Fore
SplineSet
227 542 m 1,0,-1
 352 623 l 1,1,-1
 465 582 l 1,2,-1
 448 485 l 1,3,-1
 334 517 l 1,4,-1
 275 470 l 1,5,6
 302 470 302 470 328.5 463.5 c 128,-1,7
 355 457 355 457 376 444 c 128,-1,8
 397 431 397 431 411.5 410.5 c 128,-1,9
 426 390 426 390 429 361 c 0,10,11
 433 321 433 321 419 296 c 128,-1,12
 405 271 405 271 383.5 257 c 128,-1,13
 362 243 362 243 339 237 c 128,-1,14
 316 231 316 231 302 230 c 0,15,16
 294 229 294 229 279.5 229 c 128,-1,17
 265 229 265 229 250 230 c 1,18,19
 232 230 232 230 213 231 c 1,20,-1
 228 287 l 1,21,22
 234 288 234 288 242 289 c 0,23,24
 249 290 249 290 257.5 291 c 128,-1,25
 266 292 266 292 275 294 c 1,26,27
 307 297 307 297 317.5 312.5 c 128,-1,28
 328 328 328 328 326 339 c 0,29,30
 326 340 326 340 325 344 c 128,-1,31
 324 348 324 348 321 352.5 c 128,-1,32
 318 357 318 357 312.5 360.5 c 128,-1,33
 307 364 307 364 297 364 c 0,34,35
 238 364 238 364 219 286 c 0,36,37
 216 272 216 272 212 255 c 128,-1,38
 208 238 208 238 205 223 c 128,-1,39
 202 208 202 208 200 197 c 128,-1,40
 198 186 198 186 198 182 c 0,41,42
 198 173 198 173 204 167.5 c 128,-1,43
 210 162 210 162 218.5 160 c 128,-1,44
 227 158 227 158 235 157.5 c 128,-1,45
 243 157 243 157 247 157 c 0,46,47
 260 157 260 157 282 170 c 128,-1,48
 304 183 304 183 326 197 c 0,49,50
 337 204 337 204 350.5 201 c 128,-1,51
 364 198 364 198 374.5 188.5 c 128,-1,52
 385 179 385 179 389 164 c 128,-1,53
 393 149 393 149 386 133 c 0,54,55
 384 128 384 128 367.5 106.5 c 128,-1,56
 351 85 351 85 324 61.5 c 128,-1,57
 297 38 297 38 259.5 19 c 128,-1,58
 222 0 222 0 178 0 c 0,59,60
 132 0 132 0 102 14.5 c 128,-1,61
 72 29 72 29 54.5 48 c 128,-1,62
 37 67 37 67 30.5 85.5 c 128,-1,63
 24 104 24 104 25 111 c 2,64,-1
 48 270 l 2,65,66
 52 303 52 303 67 333.5 c 128,-1,67
 82 364 82 364 104.5 389 c 128,-1,68
 127 414 127 414 155.5 432.5 c 128,-1,69
 184 451 184 451 215 460 c 1,70,-1
 227 542 l 1,0,-1
EndSplineSet
EndChar

StartChar: edieresis
Encoding: 235 235 133
Width: 471
Flags: W
LayerCount: 2
Fore
SplineSet
449 594 m 1,0,-1
 431 478 l 1,1,-1
 386 478 l 1,2,-1
 380 441 l 1,3,4
 400 428 400 428 413 408.5 c 128,-1,5
 426 389 426 389 429 361 c 0,6,7
 433 321 433 321 419 296 c 128,-1,8
 405 271 405 271 383.5 257 c 128,-1,9
 362 243 362 243 339 237 c 128,-1,10
 316 231 316 231 302 230 c 0,11,12
 294 229 294 229 279.5 229 c 128,-1,13
 265 229 265 229 250 230 c 1,14,15
 232 230 232 230 213 231 c 1,16,-1
 228 287 l 1,17,18
 234 288 234 288 242 289 c 0,19,20
 249 290 249 290 257.5 291 c 128,-1,21
 266 292 266 292 275 294 c 1,22,23
 307 297 307 297 317.5 312.5 c 128,-1,24
 328 328 328 328 326 339 c 0,25,26
 326 340 326 340 325 344 c 128,-1,27
 324 348 324 348 321 352.5 c 128,-1,28
 318 357 318 357 312.5 360.5 c 128,-1,29
 307 364 307 364 297 364 c 0,30,31
 238 364 238 364 219 286 c 0,32,33
 216 272 216 272 212 255 c 128,-1,34
 208 238 208 238 205 223 c 128,-1,35
 202 208 202 208 200 197 c 128,-1,36
 198 186 198 186 198 182 c 0,37,38
 198 173 198 173 204 167.5 c 128,-1,39
 210 162 210 162 218.5 160 c 128,-1,40
 227 158 227 158 235 157.5 c 128,-1,41
 243 157 243 157 247 157 c 0,42,43
 260 157 260 157 282 170 c 128,-1,44
 304 183 304 183 326 197 c 0,45,46
 337 204 337 204 350.5 201 c 128,-1,47
 364 198 364 198 374.5 188.5 c 128,-1,48
 385 179 385 179 389 164 c 128,-1,49
 393 149 393 149 386 133 c 0,50,51
 384 128 384 128 367.5 106.5 c 128,-1,52
 351 85 351 85 324 61.5 c 128,-1,53
 297 38 297 38 259.5 19 c 128,-1,54
 222 0 222 0 178 0 c 0,55,56
 132 0 132 0 102 14.5 c 128,-1,57
 72 29 72 29 54.5 48 c 128,-1,58
 37 67 37 67 30.5 85.5 c 128,-1,59
 24 104 24 104 25 111 c 2,60,-1
 48 270 l 2,61,62
 52 300 52 300 65 328 c 128,-1,63
 78 356 78 356 97.5 379.5 c 128,-1,64
 117 403 117 403 142 422 c 128,-1,65
 167 441 167 441 194 453 c 1,66,-1
 198 478 l 1,67,-1
 142 478 l 1,68,-1
 159 594 l 1,69,-1
 296 594 l 1,70,-1
 278 478 l 1,71,-1
 233 478 l 1,72,-1
 231 465 l 1,73,74
 254 470 254 470 274 470 c 0,75,76
 293 470 293 470 312 467 c 128,-1,77
 331 464 331 464 348 457 c 1,78,-1
 351 478 l 1,79,-1
 295 478 l 1,80,-1
 312 594 l 1,81,-1
 449 594 l 1,0,-1
EndSplineSet
EndChar

StartChar: iacute
Encoding: 237 237 134
Width: 354
Flags: W
LayerCount: 2
Fore
SplineSet
261 445 m 1,0,-1
 298 445 l 1,1,-1
 220 0 l 1,2,-1
 59 0 l 1,3,-1
 134 446 l 1,4,-1
 172 446 l 1,5,-1
 174 594 l 1,6,-1
 321 594 l 1,7,-1
 261 445 l 1,0,-1
EndSplineSet
EndChar

StartChar: icircumflex
Encoding: 238 238 136
Width: 430
Flags: W
LayerCount: 2
Fore
SplineSet
171 525 m 1,0,-1
 283 620 l 1,1,-1
 405 573 l 1,2,-1
 392 484 l 1,3,-1
 268 517 l 1,4,-1
 191 446 l 1,5,6
 212 446 212 446 222 446 c 128,-1,7
 232 446 232 446 237 446 c 128,-1,8
 242 446 242 446 244.5 446 c 128,-1,9
 247 446 247 446 252 446 c 128,-1,10
 257 446 257 446 267 445.5 c 128,-1,11
 277 445 277 445 298 445 c 1,12,-1
 220 0 l 1,13,-1
 59 0 l 1,14,-1
 134 446 l 1,15,-1
 159 446 l 1,16,-1
 171 525 l 1,0,-1
EndSplineSet
EndChar

StartChar: idieresis
Encoding: 239 239 137
Width: 409
Flags: W
LayerCount: 2
Fore
SplineSet
255 469 m 1,0,-1
 229 469 l 1,1,-1
 249 594 l 1,2,-1
 368 594 l 1,3,-1
 350 469 l 1,4,-1
 290 469 l 1,5,-1
 286 445 l 1,6,-1
 298 445 l 1,7,-1
 220 0 l 1,8,-1
 59 0 l 1,9,-1
 134 446 l 1,10,-1
 146 446 l 1,11,-1
 150 469 l 1,12,-1
 89 469 l 1,13,-1
 108 594 l 1,14,-1
 233 594 l 1,15,-1
 214 469 l 1,16,-1
 185 468 l 1,17,-1
 183 445 l 1,18,-1
 252 445 l 1,19,-1
 255 469 l 1,0,-1
EndSplineSet
EndChar

StartChar: eth
Encoding: 240 240 243
Width: 696
Flags: W
LayerCount: 2
Fore
SplineSet
340 463 m 1,0,1
 352 464 352 464 380.5 457.5 c 128,-1,2
 409 451 409 451 436 437 c 1,3,-1
 455 514 l 1,4,-1
 366 509 l 1,5,-1
 387 597 l 1,6,-1
 475 603 l 1,7,8
 476 621 476 621 479 638 c 128,-1,9
 482 655 482 655 474 668 c 128,-1,10
 466 681 466 681 440 689 c 128,-1,11
 414 697 414 697 359 697 c 0,12,13
 355 697 355 697 345 696 c 128,-1,14
 335 695 335 695 324.5 694 c 128,-1,15
 314 693 314 693 305 692 c 128,-1,16
 296 691 296 691 294 690 c 1,17,-1
 310 747 l 1,18,19
 345 755 345 755 382 760.5 c 128,-1,20
 419 766 419 766 457 766 c 0,21,22
 526 766 526 766 557 753 c 128,-1,23
 588 740 588 740 596 718 c 128,-1,24
 604 696 604 696 597.5 668 c 128,-1,25
 591 640 591 640 585 609 c 1,26,-1
 658 613 l 1,27,-1
 648 521 l 1,28,-1
 562 517 l 1,29,30
 543 429 543 429 521 343 c 128,-1,31
 499 257 499 257 476 171 c 0,32,33
 468 142 468 142 444.5 112 c 128,-1,34
 421 82 421 82 383.5 57 c 128,-1,35
 346 32 346 32 295.5 16 c 128,-1,36
 245 0 245 0 184 0 c 0,37,38
 135 0 135 0 107 12.5 c 128,-1,39
 79 25 79 25 64.5 43 c 128,-1,40
 50 61 50 61 46 80 c 128,-1,41
 42 99 42 99 42 113 c 1,42,43
 41 126 41 126 46 156 c 128,-1,44
 51 186 51 186 56 217 c 0,45,46
 62 253 62 253 71 295 c 0,47,48
 79 331 79 331 105 359 c 128,-1,49
 131 387 131 387 165 407 c 128,-1,50
 199 427 199 427 236.5 440 c 128,-1,51
 274 453 274 453 305 459 c 1,52,-1
 283 332 l 1,53,54
 271 322 271 322 264 310.5 c 128,-1,55
 257 299 257 299 252.5 287.5 c 128,-1,56
 248 276 248 276 246 266.5 c 128,-1,57
 244 257 244 257 243 251 c 0,58,59
 239 230 239 230 236 212 c 0,60,61
 233 197 233 197 231 183 c 128,-1,62
 229 169 229 169 228 165 c 0,63,64
 228 162 228 162 229 156.5 c 128,-1,65
 230 151 230 151 234.5 146.5 c 128,-1,66
 239 142 239 142 248 138.5 c 128,-1,67
 257 135 257 135 274 135 c 0,68,69
 287 135 287 135 302.5 140 c 128,-1,70
 318 145 318 145 332 154 c 128,-1,71
 346 163 346 163 356.5 175 c 128,-1,72
 367 187 367 187 371 201 c 0,73,74
 375 214 375 214 378.5 230 c 128,-1,75
 382 246 382 246 385.5 261 c 128,-1,76
 389 276 389 276 391 289 c 128,-1,77
 393 302 393 302 394 308 c 0,78,79
 395 316 395 316 394 324.5 c 128,-1,80
 393 333 393 333 389 339.5 c 128,-1,81
 385 346 385 346 376 350 c 128,-1,82
 367 354 367 354 351 354 c 0,83,84
 335 353 335 353 325 350.5 c 128,-1,85
 315 348 315 348 308 344 c 0,86,87
 300 340 300 340 295 335 c 1,88,-1
 318 460 l 1,89,-1
 340 463 l 1,90,-1
 340 463 l 1,0,1
EndSplineSet
EndChar

StartChar: ntilde
Encoding: 241 241 138
Width: 643
Flags: W
LayerCount: 2
Fore
SplineSet
192 562 m 1,0,1
 203 566 203 566 217 572.5 c 128,-1,2
 231 579 231 579 247 586 c 128,-1,3
 263 593 263 593 280 598.5 c 128,-1,4
 297 604 297 604 313 607 c 0,5,6
 321 608 321 608 337 608 c 128,-1,7
 353 608 353 608 371.5 608 c 128,-1,8
 390 608 390 608 408.5 608.5 c 128,-1,9
 427 609 427 609 440 611 c 0,10,11
 454 613 454 613 472 619 c 128,-1,12
 490 625 490 625 506 631 c 0,13,14
 524 638 524 638 544 647 c 1,15,-1
 526 530 l 1,16,17
 511 524 511 524 495 520 c 0,18,19
 481 516 481 516 466 512 c 128,-1,20
 451 508 451 508 437 506 c 0,21,22
 426 504 426 504 407 503.5 c 128,-1,23
 388 503 388 503 367 502 c 128,-1,24
 346 501 346 501 325 499.5 c 128,-1,25
 304 498 304 498 288 494 c 0,26,27
 275 491 275 491 264 484 c 128,-1,28
 253 477 253 477 243 469 c 1,29,-1
 308 469 l 1,30,-1
 298 411 l 1,31,32
 313 424 313 424 338.5 435 c 128,-1,33
 364 446 364 446 393.5 454.5 c 128,-1,34
 423 463 423 463 451 467.5 c 128,-1,35
 479 472 479 472 498 472 c 0,36,37
 526 472 526 472 550 466 c 128,-1,38
 574 460 574 460 590.5 446.5 c 128,-1,39
 607 433 607 433 615 412 c 128,-1,40
 623 391 623 391 619 361 c 2,41,-1
 567 0 l 1,42,-1
 368 0 l 1,43,-1
 426 323 l 2,44,45
 431 351 431 351 418 363.5 c 128,-1,46
 405 376 405 376 381 376 c 0,47,48
 339 376 339 376 312 356.5 c 128,-1,49
 285 337 285 337 280 315 c 0,50,51
 276 297 276 297 271.5 274 c 128,-1,52
 267 251 267 251 262 225.5 c 128,-1,53
 257 200 257 200 252 173.5 c 128,-1,54
 247 147 247 147 243 122 c 0,55,56
 232 63 232 63 222 0 c 1,57,-1
 47 0 l 1,58,-1
 132 469 l 1,59,-1
 180 469 l 1,60,-1
 192 562 l 1,61,-1
 192 562 l 1,0,1
EndSplineSet
EndChar

StartChar: ograve
Encoding: 242 242 140
Width: 500
Flags: W
LayerCount: 2
Fore
SplineSet
376 464 m 1,0,1
 394 459 394 459 412.5 451 c 128,-1,2
 431 443 431 443 446.5 430.5 c 128,-1,3
 462 418 462 418 472 400.5 c 128,-1,4
 482 383 482 383 482 361 c 0,5,6
 482 350 482 350 478.5 327 c 128,-1,7
 475 304 475 304 470.5 277.5 c 128,-1,8
 466 251 466 251 461 226 c 128,-1,9
 456 201 456 201 453 188 c 0,10,11
 446 159 446 159 425.5 126 c 128,-1,12
 405 93 405 93 370 64.5 c 128,-1,13
 335 36 335 36 285 17.5 c 128,-1,14
 235 -1 235 -1 169 -1 c 0,15,16
 121 -1 121 -1 92.5 12 c 128,-1,17
 64 25 64 25 50 43.5 c 128,-1,18
 36 62 36 62 31.5 81.5 c 128,-1,19
 27 101 27 101 27 114 c 0,20,21
 26 128 26 128 31 159 c 128,-1,22
 36 190 36 190 41 222 c 0,23,24
 47 260 47 260 56 304 c 1,25,26
 71 341 71 341 97.5 370 c 128,-1,27
 124 399 124 399 156 420 c 128,-1,28
 188 441 188 441 223 453 c 128,-1,29
 258 465 258 465 290 468 c 1,30,-1
 268 342 l 1,31,32
 263 338 263 338 258.5 333 c 128,-1,33
 254 328 254 328 250 320 c 0,34,35
 242 305 242 305 236 284 c 128,-1,36
 230 263 230 263 225.5 242 c 128,-1,37
 221 221 221 221 218 203 c 128,-1,38
 215 185 215 185 214 175 c 0,39,40
 213 171 213 171 213.5 166 c 128,-1,41
 214 161 214 161 218 156.5 c 128,-1,42
 222 152 222 152 231 148.5 c 128,-1,43
 240 145 240 145 257 145 c 0,44,45
 300 145 300 145 321 161 c 128,-1,46
 342 177 342 177 347 189 c 0,47,48
 349 195 349 195 353.5 212.5 c 128,-1,49
 358 230 358 230 362.5 250 c 128,-1,50
 367 270 367 270 371 289 c 128,-1,51
 375 308 375 308 377 316 c 0,52,53
 380 332 380 332 371.5 347.5 c 128,-1,54
 363 363 363 363 337 363 c 0,55,56
 324 363 324 363 313.5 360.5 c 128,-1,57
 303 358 303 358 295 355 c 0,58,59
 286 351 286 351 279 347 c 1,60,-1
 320 594 l 1,61,-1
 430 594 l 1,62,-1
 376 464 l 1,63,-1
 376 464 l 1,0,1
EndSplineSet
EndChar

StartChar: ocircumflex
Encoding: 244 244 141
Width: 500
Flags: W
LayerCount: 2
Fore
SplineSet
357 623 m 1,0,-1
 463 577 l 1,1,-1
 452 482 l 1,2,-1
 344 517 l 1,3,-1
 290 468 l 1,4,-1
 269 343 l 1,5,6
 264 339 264 339 259 333.5 c 128,-1,7
 254 328 254 328 250 320 c 0,8,9
 242 305 242 305 236 284 c 128,-1,10
 230 263 230 263 225.5 242 c 128,-1,11
 221 221 221 221 218 203 c 128,-1,12
 215 185 215 185 214 175 c 0,13,14
 213 171 213 171 213.5 166 c 128,-1,15
 214 161 214 161 218 156.5 c 128,-1,16
 222 152 222 152 231 148.5 c 128,-1,17
 240 145 240 145 257 145 c 0,18,19
 300 145 300 145 321 161 c 128,-1,20
 342 177 342 177 347 189 c 0,21,22
 349 195 349 195 353.5 212.5 c 128,-1,23
 358 230 358 230 362.5 250 c 128,-1,24
 367 270 367 270 371 289 c 128,-1,25
 375 308 375 308 377 316 c 0,26,27
 380 332 380 332 371.5 347.5 c 128,-1,28
 363 363 363 363 337 363 c 0,29,30
 324 363 324 363 314 360.5 c 128,-1,31
 304 358 304 358 296 355 c 0,32,33
 287 351 287 351 280 347 c 1,34,-1
 300 468 l 1,35,-1
 326 472 l 2,36,37
 337 473 337 473 362.5 468.5 c 128,-1,38
 388 464 388 464 414.5 451 c 128,-1,39
 441 438 441 438 461 416 c 128,-1,40
 481 394 481 394 482 361 c 0,41,42
 482 350 482 350 478.5 327 c 128,-1,43
 475 304 475 304 470.5 277.5 c 128,-1,44
 466 251 466 251 461 226 c 128,-1,45
 456 201 456 201 453 188 c 0,46,47
 446 159 446 159 425.5 126 c 128,-1,48
 405 93 405 93 370 64.5 c 128,-1,49
 335 36 335 36 285 17.5 c 128,-1,50
 235 -1 235 -1 169 -1 c 0,51,52
 121 -1 121 -1 92.5 12 c 128,-1,53
 64 25 64 25 50 43.5 c 128,-1,54
 36 62 36 62 31.5 81.5 c 128,-1,55
 27 101 27 101 27 114 c 0,56,57
 26 128 26 128 31 159 c 128,-1,58
 36 190 36 190 41 222 c 0,59,60
 47 260 47 260 56 304 c 1,61,62
 77 357 77 357 118 391 c 128,-1,63
 159 425 159 425 207 445 c 1,64,-1
 218 521 l 1,65,-1
 357 623 l 1,0,-1
EndSplineSet
EndChar

StartChar: otilde
Encoding: 245 245 143
Width: 504
Flags: W
LayerCount: 2
Fore
SplineSet
220 556 m 1,0,1
 242 569 242 569 272.5 583 c 128,-1,2
 303 597 303 597 329 602 c 256,3,4
 355 607 355 607 383 607.5 c 128,-1,5
 411 608 411 608 430 614 c 0,6,7
 440 617 440 617 450.5 622 c 128,-1,8
 461 627 461 627 471 632 c 0,9,10
 482 637 482 637 493 644 c 1,11,-1
 474 525 l 1,12,13
 466 519 466 519 457 515 c 0,14,15
 449 511 449 511 439.5 506.5 c 128,-1,16
 430 502 430 502 419 500 c 0,17,18
 408 497 408 497 392 495.5 c 128,-1,19
 376 494 376 494 360 492.5 c 128,-1,20
 344 491 344 491 330.5 490 c 128,-1,21
 317 489 317 489 313 488 c 0,22,23
 307 486 307 486 302.5 482.5 c 128,-1,24
 298 479 298 479 294 476 c 0,25,26
 290 472 290 472 287 468 c 1,27,-1
 266 342 l 1,28,29
 261 338 261 338 257.5 333 c 128,-1,30
 254 328 254 328 250 320 c 0,31,32
 242 305 242 305 236 284 c 128,-1,33
 230 263 230 263 225.5 242 c 128,-1,34
 221 221 221 221 218 203 c 128,-1,35
 215 185 215 185 214 175 c 0,36,37
 213 171 213 171 213.5 166 c 128,-1,38
 214 161 214 161 218 156.5 c 128,-1,39
 222 152 222 152 231 148.5 c 128,-1,40
 240 145 240 145 257 145 c 0,41,42
 300 145 300 145 321 161 c 128,-1,43
 342 177 342 177 347 189 c 0,44,45
 349 195 349 195 353.5 212.5 c 128,-1,46
 358 230 358 230 362.5 250 c 128,-1,47
 367 270 367 270 371 289 c 128,-1,48
 375 308 375 308 377 316 c 0,49,50
 380 332 380 332 371.5 347.5 c 128,-1,51
 363 363 363 363 337 363 c 0,52,53
 320 363 320 363 308.5 360.5 c 128,-1,54
 297 358 297 358 290 355 c 0,55,56
 281 351 281 351 277 347 c 1,57,-1
 297 469 l 1,58,-1
 326 472 l 2,59,60
 337 473 337 473 362.5 468 c 128,-1,61
 388 463 388 463 414.5 450.5 c 128,-1,62
 441 438 441 438 461 416 c 128,-1,63
 481 394 481 394 482 361 c 0,64,65
 482 350 482 350 478.5 327 c 128,-1,66
 475 304 475 304 470.5 277.5 c 128,-1,67
 466 251 466 251 461 226 c 128,-1,68
 456 201 456 201 453 188 c 0,69,70
 446 159 446 159 425.5 126 c 128,-1,71
 405 93 405 93 370 64.5 c 128,-1,72
 335 36 335 36 285 17.5 c 128,-1,73
 235 -1 235 -1 169 -1 c 0,74,75
 121 -1 121 -1 92.5 12 c 128,-1,76
 64 25 64 25 50 43.5 c 128,-1,77
 36 62 36 62 31.5 81.5 c 128,-1,78
 27 101 27 101 27 114 c 0,79,80
 26 128 26 128 31 159 c 128,-1,81
 36 190 36 190 41 222 c 0,82,83
 47 260 47 260 56 304 c 1,84,85
 76 355 76 355 117 388.5 c 128,-1,86
 158 422 158 422 204 442 c 1,87,-1
 220 556 l 1,0,1
EndSplineSet
EndChar

StartChar: odieresis
Encoding: 246 246 142
Width: 500
Flags: W
LayerCount: 2
Fore
SplineSet
429 443 m 1,0,1
 449 429 449 429 465 408.5 c 128,-1,2
 481 388 481 388 482 361 c 0,3,4
 482 350 482 350 478.5 327 c 128,-1,5
 475 304 475 304 470.5 277.5 c 128,-1,6
 466 251 466 251 461 226 c 128,-1,7
 456 201 456 201 453 188 c 0,8,9
 446 159 446 159 425.5 126 c 128,-1,10
 405 93 405 93 370 64.5 c 128,-1,11
 335 36 335 36 285 17.5 c 128,-1,12
 235 -1 235 -1 169 -1 c 0,13,14
 121 -1 121 -1 92.5 12 c 128,-1,15
 64 25 64 25 50 43.5 c 128,-1,16
 36 62 36 62 31.5 81.5 c 128,-1,17
 27 101 27 101 27 114 c 0,18,19
 26 128 26 128 31 159 c 128,-1,20
 36 190 36 190 41 222 c 0,21,22
 47 260 47 260 56 304 c 1,23,24
 68 334 68 334 87.5 357.5 c 128,-1,25
 107 381 107 381 131 400 c 128,-1,26
 155 419 155 419 182.5 432.5 c 128,-1,27
 210 446 210 446 237 455 c 1,28,-1
 240 485 l 1,29,-1
 178 486 l 1,30,-1
 193 594 l 1,31,-1
 328 594 l 1,32,-1
 312 486 l 1,33,-1
 290 486 l 1,34,-1
 287 469 l 1,35,-1
 288 469 l 1,36,-1
 268 342 l 1,37,38
 263 338 263 338 257.5 333 c 128,-1,39
 252 328 252 328 250 320 c 1,40,41
 242 305 242 305 236 284 c 128,-1,42
 230 263 230 263 225.5 242 c 128,-1,43
 221 221 221 221 218 203 c 128,-1,44
 215 185 215 185 214 175 c 0,45,46
 213 171 213 171 213.5 166 c 128,-1,47
 214 161 214 161 218 156.5 c 128,-1,48
 222 152 222 152 231 148.5 c 128,-1,49
 240 145 240 145 257 145 c 0,50,51
 300 145 300 145 321 161 c 128,-1,52
 342 177 342 177 347 189 c 0,53,54
 349 195 349 195 353.5 212.5 c 128,-1,55
 358 230 358 230 362.5 250 c 128,-1,56
 367 270 367 270 371 289 c 128,-1,57
 375 308 375 308 377 316 c 0,58,59
 380 332 380 332 371.5 347.5 c 128,-1,60
 363 363 363 363 337 363 c 0,61,62
 322 363 322 363 311 360.5 c 128,-1,63
 300 358 300 358 293 355 c 0,64,65
 284 351 284 351 279 347 c 1,66,-1
 298 470 l 1,67,-1
 326 472 l 2,68,69
 334 473 334 473 348.5 471.5 c 128,-1,70
 363 470 363 470 383 464 c 1,71,-1
 387 485 l 1,72,-1
 329 486 l 1,73,-1
 344 594 l 1,74,-1
 478 594 l 1,75,-1
 462 486 l 1,76,-1
 437 486 l 1,77,-1
 429 443 l 1,78,-1
 429 443 l 1,0,1
EndSplineSet
EndChar

StartChar: divide
Encoding: 247 247 201
Width: 463
Flags: W
LayerCount: 2
Fore
SplineSet
63 292 m 1,0,-1
 422 292 l 1,1,-1
 395 162 l 1,2,-1
 41 162 l 1,3,-1
 63 292 l 1,0,-1
289 133 m 1,4,-1
 267 0 l 1,5,-1
 120 0 l 1,6,-1
 142 133 l 1,7,-1
 289 133 l 1,4,-1
331 456 m 1,8,-1
 314 322 l 1,9,-1
 167 322 l 1,10,-1
 189 456 l 1,11,-1
 331 456 l 1,8,-1
EndSplineSet
EndChar

StartChar: oslash
Encoding: 248 248 179
Width: 585
Flags: W
LayerCount: 2
Fore
SplineSet
55 59 m 1,0,1
 47 74 47 74 45 88.5 c 128,-1,2
 43 103 43 103 42 114 c 1,3,4
 42 128 42 128 46.5 159 c 128,-1,5
 51 190 51 190 56 222 c 0,6,7
 62 260 62 260 71 304 c 1,8,9
 88 340 88 340 114 368 c 128,-1,10
 140 396 140 396 170.5 416 c 128,-1,11
 201 436 201 436 234 449 c 128,-1,12
 267 462 267 462 298 468 c 1,13,-1
 286 342 l 1,14,15
 274 332 274 332 268 321 c 128,-1,16
 262 310 262 310 259 299 c 128,-1,17
 256 288 256 288 254.5 279 c 128,-1,18
 253 270 253 270 252 264 c 0,19,20
 245 241 245 241 241 223 c 1,21,22
 236 207 236 207 233 192.5 c 128,-1,23
 230 178 230 178 229 175 c 1,24,25
 229 171 229 171 228 166 c 128,-1,26
 227 161 227 161 230.5 156 c 128,-1,27
 234 151 234 151 243.5 148 c 128,-1,28
 253 145 253 145 273 145 c 256,29,30
 293 145 293 145 307.5 150.5 c 128,-1,31
 322 156 322 156 332 163 c 128,-1,32
 342 170 342 170 348 177 c 128,-1,33
 354 184 354 184 358 189 c 256,34,35
 362 194 362 194 367.5 211.5 c 128,-1,36
 373 229 373 229 378.5 250 c 128,-1,37
 384 271 384 271 388 290.5 c 128,-1,38
 392 310 392 310 394 318 c 0,39,40
 398 334 398 334 390.5 349 c 128,-1,41
 383 364 383 364 352 363 c 0,42,43
 336 362 336 362 326 359.5 c 128,-1,44
 316 357 316 357 309 354 c 0,45,46
 301 350 301 350 297 345 c 1,47,-1
 309 469 l 1,48,-1
 341 472 l 2,49,50
 349 473 349 473 364 470.5 c 128,-1,51
 379 468 379 468 396 462 c 1,52,-1
 443 541 l 1,53,-1
 558 510 l 1,54,-1
 491 392 l 1,55,56
 497 378 497 378 497 361 c 0,57,58
 497 350 497 350 493 327 c 128,-1,59
 489 304 489 304 484 277.5 c 128,-1,60
 479 251 479 251 473.5 226 c 128,-1,61
 468 201 468 201 464 188 c 0,62,63
 456 159 456 159 434.5 127 c 128,-1,64
 413 95 413 95 378 67.5 c 128,-1,65
 343 40 343 40 294.5 21.5 c 128,-1,66
 246 3 246 3 184 2 c 0,67,68
 179 1 179 1 174 1.5 c 128,-1,69
 169 2 169 2 164 2 c 1,70,71
 156 -8 156 -8 149.5 -17 c 128,-1,72
 143 -26 143 -26 137 -34 c 0,73,74
 130 -43 130 -43 124 -51 c 1,75,-1
 29 19 l 1,76,-1
 55 59 l 1,77,-1
 55 59 l 1,0,1
EndSplineSet
EndChar

StartChar: ugrave
Encoding: 249 249 145
Width: 608
Flags: W
LayerCount: 2
Fore
SplineSet
166 594 m 1,0,-1
 312 594 l 1,1,-1
 343 431 l 1,2,-1
 276 431 l 1,3,4
 270 402 270 402 262 359.5 c 128,-1,5
 254 317 254 317 246 276 c 128,-1,6
 238 235 238 235 232 202.5 c 128,-1,7
 226 170 226 170 225 162 c 0,8,9
 223 148 223 148 226.5 139 c 128,-1,10
 230 130 230 130 238 125 c 128,-1,11
 246 120 246 120 257.5 118 c 128,-1,12
 269 116 269 116 281 116 c 0,13,14
 289 116 289 116 301 121 c 128,-1,15
 313 126 313 126 325 134 c 128,-1,16
 337 142 337 142 346 153 c 128,-1,17
 355 164 355 164 358 175 c 0,18,19
 359 182 359 182 362.5 198.5 c 128,-1,20
 366 215 366 215 370 237 c 128,-1,21
 374 259 374 259 379 285 c 128,-1,22
 384 311 384 311 389 337 c 0,23,24
 400 398 400 398 415 469 c 1,25,-1
 582 469 l 1,26,-1
 507 0 l 1,27,-1
 331 0 l 1,28,-1
 339 47 l 1,29,30
 323 40 323 40 305.5 32 c 128,-1,31
 288 24 288 24 267.5 16.5 c 128,-1,32
 247 9 247 9 223 4 c 128,-1,33
 199 -1 199 -1 170 -1 c 0,34,35
 126 -1 126 -1 99.5 11.5 c 128,-1,36
 73 24 73 24 59.5 44.5 c 128,-1,37
 46 65 46 65 43.5 90 c 128,-1,38
 41 115 41 115 45 140 c 0,39,40
 46 144 46 144 48.5 160.5 c 128,-1,41
 51 177 51 177 55 201 c 128,-1,42
 59 225 59 225 63.5 254 c 128,-1,43
 68 283 68 283 73 313 c 0,44,45
 84 383 84 383 99 469 c 1,46,-1
 230 469 l 1,47,-1
 166 594 l 1,0,-1
EndSplineSet
EndChar

StartChar: uacute
Encoding: 250 250 144
Width: 608
Flags: W
LayerCount: 2
Fore
SplineSet
260 594 m 1,0,-1
 394 594 l 1,1,-1
 322 417 l 1,2,-1
 273 417 l 1,3,4
 267 386 267 386 259 345 c 128,-1,5
 251 304 251 304 244 266 c 128,-1,6
 237 228 237 228 231.5 198.5 c 128,-1,7
 226 169 226 169 225 162 c 0,8,9
 223 148 223 148 226.5 139 c 128,-1,10
 230 130 230 130 238 125 c 128,-1,11
 246 120 246 120 257.5 118 c 128,-1,12
 269 116 269 116 281 116 c 0,13,14
 289 116 289 116 301 121 c 128,-1,15
 313 126 313 126 325 134 c 128,-1,16
 337 142 337 142 346 153 c 128,-1,17
 355 164 355 164 358 175 c 0,18,19
 359 182 359 182 362.5 198.5 c 128,-1,20
 366 215 366 215 370 237 c 128,-1,21
 374 259 374 259 379 285 c 128,-1,22
 384 311 384 311 389 337 c 0,23,24
 400 398 400 398 415 469 c 1,25,-1
 582 469 l 1,26,-1
 507 0 l 1,27,-1
 331 0 l 1,28,-1
 339 47 l 1,29,30
 323 40 323 40 305.5 32 c 128,-1,31
 288 24 288 24 267.5 16.5 c 128,-1,32
 247 9 247 9 223 4 c 128,-1,33
 199 -1 199 -1 170 -1 c 0,34,35
 126 -1 126 -1 99.5 11.5 c 128,-1,36
 73 24 73 24 59.5 44.5 c 128,-1,37
 46 65 46 65 43.5 90 c 128,-1,38
 41 115 41 115 45 140 c 0,39,40
 46 144 46 144 48.5 160.5 c 128,-1,41
 51 177 51 177 55 201 c 128,-1,42
 59 225 59 225 63.5 254 c 128,-1,43
 68 283 68 283 73 313 c 0,44,45
 84 383 84 383 99 469 c 1,46,-1
 236 469 l 1,47,-1
 260 594 l 1,0,-1
EndSplineSet
EndChar

StartChar: ucircumflex
Encoding: 251 251 146
Width: 608
Flags: W
LayerCount: 2
Fore
SplineSet
200 523 m 1,0,-1
 320 619 l 1,1,-1
 444 570 l 1,2,-1
 431 491 l 1,3,-1
 312 519 l 1,4,-1
 244 469 l 1,5,-1
 283 469 l 1,6,7
 283 469 283 469 279 448 c 128,-1,8
 275 427 275 427 269 395 c 128,-1,9
 263 363 263 363 255.5 325.5 c 128,-1,10
 248 288 248 288 241.5 254 c 128,-1,11
 235 220 235 220 230.5 194.5 c 128,-1,12
 226 169 226 169 225 162 c 0,13,14
 223 148 223 148 226.5 139 c 128,-1,15
 230 130 230 130 238 125 c 128,-1,16
 246 120 246 120 257.5 118 c 128,-1,17
 269 116 269 116 281 116 c 0,18,19
 289 116 289 116 301 121 c 128,-1,20
 313 126 313 126 325 134 c 128,-1,21
 337 142 337 142 346 153 c 128,-1,22
 355 164 355 164 358 175 c 0,23,24
 359 182 359 182 362.5 198.5 c 128,-1,25
 366 215 366 215 370 237 c 128,-1,26
 374 259 374 259 379 285 c 128,-1,27
 384 311 384 311 389 337 c 0,28,29
 400 398 400 398 415 469 c 1,30,-1
 582 469 l 1,31,-1
 507 0 l 1,32,-1
 331 0 l 1,33,-1
 339 47 l 1,34,35
 323 40 323 40 305.5 32 c 128,-1,36
 288 24 288 24 267.5 16.5 c 128,-1,37
 247 9 247 9 223 4 c 128,-1,38
 199 -1 199 -1 170 -1 c 0,39,40
 126 -1 126 -1 99.5 11.5 c 128,-1,41
 73 24 73 24 59.5 44.5 c 128,-1,42
 46 65 46 65 43.5 90 c 128,-1,43
 41 115 41 115 45 140 c 0,44,45
 46 144 46 144 48.5 160.5 c 128,-1,46
 51 177 51 177 55 201 c 128,-1,47
 59 225 59 225 63.5 254 c 128,-1,48
 68 283 68 283 73 313 c 0,49,50
 84 383 84 383 99 469 c 1,51,-1
 193 469 l 1,52,-1
 200 523 l 1,0,-1
EndSplineSet
EndChar

StartChar: udieresis
Encoding: 252 252 147
Width: 608
Flags: W
LayerCount: 2
Fore
SplineSet
446 594 m 1,0,-1
 618 594 l 1,1,-1
 599 470 l 1,2,-1
 541 469 l 1,3,-1
 535 445 l 1,4,-1
 577 445 l 1,5,-1
 507 0 l 1,6,-1
 331 0 l 1,7,-1
 339 47 l 1,8,9
 323 40 323 40 305.5 32 c 128,-1,10
 288 24 288 24 267.5 16.5 c 128,-1,11
 247 9 247 9 223 4 c 128,-1,12
 199 -1 199 -1 170 -1 c 0,13,14
 126 -1 126 -1 100.5 11.5 c 128,-1,15
 75 24 75 24 62.5 44.5 c 128,-1,16
 50 65 50 65 48 90 c 128,-1,17
 46 115 46 115 50 140 c 0,18,19
 51 144 51 144 53 159.5 c 128,-1,20
 55 175 55 175 58.5 197 c 128,-1,21
 62 219 62 219 66 246 c 128,-1,22
 70 273 70 273 75 301 c 0,23,24
 85 366 85 366 98 446 c 1,25,-1
 176 446 l 1,26,-1
 180 469 l 1,27,-1
 117 469 l 1,28,-1
 137 594 l 1,29,-1
 322 594 l 1,30,-1
 303 470 l 1,31,-1
 238 469 l 1,32,-1
 233 446 l 1,33,-1
 277 446 l 1,34,35
 277 446 277 446 273.5 426.5 c 128,-1,36
 270 407 270 407 264.5 378 c 128,-1,37
 259 349 259 349 252.5 314 c 128,-1,38
 246 279 246 279 240 247.5 c 128,-1,39
 234 216 234 216 230 192.5 c 128,-1,40
 226 169 226 169 225 162 c 0,41,42
 223 148 223 148 226.5 139 c 128,-1,43
 230 130 230 130 238 125 c 128,-1,44
 246 120 246 120 257.5 118 c 128,-1,45
 269 116 269 116 281 116 c 0,46,47
 289 116 289 116 301 121 c 128,-1,48
 313 126 313 126 325 134 c 128,-1,49
 337 142 337 142 346 153 c 128,-1,50
 355 164 355 164 358 175 c 0,51,52
 359 182 359 182 362.5 197.5 c 128,-1,53
 366 213 366 213 369.5 233.5 c 128,-1,54
 373 254 373 254 377.5 277.5 c 128,-1,55
 382 301 382 301 387 325 c 0,56,57
 398 380 398 380 410 445 c 1,58,-1
 478 445 l 1,59,-1
 483 469 l 1,60,-1
 426 469 l 1,61,-1
 446 594 l 1,0,-1
EndSplineSet
EndChar

StartChar: yacute
Encoding: 253 253 7
Width: 651
Flags: W
LayerCount: 2
Fore
SplineSet
354 594 m 1,0,-1
 281 405 l 1,1,-1
 259 405 l 1,2,3
 254 379 254 379 248 346.5 c 128,-1,4
 242 314 242 314 236.5 281 c 128,-1,5
 231 248 231 248 225.5 217 c 128,-1,6
 220 186 220 186 217 163 c 0,7,8
 215 150 215 150 220.5 140 c 128,-1,9
 226 130 226 130 235 123 c 128,-1,10
 244 116 244 116 255.5 112.5 c 128,-1,11
 267 109 267 109 278 109 c 0,12,13
 320 109 320 109 350 136 c 128,-1,14
 380 163 380 163 387 207 c 2,15,-1
 429 469 l 1,16,-1
 615 469 l 1,17,-1
 526 -52 l 2,18,19
 520 -86 520 -86 499.5 -113.5 c 128,-1,20
 479 -141 479 -141 449.5 -160.5 c 128,-1,21
 420 -180 420 -180 385 -190.5 c 128,-1,22
 350 -201 350 -201 314 -201 c 0,23,24
 247 -201 247 -201 181.5 -182.5 c 128,-1,25
 116 -164 116 -164 57 -132 c 1,26,27
 56 -120 56 -120 59 -108 c 128,-1,28
 62 -96 62 -96 63 -83 c 1,29,30
 98 -91 98 -91 135.5 -100 c 128,-1,31
 173 -109 173 -109 214 -106 c 0,32,33
 260 -103 260 -103 289 -95 c 128,-1,34
 318 -87 318 -87 335.5 -70.5 c 128,-1,35
 353 -54 353 -54 360.5 -27.5 c 128,-1,36
 368 -1 368 -1 371 39 c 1,37,38
 333 15 333 15 296.5 -3 c 128,-1,39
 260 -21 260 -21 215 -24 c 0,40,41
 182 -26 182 -26 151 -19.5 c 128,-1,42
 120 -13 120 -13 95 3.5 c 128,-1,43
 70 20 70 20 53.5 45.5 c 128,-1,44
 37 71 37 71 35 106 c 1,45,-1
 93 469 l 1,46,-1
 194 469 l 1,47,-1
 213 594 l 1,48,-1
 354 594 l 1,0,-1
EndSplineSet
EndChar

StartChar: thorn
Encoding: 254 254 9
Width: 597
Flags: W
LayerCount: 2
Fore
SplineSet
184 -103 m 1,0,-1
 36 -103 l 1,1,-1
 146 563 l 1,2,-1
 296 564 l 1,3,-1
 221 121 l 1,4,5
 222 119 222 119 226.5 114 c 128,-1,6
 231 109 231 109 238.5 104 c 128,-1,7
 246 99 246 99 256.5 94.5 c 128,-1,8
 267 90 267 90 280 90 c 0,9,10
 300 90 300 90 314 96 c 128,-1,11
 328 102 328 102 337.5 110.5 c 128,-1,12
 347 119 347 119 352 127.5 c 128,-1,13
 357 136 357 136 360 142 c 0,14,15
 363 147 363 147 366 161 c 128,-1,16
 369 175 369 175 372 191 c 128,-1,17
 375 207 375 207 377.5 220.5 c 128,-1,18
 380 234 380 234 381 239 c 0,19,20
 383 248 383 248 383.5 266.5 c 128,-1,21
 384 285 384 285 378 297 c 1,22,23
 373 310 373 310 361 313.5 c 128,-1,24
 349 317 349 317 329 315 c 0,25,26
 319 314 319 314 307.5 309 c 128,-1,27
 296 304 296 304 285 297 c 0,28,29
 273 289 273 289 261 279 c 1,30,-1
 281 406 l 1,31,32
 300 421 300 421 322 433 c 0,33,34
 341 444 341 444 366.5 453 c 128,-1,35
 392 462 392 462 422 464 c 0,36,37
 440 465 440 465 466 456.5 c 128,-1,38
 492 448 492 448 515.5 431.5 c 128,-1,39
 539 415 539 415 555.5 390.5 c 128,-1,40
 572 366 572 366 572 335 c 0,41,42
 572 278 572 278 560.5 228.5 c 128,-1,43
 549 179 549 179 539 143 c 0,44,45
 536 132 536 132 522 108 c 128,-1,46
 508 84 508 84 483 59 c 128,-1,47
 458 34 458 34 422 15.5 c 128,-1,48
 386 -3 386 -3 338 -3 c 0,49,50
 281 -3 281 -3 250.5 8.5 c 128,-1,51
 220 20 220 20 206 29 c 1,52,-1
 184 -103 l 1,0,-1
EndSplineSet
EndChar
